G04 #@! TF.GenerationSoftware,KiCad,Pcbnew,8.0.9-8.0.9-0~ubuntu22.04.1*
G04 #@! TF.CreationDate,2025-04-02T13:47:27-07:00*
G04 #@! TF.ProjectId,HBD1E,48424431-452e-46b6-9963-61645f706362,rev?*
G04 #@! TF.SameCoordinates,Original*
G04 #@! TF.FileFunction,Paste,Top*
G04 #@! TF.FilePolarity,Positive*
%FSLAX46Y46*%
G04 Gerber Fmt 4.6, Leading zero omitted, Abs format (unit mm)*
G04 Created by KiCad (PCBNEW 8.0.9-8.0.9-0~ubuntu22.04.1) date 2025-04-02 13:47:27*
%MOMM*%
%LPD*%
G01*
G04 APERTURE LIST*
G04 Aperture macros list*
%AMRoundRect*
0 Rectangle with rounded corners*
0 $1 Rounding radius*
0 $2 $3 $4 $5 $6 $7 $8 $9 X,Y pos of 4 corners*
0 Add a 4 corners polygon primitive as box body*
4,1,4,$2,$3,$4,$5,$6,$7,$8,$9,$2,$3,0*
0 Add four circle primitives for the rounded corners*
1,1,$1+$1,$2,$3*
1,1,$1+$1,$4,$5*
1,1,$1+$1,$6,$7*
1,1,$1+$1,$8,$9*
0 Add four rect primitives between the rounded corners*
20,1,$1+$1,$2,$3,$4,$5,0*
20,1,$1+$1,$4,$5,$6,$7,0*
20,1,$1+$1,$6,$7,$8,$9,0*
20,1,$1+$1,$8,$9,$2,$3,0*%
G04 Aperture macros list end*
%ADD10RoundRect,0.150000X-0.875000X-0.150000X0.875000X-0.150000X0.875000X0.150000X-0.875000X0.150000X0*%
%ADD11RoundRect,0.250000X-0.475000X0.337500X-0.475000X-0.337500X0.475000X-0.337500X0.475000X0.337500X0*%
%ADD12RoundRect,0.250000X0.925000X-0.875000X0.925000X0.875000X-0.925000X0.875000X-0.925000X-0.875000X0*%
%ADD13RoundRect,0.250000X0.350000X0.450000X-0.350000X0.450000X-0.350000X-0.450000X0.350000X-0.450000X0*%
%ADD14RoundRect,0.250000X-1.000000X-0.650000X1.000000X-0.650000X1.000000X0.650000X-1.000000X0.650000X0*%
%ADD15RoundRect,0.249999X0.450001X1.425001X-0.450001X1.425001X-0.450001X-1.425001X0.450001X-1.425001X0*%
%ADD16RoundRect,0.249999X-1.425001X0.450001X-1.425001X-0.450001X1.425001X-0.450001X1.425001X0.450001X0*%
%ADD17RoundRect,0.250000X0.475000X-0.337500X0.475000X0.337500X-0.475000X0.337500X-0.475000X-0.337500X0*%
%ADD18RoundRect,0.250000X0.475000X-0.250000X0.475000X0.250000X-0.475000X0.250000X-0.475000X-0.250000X0*%
%ADD19RoundRect,0.250000X-0.450000X0.350000X-0.450000X-0.350000X0.450000X-0.350000X0.450000X0.350000X0*%
%ADD20RoundRect,0.250000X1.100000X-0.325000X1.100000X0.325000X-1.100000X0.325000X-1.100000X-0.325000X0*%
%ADD21RoundRect,0.249999X1.425001X-0.450001X1.425001X0.450001X-1.425001X0.450001X-1.425001X-0.450001X0*%
%ADD22RoundRect,0.250000X-0.325000X-1.100000X0.325000X-1.100000X0.325000X1.100000X-0.325000X1.100000X0*%
%ADD23RoundRect,0.250000X-0.337500X-0.475000X0.337500X-0.475000X0.337500X0.475000X-0.337500X0.475000X0*%
G04 APERTURE END LIST*
D10*
X68850000Y-60055000D03*
X68850000Y-61325000D03*
X68850000Y-62595000D03*
X68850000Y-63865000D03*
X68850000Y-65135000D03*
X68850000Y-66405000D03*
X68850000Y-67675000D03*
X68850000Y-68945000D03*
X78150000Y-68945000D03*
X78150000Y-67675000D03*
X78150000Y-66405000D03*
X78150000Y-62595000D03*
X78150000Y-61325000D03*
X78150000Y-60055000D03*
D11*
X53000000Y-66962500D03*
X53000000Y-69037500D03*
D12*
X52500000Y-78550000D03*
X52500000Y-73450000D03*
D13*
X50500000Y-64500000D03*
X48500000Y-64500000D03*
D14*
X89110000Y-55000000D03*
X93110000Y-55000000D03*
D13*
X50500000Y-62000000D03*
X48500000Y-62000000D03*
D15*
X94050000Y-75000000D03*
X87950000Y-75000000D03*
D14*
X89500000Y-79500000D03*
X93500000Y-79500000D03*
D16*
X84610000Y-54950000D03*
X84610000Y-61050000D03*
D17*
X53000000Y-59500000D03*
X53000000Y-57425000D03*
D18*
X66000000Y-68400000D03*
X66000000Y-66500000D03*
D11*
X53000000Y-61962500D03*
X53000000Y-64037500D03*
D19*
X63500000Y-66500000D03*
X63500000Y-68500000D03*
D11*
X65500000Y-61462500D03*
X65500000Y-63537500D03*
D20*
X80000000Y-50975000D03*
X80000000Y-48025000D03*
D21*
X84500000Y-77550000D03*
X84500000Y-71450000D03*
D22*
X78025000Y-54000000D03*
X80975000Y-54000000D03*
D23*
X78462500Y-57500000D03*
X80537500Y-57500000D03*
D19*
X50500000Y-67000000D03*
X50500000Y-69000000D03*
D13*
X50500000Y-59500000D03*
X48500000Y-59500000D03*
D15*
X94160000Y-60000000D03*
X88060000Y-60000000D03*
M02*
