M48
; DRILL file {KiCad 8.0.9-8.0.9-0~ubuntu22.04.1} date 2025-04-03T00:10:28-0700
; FORMAT={-:-/ absolute / metric / decimal}
; #@! TF.CreationDate,2025-04-03T00:10:28-07:00
; #@! TF.GenerationSoftware,Kicad,Pcbnew,8.0.9-8.0.9-0~ubuntu22.04.1
; #@! TF.FileFunction,Plated,1,2,PTH
FMAT,2
METRIC
; #@! TA.AperFunction,Plated,PTH,ViaDrill
T1C0.400
; #@! TA.AperFunction,Plated,PTH,ComponentDrill
T2C1.000
; #@! TA.AperFunction,Plated,PTH,ComponentDrill
T3C1.500
; #@! TA.AperFunction,Plated,PTH,ComponentDrill
T4C2.700
%
G90
G05
T1
X46.5Y-66.0
X46.5Y-67.5
X46.5Y-69.0
X46.5Y-70.5
X51.0Y-57.5
X53.0Y-65.5
X53.0Y-70.5
X55.0Y-73.5
X59.8Y-65.5
X63.5Y-70.0
X64.5Y-62.562
X64.5Y-64.5
X67.0Y-65.0
X79.998Y-62.512
X80.0Y-66.5
X81.0Y-62.5
X81.0Y-66.5
X82.0Y-56.0
X82.0Y-57.5
X82.0Y-62.5
X82.0Y-66.5
X83.0Y-62.5
X83.0Y-66.5
X88.0Y-49.0
X88.0Y-50.0
X88.0Y-51.0
X88.0Y-52.0
X88.0Y-83.0
X89.0Y-83.0
X90.0Y-83.0
X91.0Y-83.0
X95.5Y-54.0
X95.5Y-55.0
X95.5Y-56.0
X95.5Y-57.0
X96.0Y-76.0
X96.0Y-77.0
X96.0Y-78.0
T2
X42.0Y-59.42
X42.0Y-61.96
X42.0Y-64.5
X42.0Y-67.04
X42.0Y-69.58
X42.0Y-72.12
X42.0Y-74.66
X42.0Y-77.2
X60.262Y-45.407
X60.262Y-79.0
X62.802Y-45.407
X62.802Y-79.0
X67.882Y-45.407
X67.882Y-79.0
X72.962Y-45.407
X72.962Y-79.0
T3
X100.04Y-49.0
X100.04Y-54.08
X100.04Y-56.62
X100.04Y-59.16
X100.04Y-69.31
X100.04Y-74.39
X100.04Y-76.93
X100.04Y-79.47
T4
X44.0Y-46.45
X44.0Y-84.55
M30
