G04 #@! TF.GenerationSoftware,KiCad,Pcbnew,8.0.9-8.0.9-0~ubuntu22.04.1*
G04 #@! TF.CreationDate,2025-04-02T13:47:27-07:00*
G04 #@! TF.ProjectId,HBD1E,48424431-452e-46b6-9963-61645f706362,rev?*
G04 #@! TF.SameCoordinates,Original*
G04 #@! TF.FileFunction,Copper,L1,Top*
G04 #@! TF.FilePolarity,Positive*
%FSLAX46Y46*%
G04 Gerber Fmt 4.6, Leading zero omitted, Abs format (unit mm)*
G04 Created by KiCad (PCBNEW 8.0.9-8.0.9-0~ubuntu22.04.1) date 2025-04-02 13:47:27*
%MOMM*%
%LPD*%
G01*
G04 APERTURE LIST*
G04 Aperture macros list*
%AMRoundRect*
0 Rectangle with rounded corners*
0 $1 Rounding radius*
0 $2 $3 $4 $5 $6 $7 $8 $9 X,Y pos of 4 corners*
0 Add a 4 corners polygon primitive as box body*
4,1,4,$2,$3,$4,$5,$6,$7,$8,$9,$2,$3,0*
0 Add four circle primitives for the rounded corners*
1,1,$1+$1,$2,$3*
1,1,$1+$1,$4,$5*
1,1,$1+$1,$6,$7*
1,1,$1+$1,$8,$9*
0 Add four rect primitives between the rounded corners*
20,1,$1+$1,$2,$3,$4,$5,0*
20,1,$1+$1,$4,$5,$6,$7,0*
20,1,$1+$1,$6,$7,$8,$9,0*
20,1,$1+$1,$8,$9,$2,$3,0*%
G04 Aperture macros list end*
G04 #@! TA.AperFunction,SMDPad,CuDef*
%ADD10RoundRect,0.150000X-0.875000X-0.150000X0.875000X-0.150000X0.875000X0.150000X-0.875000X0.150000X0*%
G04 #@! TD*
G04 #@! TA.AperFunction,SMDPad,CuDef*
%ADD11R,4.000000X4.000000*%
G04 #@! TD*
G04 #@! TA.AperFunction,ComponentPad*
%ADD12C,3.100000*%
G04 #@! TD*
G04 #@! TA.AperFunction,ConnectorPad*
%ADD13C,5.400000*%
G04 #@! TD*
G04 #@! TA.AperFunction,ComponentPad*
%ADD14R,4.500000X1.905000*%
G04 #@! TD*
G04 #@! TA.AperFunction,ComponentPad*
%ADD15O,4.500000X1.905000*%
G04 #@! TD*
G04 #@! TA.AperFunction,SMDPad,CuDef*
%ADD16RoundRect,0.250000X-0.475000X0.337500X-0.475000X-0.337500X0.475000X-0.337500X0.475000X0.337500X0*%
G04 #@! TD*
G04 #@! TA.AperFunction,SMDPad,CuDef*
%ADD17RoundRect,0.250000X0.925000X-0.875000X0.925000X0.875000X-0.925000X0.875000X-0.925000X-0.875000X0*%
G04 #@! TD*
G04 #@! TA.AperFunction,SMDPad,CuDef*
%ADD18RoundRect,0.250000X0.350000X0.450000X-0.350000X0.450000X-0.350000X-0.450000X0.350000X-0.450000X0*%
G04 #@! TD*
G04 #@! TA.AperFunction,SMDPad,CuDef*
%ADD19RoundRect,0.250000X-1.000000X-0.650000X1.000000X-0.650000X1.000000X0.650000X-1.000000X0.650000X0*%
G04 #@! TD*
G04 #@! TA.AperFunction,SMDPad,CuDef*
%ADD20RoundRect,0.249999X0.450001X1.425001X-0.450001X1.425001X-0.450001X-1.425001X0.450001X-1.425001X0*%
G04 #@! TD*
G04 #@! TA.AperFunction,SMDPad,CuDef*
%ADD21RoundRect,0.249999X-1.425001X0.450001X-1.425001X-0.450001X1.425001X-0.450001X1.425001X0.450001X0*%
G04 #@! TD*
G04 #@! TA.AperFunction,SMDPad,CuDef*
%ADD22RoundRect,0.250000X0.475000X-0.337500X0.475000X0.337500X-0.475000X0.337500X-0.475000X-0.337500X0*%
G04 #@! TD*
G04 #@! TA.AperFunction,SMDPad,CuDef*
%ADD23RoundRect,0.250000X0.475000X-0.250000X0.475000X0.250000X-0.475000X0.250000X-0.475000X-0.250000X0*%
G04 #@! TD*
G04 #@! TA.AperFunction,ComponentPad*
%ADD24R,1.500000X1.500000*%
G04 #@! TD*
G04 #@! TA.AperFunction,ComponentPad*
%ADD25C,1.500000*%
G04 #@! TD*
G04 #@! TA.AperFunction,SMDPad,CuDef*
%ADD26RoundRect,0.250000X-0.450000X0.350000X-0.450000X-0.350000X0.450000X-0.350000X0.450000X0.350000X0*%
G04 #@! TD*
G04 #@! TA.AperFunction,SMDPad,CuDef*
%ADD27RoundRect,0.250000X1.100000X-0.325000X1.100000X0.325000X-1.100000X0.325000X-1.100000X-0.325000X0*%
G04 #@! TD*
G04 #@! TA.AperFunction,SMDPad,CuDef*
%ADD28RoundRect,0.249999X1.425001X-0.450001X1.425001X0.450001X-1.425001X0.450001X-1.425001X-0.450001X0*%
G04 #@! TD*
G04 #@! TA.AperFunction,SMDPad,CuDef*
%ADD29RoundRect,0.250000X-0.325000X-1.100000X0.325000X-1.100000X0.325000X1.100000X-0.325000X1.100000X0*%
G04 #@! TD*
G04 #@! TA.AperFunction,ComponentPad*
%ADD30R,1.700000X1.700000*%
G04 #@! TD*
G04 #@! TA.AperFunction,ComponentPad*
%ADD31O,1.700000X1.700000*%
G04 #@! TD*
G04 #@! TA.AperFunction,SMDPad,CuDef*
%ADD32RoundRect,0.250000X-0.337500X-0.475000X0.337500X-0.475000X0.337500X0.475000X-0.337500X0.475000X0*%
G04 #@! TD*
G04 #@! TA.AperFunction,ViaPad*
%ADD33C,0.800000*%
G04 #@! TD*
G04 #@! TA.AperFunction,Conductor*
%ADD34C,0.500000*%
G04 #@! TD*
G04 #@! TA.AperFunction,Conductor*
%ADD35C,0.250000*%
G04 #@! TD*
G04 #@! TA.AperFunction,Conductor*
%ADD36C,1.000000*%
G04 #@! TD*
G04 #@! TA.AperFunction,Conductor*
%ADD37C,0.700000*%
G04 #@! TD*
G04 APERTURE END LIST*
D10*
X68850000Y-60055000D03*
X68850000Y-61325000D03*
X68850000Y-62595000D03*
X68850000Y-63865000D03*
X68850000Y-65135000D03*
X68850000Y-66405000D03*
X68850000Y-67675000D03*
X68850000Y-68945000D03*
X78150000Y-68945000D03*
X78150000Y-67675000D03*
X78150000Y-66405000D03*
X78150000Y-62595000D03*
X78150000Y-61325000D03*
X78150000Y-60055000D03*
D11*
X85000000Y-50500000D03*
D12*
X44000000Y-84550000D03*
D13*
X44000000Y-84550000D03*
D14*
X100040000Y-49000000D03*
D15*
X100040000Y-54080000D03*
X100040000Y-56620000D03*
X100040000Y-59160000D03*
D16*
X53000000Y-66962500D03*
X53000000Y-69037500D03*
D17*
X52500000Y-78550000D03*
X52500000Y-73450000D03*
D18*
X50500000Y-64500000D03*
X48500000Y-64500000D03*
D14*
X100040000Y-69310000D03*
D15*
X100040000Y-74390000D03*
X100040000Y-76930000D03*
X100040000Y-79470000D03*
D12*
X44000000Y-46450000D03*
D13*
X44000000Y-46450000D03*
D19*
X89110000Y-55000000D03*
X93110000Y-55000000D03*
D11*
X47500000Y-75000000D03*
X57000000Y-55500000D03*
D18*
X50500000Y-62000000D03*
X48500000Y-62000000D03*
D20*
X94050000Y-75000000D03*
X87950000Y-75000000D03*
D19*
X89500000Y-79500000D03*
X93500000Y-79500000D03*
D11*
X57000000Y-62500000D03*
D21*
X84610000Y-54950000D03*
X84610000Y-61050000D03*
D22*
X53000000Y-59500000D03*
X53000000Y-57425000D03*
D23*
X66000000Y-68400000D03*
X66000000Y-66500000D03*
D16*
X53000000Y-61962500D03*
X53000000Y-64037500D03*
D24*
X60262500Y-79000000D03*
D25*
X62802500Y-79000000D03*
X67882500Y-79000000D03*
X72962500Y-79000000D03*
D26*
X63500000Y-66500000D03*
X63500000Y-68500000D03*
D16*
X65500000Y-61462500D03*
X65500000Y-63537500D03*
D27*
X80000000Y-50975000D03*
X80000000Y-48025000D03*
D28*
X84500000Y-77550000D03*
X84500000Y-71450000D03*
D29*
X78025000Y-54000000D03*
X80975000Y-54000000D03*
D30*
X42000000Y-59420000D03*
D31*
X42000000Y-61960000D03*
X42000000Y-64500000D03*
X42000000Y-67040000D03*
X42000000Y-69580000D03*
X42000000Y-72120000D03*
X42000000Y-74660000D03*
X42000000Y-77200000D03*
D32*
X78462500Y-57500000D03*
X80537500Y-57500000D03*
D24*
X60262500Y-45407500D03*
D25*
X62802500Y-45407500D03*
X67882500Y-45407500D03*
X72962500Y-45407500D03*
D26*
X50500000Y-67000000D03*
X50500000Y-69000000D03*
D11*
X57000000Y-69000000D03*
D18*
X50500000Y-59500000D03*
X48500000Y-59500000D03*
D20*
X94160000Y-60000000D03*
X88060000Y-60000000D03*
D33*
X63500000Y-70000000D03*
X55000000Y-73500000D03*
X46500000Y-66000000D03*
X64000000Y-63500000D03*
X51000000Y-57500000D03*
X46500000Y-69000000D03*
X46500000Y-70500000D03*
X53000000Y-65500000D03*
X46500000Y-67500000D03*
X64500000Y-64500000D03*
X53000000Y-70500000D03*
X59800000Y-65500000D03*
X67000000Y-65000000D03*
X83000000Y-66500000D03*
X80000000Y-66500000D03*
X81000000Y-66500000D03*
X82000000Y-66500000D03*
X88000000Y-50000000D03*
X88000000Y-49000000D03*
X88000000Y-52000000D03*
X88000000Y-51000000D03*
X96000000Y-76000000D03*
X90000000Y-83000000D03*
X96000000Y-78000000D03*
X88000000Y-83000000D03*
X91000000Y-83000000D03*
X96000000Y-77000000D03*
X89000000Y-83000000D03*
X95500000Y-57000000D03*
X79998226Y-62511909D03*
X82000000Y-56000000D03*
X82000000Y-57500000D03*
X83000000Y-62500000D03*
X81000000Y-62500000D03*
X95500000Y-54000000D03*
X82000000Y-62500000D03*
X95500000Y-55000000D03*
X95500000Y-56000000D03*
D34*
X68850000Y-63865000D02*
X65827500Y-63865000D01*
D35*
X53000000Y-57425000D02*
X53075000Y-57425000D01*
X63500000Y-68500000D02*
X63500000Y-70000000D01*
D36*
X46500000Y-70500000D02*
X46500000Y-69000000D01*
D34*
X51075000Y-57425000D02*
X51000000Y-57500000D01*
D36*
X46500000Y-69000000D02*
X46500000Y-67500000D01*
D35*
X53000000Y-64037500D02*
X53000000Y-65500000D01*
D34*
X65500000Y-63537500D02*
X65462500Y-63537500D01*
X53000000Y-57425000D02*
X51075000Y-57425000D01*
D36*
X43380000Y-72120000D02*
X45000000Y-70500000D01*
D34*
X65827500Y-63865000D02*
X65500000Y-63537500D01*
D35*
X53000000Y-69037500D02*
X53000000Y-70500000D01*
X63600000Y-68400000D02*
X63500000Y-68500000D01*
D36*
X52500000Y-71000000D02*
X53000000Y-70500000D01*
D34*
X64037500Y-63537500D02*
X64000000Y-63500000D01*
D36*
X46500000Y-67500000D02*
X46500000Y-66000000D01*
D34*
X65462500Y-63537500D02*
X64500000Y-64500000D01*
D36*
X45000000Y-70500000D02*
X46500000Y-70500000D01*
D35*
X66000000Y-68400000D02*
X63600000Y-68400000D01*
D36*
X52500000Y-73450000D02*
X54950000Y-73450000D01*
X42000000Y-72120000D02*
X43380000Y-72120000D01*
X54950000Y-73450000D02*
X55000000Y-73500000D01*
D34*
X65500000Y-63537500D02*
X64037500Y-63537500D01*
D36*
X52500000Y-73450000D02*
X52500000Y-71000000D01*
D35*
X57000000Y-58500000D02*
X66000000Y-58500000D01*
X54500000Y-58500000D02*
X57000000Y-58500000D01*
X53500000Y-59500000D02*
X54500000Y-58500000D01*
X66000000Y-58500000D02*
X67555000Y-60055000D01*
X67555000Y-60055000D02*
X68850000Y-60055000D01*
X53000000Y-59500000D02*
X53500000Y-59500000D01*
X50500000Y-59500000D02*
X53000000Y-59500000D01*
X57000000Y-55500000D02*
X57000000Y-58500000D01*
D34*
X67595000Y-62595000D02*
X66462500Y-61462500D01*
D36*
X49000000Y-70500000D02*
X50500000Y-69000000D01*
X68850000Y-68945000D02*
X68850000Y-71650000D01*
X68500000Y-72000000D02*
X61500000Y-72000000D01*
X61000000Y-71500000D02*
X61000000Y-71000000D01*
X68850000Y-71650000D02*
X68500000Y-72000000D01*
X50050000Y-78550000D02*
X52500000Y-78550000D01*
X47500000Y-75000000D02*
X49000000Y-73500000D01*
X47500000Y-75000000D02*
X47500000Y-76000000D01*
X52500000Y-78550000D02*
X53950000Y-78550000D01*
X47160000Y-74660000D02*
X47500000Y-75000000D01*
D34*
X66462500Y-61462500D02*
X65500000Y-61462500D01*
D36*
X49000000Y-73500000D02*
X49000000Y-70500000D01*
X63037500Y-61462500D02*
X65500000Y-61462500D01*
X53950000Y-78550000D02*
X61000000Y-71500000D01*
X61000000Y-71000000D02*
X61000000Y-63500000D01*
X61500000Y-72000000D02*
X61000000Y-71500000D01*
X47500000Y-76000000D02*
X50050000Y-78550000D01*
X42000000Y-74660000D02*
X47160000Y-74660000D01*
X61000000Y-63500000D02*
X63037500Y-61462500D01*
D34*
X68850000Y-62595000D02*
X67595000Y-62595000D01*
D35*
X52962500Y-62000000D02*
X53000000Y-61962500D01*
X53000000Y-61962500D02*
X56462500Y-61962500D01*
X50500000Y-62000000D02*
X52962500Y-62000000D01*
X57000000Y-62500000D02*
X57500000Y-62500000D01*
X57000000Y-62500000D02*
X60000000Y-59500000D01*
X66000000Y-59500000D02*
X67825000Y-61325000D01*
X60000000Y-59500000D02*
X66000000Y-59500000D01*
X56462500Y-61962500D02*
X57000000Y-62500000D01*
X67825000Y-61325000D02*
X68850000Y-61325000D01*
X57000000Y-66500000D02*
X57500000Y-66000000D01*
X51537500Y-66962500D02*
X53000000Y-66962500D01*
D34*
X54962500Y-66962500D02*
X57000000Y-69000000D01*
D35*
X68715000Y-65000000D02*
X68850000Y-65135000D01*
X50500000Y-64500000D02*
X50500000Y-67000000D01*
X57000000Y-69000000D02*
X57000000Y-66500000D01*
X50500000Y-67000000D02*
X51500000Y-67000000D01*
X67000000Y-65000000D02*
X68715000Y-65000000D01*
D34*
X53000000Y-66962500D02*
X54962500Y-66962500D01*
D35*
X57500000Y-66000000D02*
X58000000Y-65500000D01*
X51500000Y-67000000D02*
X51537500Y-66962500D01*
X58000000Y-65500000D02*
X59800000Y-65500000D01*
X68850000Y-66405000D02*
X66095000Y-66405000D01*
X66000000Y-66500000D02*
X63500000Y-66500000D01*
X66095000Y-66405000D02*
X66000000Y-66500000D01*
D36*
X57762500Y-81500000D02*
X60262500Y-79000000D01*
X49500000Y-81500000D02*
X57762500Y-81500000D01*
X43300000Y-78500000D02*
X46500000Y-78500000D01*
X42000000Y-77200000D02*
X43300000Y-78500000D01*
X46500000Y-78500000D02*
X49500000Y-81500000D01*
D37*
X81000000Y-66500000D02*
X82000000Y-66500000D01*
X78150000Y-66405000D02*
X79905000Y-66405000D01*
X79905000Y-66405000D02*
X80000000Y-66500000D01*
X82000000Y-66500000D02*
X83000000Y-66500000D01*
X80000000Y-66500000D02*
X81000000Y-66500000D01*
D36*
X78025000Y-56475000D02*
X78025000Y-54000000D01*
D37*
X78462500Y-59742500D02*
X78150000Y-60055000D01*
D36*
X78000000Y-56500000D02*
X78025000Y-56475000D01*
X78025000Y-54000000D02*
X78025000Y-52025000D01*
X86500000Y-49000000D02*
X88000000Y-49000000D01*
X86500000Y-49000000D02*
X85000000Y-50500000D01*
X85500000Y-50000000D02*
X88000000Y-50000000D01*
X85500000Y-51000000D02*
X88000000Y-51000000D01*
X86500000Y-52000000D02*
X88000000Y-52000000D01*
X86500000Y-52000000D02*
X85000000Y-50500000D01*
X84525000Y-50975000D02*
X85000000Y-50500000D01*
X85000000Y-50500000D02*
X85500000Y-50000000D01*
X78462500Y-57500000D02*
X78462500Y-56962500D01*
X78000000Y-52000000D02*
X79025000Y-50975000D01*
X78025000Y-52025000D02*
X78000000Y-52000000D01*
X85000000Y-50500000D02*
X85500000Y-51000000D01*
D37*
X78462500Y-57500000D02*
X78462500Y-59742500D01*
D36*
X79025000Y-50975000D02*
X80000000Y-50975000D01*
X80000000Y-50975000D02*
X84525000Y-50975000D01*
X78462500Y-56962500D02*
X78000000Y-56500000D01*
X89110000Y-55000000D02*
X84660000Y-55000000D01*
X84660000Y-55000000D02*
X84610000Y-54950000D01*
X88000000Y-79500000D02*
X86050000Y-77550000D01*
X89500000Y-79500000D02*
X88000000Y-79500000D01*
X86050000Y-77550000D02*
X84500000Y-77550000D01*
D35*
X48460000Y-61960000D02*
X48500000Y-62000000D01*
X42000000Y-61960000D02*
X48460000Y-61960000D01*
X42000000Y-64500000D02*
X48500000Y-64500000D01*
X48420000Y-59420000D02*
X48500000Y-59500000D01*
X42000000Y-59420000D02*
X48420000Y-59420000D01*
D37*
X78150000Y-61325000D02*
X80175000Y-61325000D01*
D36*
X87010000Y-61050000D02*
X88060000Y-60000000D01*
X84610000Y-61050000D02*
X80450000Y-61050000D01*
X84610000Y-61050000D02*
X87010000Y-61050000D01*
X80450000Y-61050000D02*
X80175000Y-61325000D01*
X81050000Y-68000000D02*
X80500000Y-68000000D01*
D37*
X78150000Y-67675000D02*
X80175000Y-67675000D01*
D36*
X87950000Y-72950000D02*
X87950000Y-75000000D01*
X86450000Y-71450000D02*
X87950000Y-72950000D01*
D37*
X80175000Y-67675000D02*
X80500000Y-68000000D01*
D36*
X84500000Y-71450000D02*
X86450000Y-71450000D01*
X84500000Y-71450000D02*
X81050000Y-68000000D01*
D34*
X99500000Y-77000000D02*
X96000000Y-77000000D01*
X96000000Y-77000000D02*
X96000000Y-78000000D01*
X96000000Y-77000000D02*
X96000000Y-76000000D01*
D37*
X79998226Y-62511909D02*
X80988091Y-62511909D01*
X99500000Y-56620000D02*
X95880000Y-56620000D01*
X82000000Y-62500000D02*
X83000000Y-62500000D01*
X79915135Y-62595000D02*
X79998226Y-62511909D01*
X80975000Y-54975000D02*
X82000000Y-56000000D01*
X95880000Y-56620000D02*
X95500000Y-57000000D01*
X80988091Y-62511909D02*
X81000000Y-62500000D01*
X95500000Y-54000000D02*
X95500000Y-55000000D01*
X95580000Y-54080000D02*
X95500000Y-54000000D01*
X95500000Y-56000000D02*
X95500000Y-57000000D01*
X78150000Y-62595000D02*
X79915135Y-62595000D01*
X80975000Y-54000000D02*
X80975000Y-54975000D01*
X81000000Y-62500000D02*
X82000000Y-62500000D01*
X95500000Y-55000000D02*
X95500000Y-56000000D01*
X80537500Y-57500000D02*
X82000000Y-57500000D01*
D36*
X100040000Y-59160000D02*
X95000000Y-59160000D01*
X94160000Y-60000000D02*
X94160000Y-56050000D01*
X94160000Y-56050000D02*
X93110000Y-55000000D01*
X95000000Y-59160000D02*
X94160000Y-60000000D01*
X93500000Y-79500000D02*
X93500000Y-78000000D01*
X99460000Y-79500000D02*
X99500000Y-79540000D01*
D35*
X99160000Y-79880000D02*
X99500000Y-79540000D01*
D36*
X93500000Y-79500000D02*
X99460000Y-79500000D01*
X93500000Y-78000000D02*
X94050000Y-77450000D01*
X94050000Y-77450000D02*
X94050000Y-75000000D01*
G04 #@! TA.AperFunction,Conductor*
G36*
X63943039Y-41119685D02*
G01*
X63988794Y-41172489D01*
X64000000Y-41224000D01*
X64000000Y-57500000D01*
X70376000Y-57500000D01*
X70443039Y-57519685D01*
X70488794Y-57572489D01*
X70500000Y-57624000D01*
X70500000Y-59468577D01*
X70480315Y-59535616D01*
X70427511Y-59581371D01*
X70358353Y-59591315D01*
X70294797Y-59562290D01*
X70269268Y-59531698D01*
X70249455Y-59498196D01*
X70249448Y-59498187D01*
X70131812Y-59380551D01*
X70131803Y-59380544D01*
X69988601Y-59295855D01*
X69988596Y-59295853D01*
X69828835Y-59249438D01*
X69828829Y-59249437D01*
X69791507Y-59246500D01*
X69791502Y-59246500D01*
X67908498Y-59246500D01*
X67908492Y-59246500D01*
X67871170Y-59249437D01*
X67766600Y-59279817D01*
X67696730Y-59279616D01*
X67644325Y-59248421D01*
X66403836Y-58007931D01*
X66403832Y-58007928D01*
X66300081Y-57938603D01*
X66300072Y-57938598D01*
X66184785Y-57890845D01*
X66184777Y-57890843D01*
X66062398Y-57866500D01*
X66062394Y-57866500D01*
X59584615Y-57866500D01*
X59517576Y-57846815D01*
X59471821Y-57794011D01*
X59461877Y-57724853D01*
X59468434Y-57699165D01*
X59501988Y-57609204D01*
X59501988Y-57609203D01*
X59501989Y-57609201D01*
X59505936Y-57572489D01*
X59508499Y-57548654D01*
X59508500Y-57548637D01*
X59508500Y-53451362D01*
X59508499Y-53451345D01*
X59505157Y-53420270D01*
X59501989Y-53390799D01*
X59450889Y-53253796D01*
X59363261Y-53136739D01*
X59246204Y-53049111D01*
X59109203Y-52998011D01*
X59048654Y-52991500D01*
X59048638Y-52991500D01*
X54951362Y-52991500D01*
X54951345Y-52991500D01*
X54890797Y-52998011D01*
X54890795Y-52998011D01*
X54753795Y-53049111D01*
X54636739Y-53136739D01*
X54549111Y-53253795D01*
X54498011Y-53390795D01*
X54498011Y-53390797D01*
X54491500Y-53451345D01*
X54491500Y-57548654D01*
X54498011Y-57609202D01*
X54498012Y-57609207D01*
X54532257Y-57701019D01*
X54537242Y-57770710D01*
X54503758Y-57832034D01*
X54442435Y-57865519D01*
X54440267Y-57865970D01*
X54315219Y-57890843D01*
X54315214Y-57890845D01*
X54281448Y-57904829D01*
X54281449Y-57904830D01*
X54199926Y-57938598D01*
X54199922Y-57938600D01*
X54096171Y-58007924D01*
X54096163Y-58007930D01*
X53725580Y-58378514D01*
X53664257Y-58411999D01*
X53625296Y-58414191D01*
X53525545Y-58404000D01*
X52474462Y-58404000D01*
X52474446Y-58404001D01*
X52370572Y-58414613D01*
X52202264Y-58470384D01*
X52202259Y-58470386D01*
X52051346Y-58563471D01*
X51925970Y-58688847D01*
X51925967Y-58688851D01*
X51852724Y-58807597D01*
X51800776Y-58854322D01*
X51747186Y-58866500D01*
X51677795Y-58866500D01*
X51610756Y-58846815D01*
X51565001Y-58794011D01*
X51560089Y-58781503D01*
X51542117Y-58727266D01*
X51542115Y-58727262D01*
X51449030Y-58576348D01*
X51323652Y-58450970D01*
X51229898Y-58393142D01*
X51172740Y-58357886D01*
X51172735Y-58357884D01*
X51004427Y-58302113D01*
X50900546Y-58291500D01*
X50099462Y-58291500D01*
X50099446Y-58291501D01*
X49995572Y-58302113D01*
X49827264Y-58357884D01*
X49827259Y-58357886D01*
X49676346Y-58450971D01*
X49587681Y-58539637D01*
X49526358Y-58573122D01*
X49456666Y-58568138D01*
X49412319Y-58539637D01*
X49323653Y-58450971D01*
X49323652Y-58450970D01*
X49229898Y-58393142D01*
X49172740Y-58357886D01*
X49172735Y-58357884D01*
X49004427Y-58302113D01*
X48900546Y-58291500D01*
X48099462Y-58291500D01*
X48099446Y-58291501D01*
X47995572Y-58302113D01*
X47827264Y-58357884D01*
X47827259Y-58357886D01*
X47676346Y-58450971D01*
X47550971Y-58576346D01*
X47550970Y-58576348D01*
X47457885Y-58727262D01*
X47457884Y-58727264D01*
X47457679Y-58727597D01*
X47405731Y-58774321D01*
X47352140Y-58786500D01*
X43482500Y-58786500D01*
X43415461Y-58766815D01*
X43369706Y-58714011D01*
X43358500Y-58662500D01*
X43358500Y-58521362D01*
X43358499Y-58521345D01*
X43354334Y-58482616D01*
X43351989Y-58460799D01*
X43348323Y-58450971D01*
X43313604Y-58357886D01*
X43300889Y-58323796D01*
X43213261Y-58206739D01*
X43096204Y-58119111D01*
X42959203Y-58068011D01*
X42898654Y-58061500D01*
X42898638Y-58061500D01*
X41101362Y-58061500D01*
X41101345Y-58061500D01*
X41040797Y-58068011D01*
X41040795Y-58068011D01*
X40903795Y-58119111D01*
X40786739Y-58206739D01*
X40699111Y-58323795D01*
X40648011Y-58460795D01*
X40648011Y-58460797D01*
X40641500Y-58521345D01*
X40641500Y-60318654D01*
X40648011Y-60379202D01*
X40648011Y-60379204D01*
X40690365Y-60492756D01*
X40699111Y-60516204D01*
X40786739Y-60633261D01*
X40903796Y-60720889D01*
X40955737Y-60740262D01*
X41021595Y-60764827D01*
X41077528Y-60806699D01*
X41101944Y-60872163D01*
X41087092Y-60940436D01*
X41069490Y-60964991D01*
X40924279Y-61122730D01*
X40924276Y-61122734D01*
X40801140Y-61311207D01*
X40710703Y-61517385D01*
X40655436Y-61735628D01*
X40655434Y-61735640D01*
X40636844Y-61959994D01*
X40636844Y-61960005D01*
X40655434Y-62184359D01*
X40655436Y-62184371D01*
X40710703Y-62402614D01*
X40801140Y-62608792D01*
X40924276Y-62797265D01*
X40924284Y-62797276D01*
X41074419Y-62960363D01*
X41076760Y-62962906D01*
X41254424Y-63101189D01*
X41254429Y-63101191D01*
X41254431Y-63101193D01*
X41290930Y-63120946D01*
X41340520Y-63170165D01*
X41355628Y-63238382D01*
X41331457Y-63303937D01*
X41290930Y-63339054D01*
X41254431Y-63358806D01*
X41254422Y-63358812D01*
X41076761Y-63497092D01*
X41076756Y-63497097D01*
X40924284Y-63662723D01*
X40924276Y-63662734D01*
X40801140Y-63851207D01*
X40710703Y-64057385D01*
X40655436Y-64275628D01*
X40655434Y-64275640D01*
X40636844Y-64499994D01*
X40636844Y-64500005D01*
X40655434Y-64724359D01*
X40655436Y-64724371D01*
X40710703Y-64942614D01*
X40801140Y-65148792D01*
X40924276Y-65337265D01*
X40924284Y-65337276D01*
X41076756Y-65502902D01*
X41076761Y-65502907D01*
X41083212Y-65507928D01*
X41254424Y-65641189D01*
X41254429Y-65641191D01*
X41254431Y-65641193D01*
X41290930Y-65660946D01*
X41340520Y-65710165D01*
X41355628Y-65778382D01*
X41331457Y-65843937D01*
X41290930Y-65879054D01*
X41254431Y-65898806D01*
X41254422Y-65898812D01*
X41076761Y-66037092D01*
X41076756Y-66037097D01*
X40924284Y-66202723D01*
X40924276Y-66202734D01*
X40801140Y-66391207D01*
X40710703Y-66597385D01*
X40655436Y-66815628D01*
X40655434Y-66815640D01*
X40636844Y-67039994D01*
X40636844Y-67040005D01*
X40655434Y-67264359D01*
X40655436Y-67264371D01*
X40710703Y-67482614D01*
X40801140Y-67688792D01*
X40924276Y-67877265D01*
X40924284Y-67877276D01*
X41076756Y-68042902D01*
X41076761Y-68042907D01*
X41134286Y-68087681D01*
X41254424Y-68181189D01*
X41254429Y-68181191D01*
X41254431Y-68181193D01*
X41290930Y-68200946D01*
X41340520Y-68250165D01*
X41355628Y-68318382D01*
X41331457Y-68383937D01*
X41290930Y-68419054D01*
X41254431Y-68438806D01*
X41254422Y-68438812D01*
X41076761Y-68577092D01*
X41076756Y-68577097D01*
X40924284Y-68742723D01*
X40924276Y-68742734D01*
X40801140Y-68931207D01*
X40710703Y-69137385D01*
X40655436Y-69355628D01*
X40655434Y-69355640D01*
X40636844Y-69579994D01*
X40636844Y-69580005D01*
X40655434Y-69804359D01*
X40655436Y-69804371D01*
X40710703Y-70022614D01*
X40801140Y-70228792D01*
X40924276Y-70417265D01*
X40924284Y-70417276D01*
X41076756Y-70582902D01*
X41076760Y-70582906D01*
X41254424Y-70721189D01*
X41254425Y-70721189D01*
X41254427Y-70721191D01*
X41278464Y-70734199D01*
X41452426Y-70828342D01*
X41665365Y-70901444D01*
X41887431Y-70938500D01*
X42112569Y-70938500D01*
X42334635Y-70901444D01*
X42547574Y-70828342D01*
X42745576Y-70721189D01*
X42923240Y-70582906D01*
X43075722Y-70417268D01*
X43198860Y-70228791D01*
X43289296Y-70022616D01*
X43344564Y-69804368D01*
X43351833Y-69716647D01*
X43363156Y-69580005D01*
X43363156Y-69579994D01*
X43344565Y-69355640D01*
X43344563Y-69355628D01*
X43341876Y-69345018D01*
X43289296Y-69137384D01*
X43198860Y-68931209D01*
X43075722Y-68742732D01*
X43075719Y-68742729D01*
X43075715Y-68742723D01*
X42923243Y-68577097D01*
X42923238Y-68577092D01*
X42745577Y-68438812D01*
X42745578Y-68438812D01*
X42745576Y-68438811D01*
X42709070Y-68419055D01*
X42659479Y-68369836D01*
X42644371Y-68301619D01*
X42668541Y-68236064D01*
X42709070Y-68200945D01*
X42709084Y-68200936D01*
X42745576Y-68181189D01*
X42923240Y-68042906D01*
X43043455Y-67912319D01*
X43075715Y-67877276D01*
X43075716Y-67877274D01*
X43075722Y-67877268D01*
X43198860Y-67688791D01*
X43289296Y-67482616D01*
X43344564Y-67264368D01*
X43347938Y-67223648D01*
X43363156Y-67040005D01*
X43363156Y-67039994D01*
X43344565Y-66815640D01*
X43344563Y-66815628D01*
X43323754Y-66733454D01*
X43289296Y-66597384D01*
X43198860Y-66391209D01*
X43157079Y-66327259D01*
X43075723Y-66202734D01*
X43075715Y-66202723D01*
X42923243Y-66037097D01*
X42923238Y-66037092D01*
X42789352Y-65932884D01*
X42745576Y-65898811D01*
X42709070Y-65879055D01*
X42659479Y-65829836D01*
X42644371Y-65761619D01*
X42668541Y-65696064D01*
X42709070Y-65660945D01*
X42709084Y-65660936D01*
X42745576Y-65641189D01*
X42923240Y-65502906D01*
X43028254Y-65388831D01*
X43075715Y-65337276D01*
X43075716Y-65337274D01*
X43075722Y-65337268D01*
X43161491Y-65205989D01*
X43172148Y-65189678D01*
X43225294Y-65144321D01*
X43275956Y-65133500D01*
X47322205Y-65133500D01*
X47389244Y-65153185D01*
X47434999Y-65205989D01*
X47439911Y-65218497D01*
X47457882Y-65272733D01*
X47457884Y-65272737D01*
X47457885Y-65272738D01*
X47550970Y-65423652D01*
X47676348Y-65549030D01*
X47827262Y-65642115D01*
X47995574Y-65697887D01*
X48099455Y-65708500D01*
X48900544Y-65708499D01*
X49004426Y-65697887D01*
X49172738Y-65642115D01*
X49323652Y-65549030D01*
X49412319Y-65460363D01*
X49473642Y-65426878D01*
X49543334Y-65431862D01*
X49587681Y-65460363D01*
X49676348Y-65549030D01*
X49807597Y-65629985D01*
X49854321Y-65681932D01*
X49866500Y-65735523D01*
X49866500Y-65822205D01*
X49846815Y-65889244D01*
X49794011Y-65934999D01*
X49781511Y-65939908D01*
X49727262Y-65957885D01*
X49727259Y-65957886D01*
X49576346Y-66050971D01*
X49450971Y-66176346D01*
X49357886Y-66327259D01*
X49357884Y-66327264D01*
X49302113Y-66495572D01*
X49291500Y-66599447D01*
X49291500Y-67400537D01*
X49291501Y-67400553D01*
X49302113Y-67504427D01*
X49357884Y-67672735D01*
X49357886Y-67672740D01*
X49387653Y-67721000D01*
X49423817Y-67779631D01*
X49450971Y-67823653D01*
X49539637Y-67912319D01*
X49573122Y-67973642D01*
X49568138Y-68043334D01*
X49539637Y-68087681D01*
X49450971Y-68176346D01*
X49357886Y-68327259D01*
X49357884Y-68327264D01*
X49302113Y-68495572D01*
X49291500Y-68599447D01*
X49291500Y-68730903D01*
X49271815Y-68797942D01*
X49255180Y-68818584D01*
X48357119Y-69716647D01*
X48320193Y-69753573D01*
X48216645Y-69857120D01*
X48106282Y-70022289D01*
X48106277Y-70022298D01*
X48030256Y-70205830D01*
X48030254Y-70205838D01*
X47991500Y-70400666D01*
X47991500Y-72367500D01*
X47971815Y-72434539D01*
X47919011Y-72480294D01*
X47867500Y-72491500D01*
X45451345Y-72491500D01*
X45390797Y-72498011D01*
X45390795Y-72498011D01*
X45253795Y-72549111D01*
X45136739Y-72636739D01*
X45049111Y-72753795D01*
X44998011Y-72890795D01*
X44998011Y-72890797D01*
X44991500Y-72951345D01*
X44991500Y-73527500D01*
X44971815Y-73594539D01*
X44919011Y-73640294D01*
X44867500Y-73651500D01*
X42958623Y-73651500D01*
X42891584Y-73631815D01*
X42882461Y-73625353D01*
X42745579Y-73518813D01*
X42745570Y-73518807D01*
X42547580Y-73411661D01*
X42547577Y-73411659D01*
X42547574Y-73411658D01*
X42547571Y-73411657D01*
X42547569Y-73411656D01*
X42334637Y-73338556D01*
X42112569Y-73301500D01*
X41887431Y-73301500D01*
X41665362Y-73338556D01*
X41452430Y-73411656D01*
X41452419Y-73411661D01*
X41254427Y-73518808D01*
X41254422Y-73518812D01*
X41076761Y-73657092D01*
X41076756Y-73657097D01*
X40924284Y-73822723D01*
X40924276Y-73822734D01*
X40801140Y-74011207D01*
X40710703Y-74217385D01*
X40655436Y-74435628D01*
X40655434Y-74435640D01*
X40636844Y-74659994D01*
X40636844Y-74660005D01*
X40655434Y-74884359D01*
X40655436Y-74884371D01*
X40710703Y-75102614D01*
X40801140Y-75308792D01*
X40924276Y-75497265D01*
X40924284Y-75497276D01*
X41076756Y-75662902D01*
X41076761Y-75662907D01*
X41103108Y-75683414D01*
X41254424Y-75801189D01*
X41254429Y-75801191D01*
X41254431Y-75801193D01*
X41290930Y-75820946D01*
X41340520Y-75870165D01*
X41355628Y-75938382D01*
X41331457Y-76003937D01*
X41290930Y-76039054D01*
X41254431Y-76058806D01*
X41254422Y-76058812D01*
X41076761Y-76197092D01*
X41076756Y-76197097D01*
X40924284Y-76362723D01*
X40924276Y-76362734D01*
X40801140Y-76551207D01*
X40710703Y-76757385D01*
X40655436Y-76975628D01*
X40655434Y-76975640D01*
X40636844Y-77199994D01*
X40636844Y-77200005D01*
X40655434Y-77424359D01*
X40655436Y-77424371D01*
X40710703Y-77642614D01*
X40801140Y-77848792D01*
X40924276Y-78037265D01*
X40924284Y-78037276D01*
X41076756Y-78202902D01*
X41076761Y-78202907D01*
X41111134Y-78229661D01*
X41254424Y-78341189D01*
X41254425Y-78341189D01*
X41254427Y-78341191D01*
X41336989Y-78385871D01*
X41452426Y-78448342D01*
X41665365Y-78521444D01*
X41887431Y-78558500D01*
X41887441Y-78558500D01*
X41891008Y-78558796D01*
X41892382Y-78559326D01*
X41892489Y-78559344D01*
X41892485Y-78559365D01*
X41956194Y-78583944D01*
X41968458Y-78594692D01*
X42657115Y-79283351D01*
X42657123Y-79283357D01*
X42822286Y-79393715D01*
X42822290Y-79393717D01*
X42822297Y-79393722D01*
X42914893Y-79432076D01*
X43005831Y-79469744D01*
X43200666Y-79508499D01*
X43200670Y-79508500D01*
X43200671Y-79508500D01*
X43200672Y-79508500D01*
X43399329Y-79508500D01*
X46030904Y-79508500D01*
X46097943Y-79528185D01*
X46118585Y-79544819D01*
X48857115Y-82283351D01*
X48857123Y-82283357D01*
X49022286Y-82393715D01*
X49022289Y-82393716D01*
X49022297Y-82393722D01*
X49129809Y-82438254D01*
X49205831Y-82469744D01*
X49400666Y-82508499D01*
X49400670Y-82508500D01*
X49400671Y-82508500D01*
X57861830Y-82508500D01*
X57861831Y-82508499D01*
X58056669Y-82469744D01*
X58240204Y-82393721D01*
X58405381Y-82283353D01*
X58545853Y-82142881D01*
X60393915Y-80294819D01*
X60455238Y-80261334D01*
X60481596Y-80258500D01*
X61061138Y-80258500D01*
X61061154Y-80258499D01*
X61088192Y-80255591D01*
X61121701Y-80251989D01*
X61258704Y-80200889D01*
X61375761Y-80113261D01*
X61463389Y-79996204D01*
X61514489Y-79859201D01*
X61518091Y-79825692D01*
X61520999Y-79798654D01*
X61521000Y-79798637D01*
X61521000Y-78201362D01*
X61520999Y-78201345D01*
X61517657Y-78170270D01*
X61514489Y-78140799D01*
X61506694Y-78119901D01*
X61492022Y-78080564D01*
X61463389Y-78003796D01*
X61375761Y-77886739D01*
X61258704Y-77799111D01*
X61121703Y-77748011D01*
X61061154Y-77741500D01*
X61061138Y-77741500D01*
X59463862Y-77741500D01*
X59463845Y-77741500D01*
X59403297Y-77748011D01*
X59403295Y-77748011D01*
X59266295Y-77799111D01*
X59149239Y-77886739D01*
X59061611Y-78003795D01*
X59010511Y-78140795D01*
X59010511Y-78140797D01*
X59004000Y-78201345D01*
X59004000Y-78780904D01*
X58984315Y-78847943D01*
X58967681Y-78868585D01*
X57381085Y-80455181D01*
X57319762Y-80488666D01*
X57293404Y-80491500D01*
X49969097Y-80491500D01*
X49902058Y-80471815D01*
X49881416Y-80455181D01*
X47146416Y-77720181D01*
X47112931Y-77658858D01*
X47117915Y-77589166D01*
X47159787Y-77533233D01*
X47225251Y-77508816D01*
X47234097Y-77508500D01*
X47530904Y-77508500D01*
X47597943Y-77528185D01*
X47618585Y-77544819D01*
X49407115Y-79333351D01*
X49407123Y-79333357D01*
X49572286Y-79443715D01*
X49572289Y-79443716D01*
X49572297Y-79443722D01*
X49679809Y-79488254D01*
X49755831Y-79519744D01*
X49950666Y-79558499D01*
X49950670Y-79558500D01*
X49950671Y-79558500D01*
X49950672Y-79558500D01*
X50149329Y-79558500D01*
X50730637Y-79558500D01*
X50797676Y-79578185D01*
X50843431Y-79630989D01*
X50848343Y-79643496D01*
X50867976Y-79702746D01*
X50882885Y-79747738D01*
X50975970Y-79898652D01*
X51101348Y-80024030D01*
X51252262Y-80117115D01*
X51420574Y-80172887D01*
X51524455Y-80183500D01*
X53475544Y-80183499D01*
X53579426Y-80172887D01*
X53747738Y-80117115D01*
X53898652Y-80024030D01*
X54024030Y-79898652D01*
X54117115Y-79747738D01*
X54166694Y-79598116D01*
X54206466Y-79540670D01*
X54239087Y-79523396D01*
X54238540Y-79522075D01*
X54244166Y-79519744D01*
X54244169Y-79519744D01*
X54427704Y-79443721D01*
X54592881Y-79333353D01*
X54733353Y-79192881D01*
X54791912Y-79134322D01*
X54791925Y-79134307D01*
X60970935Y-72955298D01*
X61032256Y-72921815D01*
X61101948Y-72926799D01*
X61106050Y-72928413D01*
X61130293Y-72938455D01*
X61130294Y-72938456D01*
X61170960Y-72955300D01*
X61205831Y-72969744D01*
X61357939Y-73000000D01*
X61400666Y-73008499D01*
X61400670Y-73008500D01*
X63876000Y-73008500D01*
X63943039Y-73028185D01*
X63988794Y-73080989D01*
X64000000Y-73132500D01*
X64000000Y-89876000D01*
X63980315Y-89943039D01*
X63927511Y-89988794D01*
X63876000Y-90000000D01*
X39124000Y-90000000D01*
X39056961Y-89980315D01*
X39011206Y-89927511D01*
X39000000Y-89876000D01*
X39000000Y-84550000D01*
X40786444Y-84550000D01*
X40806649Y-84909799D01*
X40806651Y-84909811D01*
X40867014Y-85265079D01*
X40867016Y-85265088D01*
X40966776Y-85611364D01*
X41104682Y-85944303D01*
X41104684Y-85944307D01*
X41104686Y-85944310D01*
X41279004Y-86259715D01*
X41487541Y-86553619D01*
X41727673Y-86822327D01*
X41996381Y-87062459D01*
X42290285Y-87270996D01*
X42605690Y-87445314D01*
X42605692Y-87445315D01*
X42605696Y-87445317D01*
X42713763Y-87490079D01*
X42938630Y-87583222D01*
X43284917Y-87682985D01*
X43640196Y-87743350D01*
X44000000Y-87763556D01*
X44359804Y-87743350D01*
X44715083Y-87682985D01*
X45061370Y-87583222D01*
X45394310Y-87445314D01*
X45709715Y-87270996D01*
X46003619Y-87062459D01*
X46272327Y-86822327D01*
X46512459Y-86553619D01*
X46720996Y-86259715D01*
X46895314Y-85944310D01*
X47033222Y-85611370D01*
X47132985Y-85265083D01*
X47193350Y-84909804D01*
X47213556Y-84550000D01*
X47193350Y-84190196D01*
X47132985Y-83834917D01*
X47033222Y-83488630D01*
X46940079Y-83263763D01*
X46895317Y-83155696D01*
X46895315Y-83155692D01*
X46720994Y-82840282D01*
X46512459Y-82546381D01*
X46478606Y-82508500D01*
X46272327Y-82277673D01*
X46003619Y-82037541D01*
X46003618Y-82037540D01*
X45709717Y-81829005D01*
X45394307Y-81654684D01*
X45394303Y-81654682D01*
X45163248Y-81558977D01*
X45061370Y-81516778D01*
X45061366Y-81516776D01*
X45061364Y-81516776D01*
X44715088Y-81417016D01*
X44715079Y-81417014D01*
X44359811Y-81356651D01*
X44359799Y-81356649D01*
X44000000Y-81336444D01*
X43640200Y-81356649D01*
X43640188Y-81356651D01*
X43284920Y-81417014D01*
X43284911Y-81417016D01*
X42938635Y-81516776D01*
X42605696Y-81654682D01*
X42605692Y-81654684D01*
X42290282Y-81829005D01*
X41996381Y-82037540D01*
X41727673Y-82277673D01*
X41487540Y-82546381D01*
X41279005Y-82840282D01*
X41104684Y-83155692D01*
X41104682Y-83155696D01*
X40966776Y-83488635D01*
X40867016Y-83834911D01*
X40867014Y-83834920D01*
X40806651Y-84190188D01*
X40806649Y-84190200D01*
X40786444Y-84550000D01*
X39000000Y-84550000D01*
X39000000Y-46450000D01*
X40786444Y-46450000D01*
X40806649Y-46809799D01*
X40806651Y-46809811D01*
X40867014Y-47165079D01*
X40867016Y-47165088D01*
X40966776Y-47511364D01*
X41104682Y-47844303D01*
X41104684Y-47844307D01*
X41104686Y-47844310D01*
X41279004Y-48159715D01*
X41487541Y-48453619D01*
X41727673Y-48722327D01*
X41996381Y-48962459D01*
X42290285Y-49170996D01*
X42537953Y-49307877D01*
X42605692Y-49345315D01*
X42605696Y-49345317D01*
X42705863Y-49386807D01*
X42938630Y-49483222D01*
X43284917Y-49582985D01*
X43640196Y-49643350D01*
X44000000Y-49663556D01*
X44359804Y-49643350D01*
X44715083Y-49582985D01*
X45061370Y-49483222D01*
X45394310Y-49345314D01*
X45709715Y-49170996D01*
X46003619Y-48962459D01*
X46272327Y-48722327D01*
X46512459Y-48453619D01*
X46720996Y-48159715D01*
X46895314Y-47844310D01*
X47033222Y-47511370D01*
X47132985Y-47165083D01*
X47193350Y-46809804D01*
X47213556Y-46450000D01*
X47193350Y-46090196D01*
X47132985Y-45734917D01*
X47033222Y-45388630D01*
X46935092Y-45151722D01*
X46895317Y-45055696D01*
X46895315Y-45055692D01*
X46883089Y-45033571D01*
X46720996Y-44740285D01*
X46627734Y-44608845D01*
X59004000Y-44608845D01*
X59004000Y-46206154D01*
X59010511Y-46266702D01*
X59010511Y-46266704D01*
X59061611Y-46403704D01*
X59149239Y-46520761D01*
X59266296Y-46608389D01*
X59403299Y-46659489D01*
X59430550Y-46662418D01*
X59463845Y-46665999D01*
X59463862Y-46666000D01*
X61061138Y-46666000D01*
X61061154Y-46665999D01*
X61088192Y-46663091D01*
X61121701Y-46659489D01*
X61258704Y-46608389D01*
X61375761Y-46520761D01*
X61463389Y-46403704D01*
X61514489Y-46266701D01*
X61518091Y-46233192D01*
X61520999Y-46206154D01*
X61521000Y-46206137D01*
X61521000Y-44608862D01*
X61520999Y-44608845D01*
X61517657Y-44577770D01*
X61514489Y-44548299D01*
X61463389Y-44411296D01*
X61375761Y-44294239D01*
X61258704Y-44206611D01*
X61121703Y-44155511D01*
X61061154Y-44149000D01*
X61061138Y-44149000D01*
X59463862Y-44149000D01*
X59463845Y-44149000D01*
X59403297Y-44155511D01*
X59403295Y-44155511D01*
X59266295Y-44206611D01*
X59149239Y-44294239D01*
X59061611Y-44411295D01*
X59010511Y-44548295D01*
X59010511Y-44548297D01*
X59004000Y-44608845D01*
X46627734Y-44608845D01*
X46512459Y-44446381D01*
X46272327Y-44177673D01*
X46003619Y-43937541D01*
X46003618Y-43937540D01*
X45709717Y-43729005D01*
X45394307Y-43554684D01*
X45394303Y-43554682D01*
X45163248Y-43458977D01*
X45061370Y-43416778D01*
X45061366Y-43416776D01*
X45061364Y-43416776D01*
X44715088Y-43317016D01*
X44715079Y-43317014D01*
X44359811Y-43256651D01*
X44359799Y-43256649D01*
X44000000Y-43236444D01*
X43640200Y-43256649D01*
X43640188Y-43256651D01*
X43284920Y-43317014D01*
X43284911Y-43317016D01*
X42938635Y-43416776D01*
X42605696Y-43554682D01*
X42605692Y-43554684D01*
X42290282Y-43729005D01*
X41996381Y-43937540D01*
X41727673Y-44177673D01*
X41487540Y-44446381D01*
X41279005Y-44740282D01*
X41104684Y-45055692D01*
X41104682Y-45055696D01*
X40966776Y-45388635D01*
X40867016Y-45734911D01*
X40867014Y-45734920D01*
X40806651Y-46090188D01*
X40806649Y-46090200D01*
X40786444Y-46450000D01*
X39000000Y-46450000D01*
X39000000Y-41224000D01*
X39019685Y-41156961D01*
X39072489Y-41111206D01*
X39124000Y-41100000D01*
X63876000Y-41100000D01*
X63943039Y-41119685D01*
G37*
G04 #@! TD.AperFunction*
G04 #@! TA.AperFunction,Conductor*
G36*
X59159730Y-66153185D02*
G01*
X59184840Y-66174527D01*
X59188747Y-66178866D01*
X59343248Y-66291118D01*
X59517712Y-66368794D01*
X59704513Y-66408500D01*
X59867500Y-66408500D01*
X59934539Y-66428185D01*
X59980294Y-66480989D01*
X59991500Y-66532500D01*
X59991500Y-71030902D01*
X59971815Y-71097941D01*
X59955181Y-71118583D01*
X59555259Y-71518505D01*
X59534606Y-71529782D01*
X59530092Y-71541887D01*
X59518505Y-71555259D01*
X54029300Y-77044463D01*
X53967977Y-77077948D01*
X53898285Y-77072964D01*
X53876522Y-77062320D01*
X53747746Y-76982889D01*
X53747740Y-76982886D01*
X53747738Y-76982885D01*
X53725874Y-76975640D01*
X53579427Y-76927113D01*
X53475545Y-76916500D01*
X51524462Y-76916500D01*
X51524446Y-76916501D01*
X51420572Y-76927113D01*
X51252264Y-76982884D01*
X51252259Y-76982886D01*
X51101346Y-77075971D01*
X50975971Y-77201346D01*
X50882886Y-77352259D01*
X50882884Y-77352264D01*
X50848343Y-77456504D01*
X50808570Y-77513949D01*
X50744055Y-77540772D01*
X50730637Y-77541500D01*
X50519097Y-77541500D01*
X50452058Y-77521815D01*
X50431416Y-77505181D01*
X50044819Y-77118584D01*
X50011334Y-77057261D01*
X50008500Y-77030903D01*
X50008500Y-70969095D01*
X50028185Y-70902056D01*
X50044815Y-70881418D01*
X50781415Y-70144817D01*
X50842738Y-70111333D01*
X50869096Y-70108499D01*
X51000537Y-70108499D01*
X51000544Y-70108499D01*
X51104426Y-70097887D01*
X51272738Y-70042115D01*
X51423652Y-69949030D01*
X51549030Y-69823652D01*
X51642115Y-69672738D01*
X51697887Y-69504426D01*
X51708500Y-69400545D01*
X51708499Y-68599456D01*
X51697887Y-68495574D01*
X51642115Y-68327262D01*
X51549030Y-68176348D01*
X51460363Y-68087681D01*
X51426878Y-68026358D01*
X51431862Y-67956666D01*
X51460363Y-67912319D01*
X51503394Y-67869288D01*
X51549030Y-67823652D01*
X51642115Y-67672738D01*
X51642116Y-67672735D01*
X51645906Y-67666591D01*
X51647983Y-67667872D01*
X51686498Y-67624124D01*
X51753690Y-67604968D01*
X51820573Y-67625179D01*
X51858253Y-67663867D01*
X51925967Y-67773648D01*
X51925970Y-67773652D01*
X52051348Y-67899030D01*
X52202262Y-67992115D01*
X52370574Y-68047887D01*
X52474455Y-68058500D01*
X53525544Y-68058499D01*
X53629426Y-68047887D01*
X53797738Y-67992115D01*
X53948652Y-67899030D01*
X54074030Y-67773652D01*
X54074035Y-67773643D01*
X54078430Y-67768087D01*
X54135453Y-67727712D01*
X54175695Y-67721000D01*
X54367500Y-67721000D01*
X54434539Y-67740685D01*
X54480294Y-67793489D01*
X54491500Y-67845000D01*
X54491500Y-71048654D01*
X54498011Y-71109202D01*
X54498011Y-71109204D01*
X54549111Y-71246204D01*
X54636739Y-71363261D01*
X54753796Y-71450889D01*
X54890799Y-71501989D01*
X54918050Y-71504918D01*
X54951345Y-71508499D01*
X54951362Y-71508500D01*
X59048638Y-71508500D01*
X59048654Y-71508499D01*
X59075692Y-71505591D01*
X59109201Y-71501989D01*
X59246204Y-71450889D01*
X59246204Y-71450888D01*
X59246206Y-71450888D01*
X59246207Y-71450887D01*
X59282431Y-71423769D01*
X59356514Y-71368311D01*
X59362058Y-71366243D01*
X59368308Y-71356517D01*
X59450889Y-71246204D01*
X59501989Y-71109201D01*
X59505591Y-71075692D01*
X59508499Y-71048654D01*
X59508500Y-71048637D01*
X59508500Y-66951362D01*
X59508499Y-66951345D01*
X59505157Y-66920270D01*
X59501989Y-66890799D01*
X59497116Y-66877735D01*
X59473951Y-66815628D01*
X59450889Y-66753796D01*
X59363261Y-66636739D01*
X59246204Y-66549111D01*
X59201669Y-66532500D01*
X59109203Y-66498011D01*
X59048654Y-66491500D01*
X59048638Y-66491500D01*
X58203767Y-66491500D01*
X58136728Y-66471815D01*
X58090973Y-66419011D01*
X58081029Y-66349853D01*
X58110054Y-66286297D01*
X58116086Y-66279818D01*
X58226087Y-66169818D01*
X58287410Y-66136334D01*
X58313768Y-66133500D01*
X59092691Y-66133500D01*
X59159730Y-66153185D01*
G37*
G04 #@! TD.AperFunction*
G04 #@! TA.AperFunction,Conductor*
G36*
X64697958Y-62489460D02*
G01*
X64702262Y-62492115D01*
X64702263Y-62492115D01*
X64702266Y-62492117D01*
X64869107Y-62547401D01*
X64870574Y-62547887D01*
X64974455Y-62558500D01*
X66025544Y-62558499D01*
X66129426Y-62547887D01*
X66297738Y-62492115D01*
X66297747Y-62492109D01*
X66302033Y-62490111D01*
X66371109Y-62479614D01*
X66434895Y-62508129D01*
X66442127Y-62514808D01*
X67111481Y-63184163D01*
X67111482Y-63184164D01*
X67111485Y-63184166D01*
X67235716Y-63267174D01*
X67373753Y-63324351D01*
X67399106Y-63329393D01*
X67446970Y-63338915D01*
X67446997Y-63338919D01*
X67447024Y-63338925D01*
X67520294Y-63353500D01*
X67520295Y-63353500D01*
X67669705Y-63353500D01*
X67691532Y-63353500D01*
X67726127Y-63358424D01*
X67871164Y-63400561D01*
X67871167Y-63400561D01*
X67871169Y-63400562D01*
X67908498Y-63403500D01*
X67908504Y-63403500D01*
X69791496Y-63403500D01*
X69791502Y-63403500D01*
X69828831Y-63400562D01*
X69828833Y-63400561D01*
X69828835Y-63400561D01*
X69870962Y-63388321D01*
X69988601Y-63354145D01*
X70131807Y-63269453D01*
X70249453Y-63151807D01*
X70269268Y-63118300D01*
X70320336Y-63070618D01*
X70389077Y-63058114D01*
X70453667Y-63084759D01*
X70493598Y-63142094D01*
X70500000Y-63181422D01*
X70500000Y-64548577D01*
X70480315Y-64615616D01*
X70427511Y-64661371D01*
X70358353Y-64671315D01*
X70294797Y-64642290D01*
X70269268Y-64611698D01*
X70249455Y-64578196D01*
X70249448Y-64578187D01*
X70131812Y-64460551D01*
X70131803Y-64460544D01*
X69988601Y-64375855D01*
X69988596Y-64375853D01*
X69828835Y-64329438D01*
X69828829Y-64329437D01*
X69791507Y-64326500D01*
X69791502Y-64326500D01*
X67908498Y-64326500D01*
X67908492Y-64326500D01*
X67871174Y-64329437D01*
X67871169Y-64329438D01*
X67760543Y-64361577D01*
X67725951Y-64366500D01*
X67707309Y-64366500D01*
X67640270Y-64346815D01*
X67615160Y-64325473D01*
X67611254Y-64321135D01*
X67548620Y-64275628D01*
X67456752Y-64208882D01*
X67282288Y-64131206D01*
X67282286Y-64131205D01*
X67095487Y-64091500D01*
X66904513Y-64091500D01*
X66717714Y-64131205D01*
X66543246Y-64208883D01*
X66388745Y-64321135D01*
X66260959Y-64463057D01*
X66165473Y-64628443D01*
X66165470Y-64628450D01*
X66134304Y-64724371D01*
X66106458Y-64810072D01*
X66086496Y-65000000D01*
X66106458Y-65189928D01*
X66106459Y-65189931D01*
X66151704Y-65329182D01*
X66153699Y-65399023D01*
X66117618Y-65458856D01*
X66054917Y-65489684D01*
X66033773Y-65491500D01*
X65474462Y-65491500D01*
X65474446Y-65491501D01*
X65370572Y-65502113D01*
X65202264Y-65557884D01*
X65202259Y-65557886D01*
X65051346Y-65650971D01*
X64925971Y-65776346D01*
X64906696Y-65807597D01*
X64854748Y-65854321D01*
X64801157Y-65866500D01*
X64735524Y-65866500D01*
X64668485Y-65846815D01*
X64629985Y-65807597D01*
X64611965Y-65778382D01*
X64549030Y-65676348D01*
X64423652Y-65550970D01*
X64281569Y-65463332D01*
X64272740Y-65457886D01*
X64272735Y-65457884D01*
X64104427Y-65402113D01*
X64000546Y-65391500D01*
X62999462Y-65391500D01*
X62999446Y-65391501D01*
X62895572Y-65402113D01*
X62727264Y-65457884D01*
X62727259Y-65457886D01*
X62576346Y-65550971D01*
X62450971Y-65676346D01*
X62357886Y-65827259D01*
X62357884Y-65827264D01*
X62302113Y-65995572D01*
X62291500Y-66099447D01*
X62291500Y-66900537D01*
X62291501Y-66900553D01*
X62302113Y-67004427D01*
X62357884Y-67172735D01*
X62357886Y-67172740D01*
X62389287Y-67223648D01*
X62450970Y-67323652D01*
X62576348Y-67449030D01*
X62727262Y-67542115D01*
X62895574Y-67597887D01*
X62999455Y-67608500D01*
X64000544Y-67608499D01*
X64104426Y-67597887D01*
X64272738Y-67542115D01*
X64423652Y-67449030D01*
X64549030Y-67323652D01*
X64629986Y-67192402D01*
X64681933Y-67145678D01*
X64735524Y-67133500D01*
X64801157Y-67133500D01*
X64868196Y-67153185D01*
X64906694Y-67192401D01*
X64925970Y-67223652D01*
X65051348Y-67349030D01*
X65202262Y-67442115D01*
X65370574Y-67497887D01*
X65474455Y-67508500D01*
X66525544Y-67508499D01*
X66629426Y-67497887D01*
X66797738Y-67442115D01*
X66948652Y-67349030D01*
X67074030Y-67223652D01*
X67122125Y-67145678D01*
X67151902Y-67097403D01*
X67203849Y-67050678D01*
X67257440Y-67038500D01*
X67280282Y-67038500D01*
X67347321Y-67058185D01*
X67393076Y-67110989D01*
X67403020Y-67180147D01*
X67387014Y-67225621D01*
X67365855Y-67261397D01*
X67365853Y-67261403D01*
X67319438Y-67421164D01*
X67319437Y-67421170D01*
X67316500Y-67458492D01*
X67316500Y-67891507D01*
X67319437Y-67928829D01*
X67319438Y-67928835D01*
X67365853Y-68088596D01*
X67365855Y-68088601D01*
X67450547Y-68231808D01*
X67452249Y-68234002D01*
X67453047Y-68236034D01*
X67454518Y-68238522D01*
X67454116Y-68238759D01*
X67477783Y-68299039D01*
X67464101Y-68367556D01*
X67452249Y-68385998D01*
X67450547Y-68388191D01*
X67365855Y-68531398D01*
X67365853Y-68531403D01*
X67319438Y-68691164D01*
X67319437Y-68691170D01*
X67316500Y-68728492D01*
X67316500Y-69161507D01*
X67319437Y-69198829D01*
X67319438Y-69198835D01*
X67365853Y-69358596D01*
X67365855Y-69358601D01*
X67450544Y-69501803D01*
X67450551Y-69501812D01*
X67568187Y-69619448D01*
X67568191Y-69619451D01*
X67568193Y-69619453D01*
X67711399Y-69704145D01*
X67752094Y-69715967D01*
X67810980Y-69753573D01*
X67840187Y-69817045D01*
X67841500Y-69835044D01*
X67841500Y-70867500D01*
X67821815Y-70934539D01*
X67769011Y-70980294D01*
X67717500Y-70991500D01*
X62132500Y-70991500D01*
X62065461Y-70971815D01*
X62019706Y-70919011D01*
X62008500Y-70867500D01*
X62008500Y-63969096D01*
X62028185Y-63902057D01*
X62044819Y-63881415D01*
X63418915Y-62507319D01*
X63480238Y-62473834D01*
X63506596Y-62471000D01*
X64632863Y-62471000D01*
X64697958Y-62489460D01*
G37*
G04 #@! TD.AperFunction*
G04 #@! TA.AperFunction,Conductor*
G36*
X54434539Y-62615685D02*
G01*
X54480294Y-62668489D01*
X54491500Y-62720000D01*
X54491500Y-64548654D01*
X54498011Y-64609202D01*
X54498011Y-64609204D01*
X54549111Y-64746204D01*
X54636739Y-64863261D01*
X54753796Y-64950889D01*
X54849272Y-64986500D01*
X54886927Y-65000545D01*
X54890799Y-65001989D01*
X54918050Y-65004918D01*
X54951345Y-65008499D01*
X54951362Y-65008500D01*
X57296233Y-65008500D01*
X57363272Y-65028185D01*
X57409027Y-65080989D01*
X57418971Y-65150147D01*
X57389946Y-65213703D01*
X57383914Y-65220181D01*
X57096169Y-65507926D01*
X57096167Y-65507928D01*
X56596167Y-66007929D01*
X56567004Y-66037092D01*
X56507927Y-66096168D01*
X56438603Y-66199918D01*
X56438598Y-66199927D01*
X56390845Y-66315214D01*
X56390845Y-66315215D01*
X56375632Y-66391692D01*
X56343249Y-66453602D01*
X56282533Y-66488176D01*
X56254016Y-66491500D01*
X55615543Y-66491500D01*
X55548504Y-66471815D01*
X55527866Y-66455185D01*
X55446015Y-66373334D01*
X55321784Y-66290326D01*
X55312057Y-66286297D01*
X55183747Y-66233149D01*
X55183739Y-66233147D01*
X55110476Y-66218574D01*
X55037209Y-66204000D01*
X55037206Y-66204000D01*
X54175695Y-66204000D01*
X54108656Y-66184315D01*
X54078430Y-66156913D01*
X54074032Y-66151351D01*
X54074030Y-66151348D01*
X53948652Y-66025970D01*
X53809129Y-65939911D01*
X53797740Y-65932886D01*
X53797735Y-65932884D01*
X53629427Y-65877113D01*
X53525546Y-65866500D01*
X52474462Y-65866500D01*
X52474446Y-65866501D01*
X52370572Y-65877113D01*
X52202264Y-65932884D01*
X52202259Y-65932886D01*
X52051346Y-66025971D01*
X51925970Y-66151347D01*
X51925967Y-66151351D01*
X51852724Y-66270097D01*
X51800776Y-66316822D01*
X51747186Y-66329000D01*
X51712393Y-66329000D01*
X51645354Y-66309315D01*
X51606857Y-66270100D01*
X51549030Y-66176348D01*
X51423652Y-66050970D01*
X51272738Y-65957885D01*
X51218493Y-65939910D01*
X51161051Y-65900138D01*
X51134228Y-65835622D01*
X51133500Y-65822205D01*
X51133500Y-65735523D01*
X51153185Y-65668484D01*
X51192401Y-65629986D01*
X51323652Y-65549030D01*
X51449030Y-65423652D01*
X51542115Y-65272738D01*
X51597887Y-65104426D01*
X51608500Y-65000545D01*
X51608499Y-63999456D01*
X51597887Y-63895574D01*
X51542115Y-63727262D01*
X51449030Y-63576348D01*
X51323652Y-63450970D01*
X51172738Y-63357885D01*
X51172734Y-63357883D01*
X51168933Y-63355539D01*
X51122209Y-63303591D01*
X51110986Y-63234628D01*
X51138830Y-63170546D01*
X51168933Y-63144461D01*
X51172734Y-63142116D01*
X51172738Y-63142115D01*
X51323652Y-63049030D01*
X51449030Y-62923652D01*
X51542115Y-62772738D01*
X51542117Y-62772733D01*
X51560089Y-62718497D01*
X51599861Y-62661052D01*
X51664376Y-62634228D01*
X51677795Y-62633500D01*
X51770317Y-62633500D01*
X51837356Y-62653185D01*
X51875853Y-62692399D01*
X51925970Y-62773652D01*
X52051348Y-62899030D01*
X52202262Y-62992115D01*
X52370574Y-63047887D01*
X52474455Y-63058500D01*
X53525544Y-63058499D01*
X53629426Y-63047887D01*
X53797738Y-62992115D01*
X53948652Y-62899030D01*
X54074030Y-62773652D01*
X54132723Y-62678496D01*
X54147276Y-62654903D01*
X54199224Y-62608178D01*
X54252814Y-62596000D01*
X54367500Y-62596000D01*
X54434539Y-62615685D01*
G37*
G04 #@! TD.AperFunction*
G04 #@! TA.AperFunction,Conductor*
G36*
X94943039Y-65519685D02*
G01*
X94988794Y-65572489D01*
X95000000Y-65624000D01*
X95000000Y-72500000D01*
X96376000Y-72500000D01*
X96443039Y-72519685D01*
X96488794Y-72572489D01*
X96500000Y-72624000D01*
X96500000Y-76000000D01*
X98876000Y-76000000D01*
X98943039Y-76019685D01*
X98988794Y-76072489D01*
X99000000Y-76124000D01*
X99000000Y-77885000D01*
X98980315Y-77952039D01*
X98927511Y-77997794D01*
X98876000Y-78009000D01*
X98627512Y-78009000D01*
X98400381Y-78044973D01*
X98181666Y-78116039D01*
X97976768Y-78220440D01*
X97790719Y-78355613D01*
X97691152Y-78455181D01*
X97629829Y-78488666D01*
X97603471Y-78491500D01*
X95239263Y-78491500D01*
X95172224Y-78471815D01*
X95133726Y-78432599D01*
X95099030Y-78376348D01*
X94973652Y-78250970D01*
X94973651Y-78250969D01*
X94908944Y-78211057D01*
X94862220Y-78159109D01*
X94850999Y-78090146D01*
X94870940Y-78036628D01*
X94873867Y-78032247D01*
X94943721Y-77927704D01*
X95019744Y-77744169D01*
X95021231Y-77736693D01*
X95058500Y-77549329D01*
X95058500Y-76990544D01*
X95078185Y-76923505D01*
X95094819Y-76902863D01*
X95099030Y-76898652D01*
X95192115Y-76747739D01*
X95247887Y-76579427D01*
X95258500Y-76475546D01*
X95258500Y-73524454D01*
X95247887Y-73420573D01*
X95192115Y-73252261D01*
X95192111Y-73252255D01*
X95192110Y-73252252D01*
X95099032Y-73101351D01*
X95099029Y-73101347D01*
X94973652Y-72975970D01*
X94973648Y-72975967D01*
X94822747Y-72882889D01*
X94822741Y-72882886D01*
X94822739Y-72882885D01*
X94725507Y-72850666D01*
X94654428Y-72827113D01*
X94550553Y-72816500D01*
X94550546Y-72816500D01*
X93549454Y-72816500D01*
X93549446Y-72816500D01*
X93445571Y-72827113D01*
X93277263Y-72882884D01*
X93277252Y-72882889D01*
X93126351Y-72975967D01*
X93126347Y-72975970D01*
X93000970Y-73101347D01*
X93000967Y-73101351D01*
X92907889Y-73252252D01*
X92907884Y-73252263D01*
X92852113Y-73420571D01*
X92841500Y-73524446D01*
X92841500Y-76475553D01*
X92852113Y-76579428D01*
X92907884Y-76747736D01*
X92907889Y-76747747D01*
X93000967Y-76898648D01*
X93005448Y-76904315D01*
X93004287Y-76905232D01*
X93033846Y-76959366D01*
X93028862Y-77029058D01*
X93000361Y-77073405D01*
X92857119Y-77216647D01*
X92813474Y-77260292D01*
X92716645Y-77357120D01*
X92606282Y-77522289D01*
X92606277Y-77522298D01*
X92530256Y-77705830D01*
X92530254Y-77705838D01*
X92491500Y-77900666D01*
X92491500Y-77975227D01*
X92471815Y-78042266D01*
X92419011Y-78088021D01*
X92380104Y-78098585D01*
X92345572Y-78102113D01*
X92177264Y-78157884D01*
X92177259Y-78157886D01*
X92026346Y-78250971D01*
X91900971Y-78376346D01*
X91807886Y-78527259D01*
X91807884Y-78527264D01*
X91752113Y-78695572D01*
X91741500Y-78799447D01*
X91741500Y-80200537D01*
X91741501Y-80200553D01*
X91752113Y-80304427D01*
X91807884Y-80472735D01*
X91807886Y-80472740D01*
X91829943Y-80508500D01*
X91900970Y-80623652D01*
X92026348Y-80749030D01*
X92177262Y-80842115D01*
X92345574Y-80897887D01*
X92449455Y-80908500D01*
X94550544Y-80908499D01*
X94654426Y-80897887D01*
X94822738Y-80842115D01*
X94973652Y-80749030D01*
X95099030Y-80623652D01*
X95133726Y-80567400D01*
X95185672Y-80520679D01*
X95239263Y-80508500D01*
X97663471Y-80508500D01*
X97730510Y-80528185D01*
X97751152Y-80544819D01*
X97790722Y-80584389D01*
X97976769Y-80719560D01*
X98034604Y-80749028D01*
X98181666Y-80823960D01*
X98181668Y-80823960D01*
X98181671Y-80823962D01*
X98237534Y-80842113D01*
X98400381Y-80895026D01*
X98627512Y-80931000D01*
X98876000Y-80931000D01*
X98943039Y-80950685D01*
X98988794Y-81003489D01*
X99000000Y-81055000D01*
X99000000Y-89875618D01*
X98980315Y-89942657D01*
X98927511Y-89988412D01*
X98875618Y-89999617D01*
X66623618Y-89900380D01*
X66556640Y-89880490D01*
X66511048Y-89827545D01*
X66500000Y-89776381D01*
X66500000Y-79000000D01*
X71699193Y-79000000D01*
X71718385Y-79219371D01*
X71775380Y-79432076D01*
X71868444Y-79631654D01*
X71994751Y-79812038D01*
X72150462Y-79967749D01*
X72330846Y-80094056D01*
X72530424Y-80187120D01*
X72743129Y-80244115D01*
X72899822Y-80257823D01*
X72962498Y-80263307D01*
X72962500Y-80263307D01*
X72962502Y-80263307D01*
X73017342Y-80258509D01*
X73181871Y-80244115D01*
X73394576Y-80187120D01*
X73594154Y-80094056D01*
X73774538Y-79967749D01*
X73930249Y-79812038D01*
X74056556Y-79631654D01*
X74149620Y-79432076D01*
X74206615Y-79219371D01*
X74225807Y-79000000D01*
X74206615Y-78780629D01*
X74149620Y-78567924D01*
X74056556Y-78368347D01*
X74056554Y-78368344D01*
X74056553Y-78368342D01*
X73934069Y-78193418D01*
X73930249Y-78187962D01*
X73774538Y-78032251D01*
X73594154Y-77905944D01*
X73582846Y-77900671D01*
X73394581Y-77812882D01*
X73394579Y-77812881D01*
X73394576Y-77812880D01*
X73243277Y-77772339D01*
X73181872Y-77755885D01*
X73181865Y-77755884D01*
X72962502Y-77736693D01*
X72962498Y-77736693D01*
X72743134Y-77755884D01*
X72743127Y-77755885D01*
X72530420Y-77812881D01*
X72330846Y-77905944D01*
X72330842Y-77905946D01*
X72150467Y-78032247D01*
X72150460Y-78032252D01*
X71994752Y-78187960D01*
X71994747Y-78187967D01*
X71868446Y-78368342D01*
X71868444Y-78368346D01*
X71775381Y-78567920D01*
X71718385Y-78780627D01*
X71718384Y-78780634D01*
X71716737Y-78799462D01*
X71699193Y-79000000D01*
X66500000Y-79000000D01*
X66500000Y-75624000D01*
X66519685Y-75556961D01*
X66572489Y-75511206D01*
X66624000Y-75500000D01*
X75000000Y-75500000D01*
X75000000Y-73124000D01*
X75019685Y-73056961D01*
X75072489Y-73011206D01*
X75124000Y-73000000D01*
X76500000Y-73000000D01*
X76500000Y-68261422D01*
X76519685Y-68194383D01*
X76572489Y-68148628D01*
X76641647Y-68138684D01*
X76705203Y-68167709D01*
X76730730Y-68198298D01*
X76750547Y-68231807D01*
X76750549Y-68231809D01*
X76750551Y-68231812D01*
X76868187Y-68349448D01*
X76868191Y-68349451D01*
X76868193Y-68349453D01*
X77011399Y-68434145D01*
X77053530Y-68446385D01*
X77171164Y-68480561D01*
X77171167Y-68480561D01*
X77171169Y-68480562D01*
X77208498Y-68483500D01*
X77833859Y-68483500D01*
X77881311Y-68492939D01*
X77899580Y-68500506D01*
X77899585Y-68500508D01*
X77899589Y-68500508D01*
X77899590Y-68500509D01*
X78065442Y-68533500D01*
X78065445Y-68533500D01*
X79577281Y-68533500D01*
X79644320Y-68553185D01*
X79680383Y-68588609D01*
X79716646Y-68642880D01*
X79716649Y-68642884D01*
X79857115Y-68783350D01*
X79857119Y-68783353D01*
X80022289Y-68893717D01*
X80022295Y-68893720D01*
X80022296Y-68893721D01*
X80205831Y-68969744D01*
X80400666Y-69008499D01*
X80400670Y-69008500D01*
X80400671Y-69008500D01*
X80580904Y-69008500D01*
X80647943Y-69028185D01*
X80668585Y-69044819D01*
X82308428Y-70684662D01*
X82341913Y-70745985D01*
X82338454Y-70811344D01*
X82327113Y-70845570D01*
X82316500Y-70949446D01*
X82316500Y-71950553D01*
X82327113Y-72054428D01*
X82382884Y-72222736D01*
X82382889Y-72222747D01*
X82475967Y-72373648D01*
X82475970Y-72373652D01*
X82601347Y-72499029D01*
X82601351Y-72499032D01*
X82752252Y-72592110D01*
X82752255Y-72592111D01*
X82752261Y-72592115D01*
X82920573Y-72647887D01*
X83024454Y-72658500D01*
X83024459Y-72658500D01*
X85975541Y-72658500D01*
X85975546Y-72658500D01*
X86079427Y-72647887D01*
X86113652Y-72636545D01*
X86183477Y-72634143D01*
X86240336Y-72666570D01*
X86758317Y-73184551D01*
X86791802Y-73245874D01*
X86788342Y-73311235D01*
X86752113Y-73420569D01*
X86752113Y-73420570D01*
X86741500Y-73524446D01*
X86741500Y-76475555D01*
X86748222Y-76541347D01*
X86735453Y-76610040D01*
X86687572Y-76660924D01*
X86619782Y-76677845D01*
X86553606Y-76655429D01*
X86527599Y-76630862D01*
X86524032Y-76626351D01*
X86524030Y-76626348D01*
X86398652Y-76500970D01*
X86398648Y-76500967D01*
X86247747Y-76407889D01*
X86247741Y-76407886D01*
X86247739Y-76407885D01*
X86247736Y-76407884D01*
X86079428Y-76352113D01*
X85975553Y-76341500D01*
X85975546Y-76341500D01*
X83024454Y-76341500D01*
X83024446Y-76341500D01*
X82920571Y-76352113D01*
X82752263Y-76407884D01*
X82752252Y-76407889D01*
X82601351Y-76500967D01*
X82601347Y-76500970D01*
X82475970Y-76626347D01*
X82475967Y-76626351D01*
X82382889Y-76777252D01*
X82382884Y-76777263D01*
X82327113Y-76945571D01*
X82316500Y-77049446D01*
X82316500Y-78050553D01*
X82327113Y-78154428D01*
X82382884Y-78322736D01*
X82382889Y-78322747D01*
X82475967Y-78473648D01*
X82475970Y-78473652D01*
X82601347Y-78599029D01*
X82601351Y-78599032D01*
X82752252Y-78692110D01*
X82752255Y-78692111D01*
X82752261Y-78692115D01*
X82920573Y-78747887D01*
X83024454Y-78758500D01*
X85780904Y-78758500D01*
X85847943Y-78778185D01*
X85868585Y-78794819D01*
X87216647Y-80142881D01*
X87309497Y-80235731D01*
X87357120Y-80283354D01*
X87522289Y-80393717D01*
X87522295Y-80393720D01*
X87522296Y-80393721D01*
X87705831Y-80469744D01*
X87767065Y-80481923D01*
X87828976Y-80514308D01*
X87848412Y-80538444D01*
X87900967Y-80623648D01*
X87900970Y-80623652D01*
X88026348Y-80749030D01*
X88177262Y-80842115D01*
X88345574Y-80897887D01*
X88449455Y-80908500D01*
X90550544Y-80908499D01*
X90654426Y-80897887D01*
X90822738Y-80842115D01*
X90973652Y-80749030D01*
X91099030Y-80623652D01*
X91192115Y-80472738D01*
X91247887Y-80304426D01*
X91258500Y-80200545D01*
X91258499Y-78799456D01*
X91247887Y-78695574D01*
X91192115Y-78527262D01*
X91099030Y-78376348D01*
X90973652Y-78250970D01*
X90871497Y-78187960D01*
X90822740Y-78157886D01*
X90822735Y-78157884D01*
X90654427Y-78102113D01*
X90550545Y-78091500D01*
X88449462Y-78091500D01*
X88449446Y-78091501D01*
X88345571Y-78102113D01*
X88179902Y-78157009D01*
X88110073Y-78159410D01*
X88053218Y-78126984D01*
X87317542Y-77391307D01*
X87284057Y-77329984D01*
X87289041Y-77260292D01*
X87330913Y-77204359D01*
X87396377Y-77179942D01*
X87417817Y-77180267D01*
X87449454Y-77183500D01*
X87449459Y-77183500D01*
X88450541Y-77183500D01*
X88450546Y-77183500D01*
X88554427Y-77172887D01*
X88722739Y-77117115D01*
X88873652Y-77024030D01*
X88999030Y-76898652D01*
X89092115Y-76747739D01*
X89147887Y-76579427D01*
X89158500Y-76475546D01*
X89158500Y-73524454D01*
X89147887Y-73420573D01*
X89092115Y-73252261D01*
X89092111Y-73252255D01*
X89092110Y-73252252D01*
X88999032Y-73101351D01*
X88999029Y-73101347D01*
X88994819Y-73097137D01*
X88961334Y-73035814D01*
X88958500Y-73009456D01*
X88958500Y-72850670D01*
X88958499Y-72850666D01*
X88920275Y-72658500D01*
X88919744Y-72655831D01*
X88855196Y-72500000D01*
X88843722Y-72472298D01*
X88843717Y-72472289D01*
X88733354Y-72307120D01*
X88719115Y-72292881D01*
X88592881Y-72166647D01*
X87948530Y-71522296D01*
X87092884Y-70666649D01*
X87092880Y-70666646D01*
X86927710Y-70556282D01*
X86927701Y-70556277D01*
X86744169Y-70480256D01*
X86744161Y-70480254D01*
X86549333Y-70441500D01*
X86549329Y-70441500D01*
X86490544Y-70441500D01*
X86423505Y-70421815D01*
X86402863Y-70405181D01*
X86398652Y-70400970D01*
X86398648Y-70400967D01*
X86247747Y-70307889D01*
X86247741Y-70307886D01*
X86247739Y-70307885D01*
X86247736Y-70307884D01*
X86079428Y-70252113D01*
X85975553Y-70241500D01*
X85975546Y-70241500D01*
X84769097Y-70241500D01*
X84702058Y-70221815D01*
X84681416Y-70205181D01*
X82083167Y-67606932D01*
X82049682Y-67545609D01*
X82054666Y-67475917D01*
X82096538Y-67419984D01*
X82145065Y-67397961D01*
X82282288Y-67368794D01*
X82282293Y-67368791D01*
X82288468Y-67366786D01*
X82288746Y-67367642D01*
X82331766Y-67358500D01*
X82668234Y-67358500D01*
X82711253Y-67367642D01*
X82711532Y-67366786D01*
X82717709Y-67368792D01*
X82717712Y-67368794D01*
X82904513Y-67408500D01*
X83095487Y-67408500D01*
X83282288Y-67368794D01*
X83456752Y-67291118D01*
X83611253Y-67178866D01*
X83739040Y-67036944D01*
X83834527Y-66871556D01*
X83893542Y-66689928D01*
X83913504Y-66500000D01*
X83893542Y-66310072D01*
X83834527Y-66128444D01*
X83739040Y-65963056D01*
X83611253Y-65821134D01*
X83477996Y-65724316D01*
X83435332Y-65668988D01*
X83429353Y-65599375D01*
X83461959Y-65537580D01*
X83522798Y-65503222D01*
X83550883Y-65500000D01*
X94876000Y-65500000D01*
X94943039Y-65519685D01*
G37*
G04 #@! TD.AperFunction*
G04 #@! TA.AperFunction,Conductor*
G36*
X94943039Y-41019685D02*
G01*
X94988794Y-41072489D01*
X95000000Y-41124000D01*
X95000000Y-52500000D01*
X96376000Y-52500000D01*
X96443039Y-52519685D01*
X96488794Y-52572489D01*
X96500000Y-52624000D01*
X96500000Y-56000000D01*
X98876000Y-56000000D01*
X98943039Y-56019685D01*
X98988794Y-56072489D01*
X99000000Y-56124000D01*
X99000000Y-57376000D01*
X98980315Y-57443039D01*
X98927511Y-57488794D01*
X98876000Y-57500000D01*
X96500000Y-57500000D01*
X96500000Y-58027500D01*
X96480315Y-58094539D01*
X96427511Y-58140294D01*
X96376000Y-58151500D01*
X95308718Y-58151500D01*
X95241679Y-58131815D01*
X95211452Y-58104412D01*
X95209032Y-58101351D01*
X95209030Y-58101348D01*
X95204819Y-58097137D01*
X95171334Y-58035814D01*
X95168500Y-58009456D01*
X95168500Y-55950670D01*
X95168499Y-55950666D01*
X95129745Y-55755838D01*
X95129744Y-55755831D01*
X95053721Y-55572296D01*
X95053720Y-55572295D01*
X95053717Y-55572289D01*
X94943353Y-55407119D01*
X94943350Y-55407115D01*
X94904818Y-55368583D01*
X94871333Y-55307260D01*
X94868499Y-55280902D01*
X94868499Y-54299462D01*
X94868498Y-54299446D01*
X94868218Y-54296707D01*
X94857887Y-54195574D01*
X94802115Y-54027262D01*
X94709030Y-53876348D01*
X94583652Y-53750970D01*
X94432738Y-53657885D01*
X94432735Y-53657884D01*
X94264427Y-53602113D01*
X94160545Y-53591500D01*
X92059462Y-53591500D01*
X92059446Y-53591501D01*
X91955572Y-53602113D01*
X91787264Y-53657884D01*
X91787259Y-53657886D01*
X91636346Y-53750971D01*
X91510971Y-53876346D01*
X91417886Y-54027259D01*
X91417884Y-54027264D01*
X91362113Y-54195572D01*
X91351500Y-54299447D01*
X91351500Y-55700537D01*
X91351501Y-55700553D01*
X91362113Y-55804427D01*
X91417884Y-55972735D01*
X91417886Y-55972740D01*
X91434102Y-55999030D01*
X91510970Y-56123652D01*
X91636348Y-56249030D01*
X91787262Y-56342115D01*
X91955574Y-56397887D01*
X92059455Y-56408500D01*
X93027500Y-56408499D01*
X93094539Y-56428183D01*
X93140294Y-56480987D01*
X93151500Y-56532499D01*
X93151500Y-58009456D01*
X93131815Y-58076495D01*
X93115181Y-58097137D01*
X93110970Y-58101347D01*
X93110967Y-58101351D01*
X93017889Y-58252252D01*
X93017884Y-58252263D01*
X92962113Y-58420571D01*
X92951500Y-58524446D01*
X92951500Y-61475553D01*
X92962113Y-61579428D01*
X93017884Y-61747736D01*
X93017889Y-61747747D01*
X93110967Y-61898648D01*
X93110970Y-61898652D01*
X93236347Y-62024029D01*
X93236351Y-62024032D01*
X93387252Y-62117110D01*
X93387255Y-62117111D01*
X93387261Y-62117115D01*
X93555573Y-62172887D01*
X93659454Y-62183500D01*
X93659459Y-62183500D01*
X94660541Y-62183500D01*
X94660546Y-62183500D01*
X94764427Y-62172887D01*
X94932739Y-62117115D01*
X95083652Y-62024030D01*
X95209030Y-61898652D01*
X95302115Y-61747739D01*
X95357887Y-61579427D01*
X95368500Y-61475546D01*
X95368500Y-60292500D01*
X95388185Y-60225461D01*
X95440989Y-60179706D01*
X95492500Y-60168500D01*
X96376000Y-60168500D01*
X96443039Y-60188185D01*
X96488794Y-60240989D01*
X96500000Y-60292500D01*
X96500000Y-63376000D01*
X96480315Y-63443039D01*
X96427511Y-63488794D01*
X96376000Y-63500000D01*
X76624000Y-63500000D01*
X76556961Y-63480315D01*
X76511206Y-63427511D01*
X76500000Y-63376000D01*
X76500000Y-61911422D01*
X76519685Y-61844383D01*
X76572489Y-61798628D01*
X76641647Y-61788684D01*
X76705203Y-61817709D01*
X76730730Y-61848298D01*
X76750547Y-61881807D01*
X76750549Y-61881809D01*
X76750551Y-61881812D01*
X76868187Y-61999448D01*
X76868191Y-61999451D01*
X76868193Y-61999453D01*
X77011399Y-62084145D01*
X77048140Y-62094819D01*
X77171164Y-62130561D01*
X77171167Y-62130561D01*
X77171169Y-62130562D01*
X77208498Y-62133500D01*
X77833859Y-62133500D01*
X77881311Y-62142939D01*
X77899580Y-62150506D01*
X77899585Y-62150508D01*
X77899589Y-62150508D01*
X77899590Y-62150509D01*
X78065442Y-62183500D01*
X78065445Y-62183500D01*
X79606969Y-62183500D01*
X79674008Y-62203185D01*
X79675861Y-62204399D01*
X79697288Y-62218716D01*
X79697290Y-62218717D01*
X79697296Y-62218721D01*
X79880832Y-62294744D01*
X80075666Y-62333499D01*
X80075669Y-62333500D01*
X80075671Y-62333500D01*
X80274331Y-62333500D01*
X80274332Y-62333499D01*
X80469168Y-62294744D01*
X80652704Y-62218721D01*
X80817881Y-62108353D01*
X80820853Y-62105381D01*
X80831416Y-62094819D01*
X80892739Y-62061334D01*
X80919097Y-62058500D01*
X82619456Y-62058500D01*
X82686495Y-62078185D01*
X82707137Y-62094819D01*
X82711347Y-62099029D01*
X82711351Y-62099032D01*
X82862252Y-62192110D01*
X82862255Y-62192111D01*
X82862261Y-62192115D01*
X83030573Y-62247887D01*
X83134454Y-62258500D01*
X83134459Y-62258500D01*
X86085541Y-62258500D01*
X86085546Y-62258500D01*
X86189427Y-62247887D01*
X86357739Y-62192115D01*
X86508652Y-62099030D01*
X86512863Y-62094819D01*
X86574186Y-62061334D01*
X86600544Y-62058500D01*
X87109330Y-62058500D01*
X87124209Y-62055540D01*
X87193801Y-62061766D01*
X87213501Y-62071619D01*
X87287257Y-62117113D01*
X87287258Y-62117113D01*
X87287261Y-62117115D01*
X87455573Y-62172887D01*
X87559454Y-62183500D01*
X87559459Y-62183500D01*
X88560541Y-62183500D01*
X88560546Y-62183500D01*
X88664427Y-62172887D01*
X88832739Y-62117115D01*
X88983652Y-62024030D01*
X89109030Y-61898652D01*
X89202115Y-61747739D01*
X89257887Y-61579427D01*
X89268500Y-61475546D01*
X89268500Y-58524454D01*
X89257887Y-58420573D01*
X89202115Y-58252261D01*
X89202111Y-58252255D01*
X89202110Y-58252252D01*
X89109032Y-58101351D01*
X89109029Y-58101347D01*
X88983652Y-57975970D01*
X88983648Y-57975967D01*
X88832747Y-57882889D01*
X88832741Y-57882886D01*
X88832739Y-57882885D01*
X88832736Y-57882884D01*
X88664428Y-57827113D01*
X88560553Y-57816500D01*
X88560546Y-57816500D01*
X87559454Y-57816500D01*
X87559446Y-57816500D01*
X87455571Y-57827113D01*
X87287263Y-57882884D01*
X87287252Y-57882889D01*
X87136351Y-57975967D01*
X87136347Y-57975970D01*
X87010970Y-58101347D01*
X87010967Y-58101351D01*
X86917889Y-58252252D01*
X86917884Y-58252263D01*
X86862113Y-58420571D01*
X86851500Y-58524446D01*
X86851500Y-59730904D01*
X86831815Y-59797943D01*
X86815185Y-59818580D01*
X86729933Y-59903833D01*
X86654764Y-59979002D01*
X86593441Y-60012486D01*
X86523749Y-60007502D01*
X86501986Y-59996858D01*
X86357747Y-59907889D01*
X86357741Y-59907886D01*
X86357739Y-59907885D01*
X86345511Y-59903833D01*
X86189428Y-59852113D01*
X86085553Y-59841500D01*
X86085546Y-59841500D01*
X83134454Y-59841500D01*
X83134446Y-59841500D01*
X83030571Y-59852113D01*
X82862263Y-59907884D01*
X82862252Y-59907889D01*
X82711351Y-60000967D01*
X82711347Y-60000970D01*
X82707137Y-60005181D01*
X82645814Y-60038666D01*
X82619456Y-60041500D01*
X80350666Y-60041500D01*
X80155838Y-60080254D01*
X80155830Y-60080256D01*
X80109785Y-60099329D01*
X80109784Y-60099329D01*
X79972300Y-60156276D01*
X79876390Y-60220360D01*
X79809712Y-60241237D01*
X79742332Y-60222752D01*
X79695643Y-60170773D01*
X79683500Y-60117257D01*
X79683500Y-59838504D01*
X79683500Y-59838498D01*
X79680562Y-59801169D01*
X79680244Y-59800075D01*
X79634146Y-59641403D01*
X79634145Y-59641399D01*
X79549453Y-59498193D01*
X79549451Y-59498191D01*
X79549448Y-59498187D01*
X79431810Y-59380549D01*
X79431806Y-59380546D01*
X79381878Y-59351018D01*
X79334195Y-59299949D01*
X79321000Y-59244287D01*
X79321000Y-58578044D01*
X79340685Y-58511005D01*
X79357319Y-58490363D01*
X79399030Y-58448652D01*
X79492115Y-58297738D01*
X79547887Y-58129426D01*
X79558500Y-58025545D01*
X79558499Y-56974456D01*
X79547887Y-56870574D01*
X79492115Y-56702262D01*
X79399030Y-56551348D01*
X79390452Y-56542770D01*
X79363572Y-56502542D01*
X79356222Y-56484796D01*
X79318394Y-56428183D01*
X79245854Y-56319619D01*
X79245851Y-56319615D01*
X79069819Y-56143583D01*
X79036334Y-56082260D01*
X79033500Y-56055902D01*
X79033500Y-55468702D01*
X79042016Y-55430313D01*
X79039843Y-55429593D01*
X79042113Y-55422739D01*
X79042115Y-55422738D01*
X79097887Y-55254426D01*
X79108500Y-55150545D01*
X79108500Y-54449446D01*
X82426500Y-54449446D01*
X82426500Y-55450553D01*
X82437113Y-55554428D01*
X82492884Y-55722736D01*
X82492889Y-55722747D01*
X82585967Y-55873648D01*
X82585970Y-55873652D01*
X82711347Y-55999029D01*
X82711351Y-55999032D01*
X82862252Y-56092110D01*
X82862255Y-56092111D01*
X82862261Y-56092115D01*
X83030573Y-56147887D01*
X83134454Y-56158500D01*
X83134459Y-56158500D01*
X86085541Y-56158500D01*
X86085546Y-56158500D01*
X86189427Y-56147887D01*
X86357739Y-56092115D01*
X86463368Y-56026962D01*
X86528465Y-56008500D01*
X87370737Y-56008500D01*
X87437776Y-56028185D01*
X87476273Y-56067400D01*
X87510970Y-56123652D01*
X87636348Y-56249030D01*
X87787262Y-56342115D01*
X87955574Y-56397887D01*
X88059455Y-56408500D01*
X90160544Y-56408499D01*
X90264426Y-56397887D01*
X90432738Y-56342115D01*
X90583652Y-56249030D01*
X90709030Y-56123652D01*
X90802115Y-55972738D01*
X90857887Y-55804426D01*
X90868500Y-55700545D01*
X90868499Y-54299456D01*
X90857887Y-54195574D01*
X90802115Y-54027262D01*
X90709030Y-53876348D01*
X90583652Y-53750970D01*
X90432738Y-53657885D01*
X90432735Y-53657884D01*
X90264427Y-53602113D01*
X90160545Y-53591500D01*
X88059462Y-53591500D01*
X88059446Y-53591501D01*
X87955572Y-53602113D01*
X87787264Y-53657884D01*
X87787259Y-53657886D01*
X87636346Y-53750971D01*
X87510971Y-53876346D01*
X87510970Y-53876348D01*
X87476273Y-53932599D01*
X87424328Y-53979321D01*
X87370737Y-53991500D01*
X86650544Y-53991500D01*
X86583505Y-53971815D01*
X86562863Y-53955181D01*
X86508652Y-53900970D01*
X86508648Y-53900967D01*
X86357747Y-53807889D01*
X86357741Y-53807886D01*
X86357739Y-53807885D01*
X86357736Y-53807884D01*
X86189428Y-53752113D01*
X86085553Y-53741500D01*
X86085546Y-53741500D01*
X83134454Y-53741500D01*
X83134446Y-53741500D01*
X83030571Y-53752113D01*
X82862263Y-53807884D01*
X82862252Y-53807889D01*
X82711351Y-53900967D01*
X82711347Y-53900970D01*
X82585970Y-54026347D01*
X82585967Y-54026351D01*
X82492889Y-54177252D01*
X82492884Y-54177263D01*
X82437113Y-54345571D01*
X82426500Y-54449446D01*
X79108500Y-54449446D01*
X79108499Y-52849456D01*
X79097887Y-52745574D01*
X79063859Y-52642881D01*
X79039844Y-52570407D01*
X79041959Y-52569705D01*
X79033500Y-52531296D01*
X79033500Y-52444095D01*
X79053185Y-52377056D01*
X79069815Y-52356418D01*
X79331415Y-52094817D01*
X79392738Y-52061333D01*
X79419096Y-52058499D01*
X81150537Y-52058499D01*
X81150544Y-52058499D01*
X81254426Y-52047887D01*
X81422738Y-51992115D01*
X81422739Y-51992113D01*
X81429593Y-51989843D01*
X81430313Y-51992016D01*
X81468702Y-51983500D01*
X82367500Y-51983500D01*
X82434539Y-52003185D01*
X82480294Y-52055989D01*
X82491500Y-52107500D01*
X82491500Y-52548654D01*
X82498011Y-52609202D01*
X82498011Y-52609204D01*
X82541589Y-52726038D01*
X82549111Y-52746204D01*
X82636739Y-52863261D01*
X82753796Y-52950889D01*
X82890799Y-53001989D01*
X82918050Y-53004918D01*
X82951345Y-53008499D01*
X82951362Y-53008500D01*
X88099330Y-53008500D01*
X88099331Y-53008499D01*
X88294169Y-52969744D01*
X88477704Y-52893721D01*
X88642881Y-52783353D01*
X88783353Y-52642881D01*
X88893721Y-52477704D01*
X88969744Y-52294169D01*
X89008500Y-52099329D01*
X89008500Y-51900671D01*
X88969744Y-51705831D01*
X88904140Y-51547451D01*
X88896672Y-51477984D01*
X88904141Y-51452547D01*
X88969744Y-51294169D01*
X89008500Y-51099329D01*
X89008500Y-50900671D01*
X88969744Y-50705831D01*
X88904140Y-50547451D01*
X88896672Y-50477984D01*
X88904141Y-50452547D01*
X88969744Y-50294169D01*
X89008500Y-50099329D01*
X89008500Y-49900671D01*
X88969744Y-49705831D01*
X88904140Y-49547451D01*
X88896672Y-49477984D01*
X88904141Y-49452547D01*
X88969744Y-49294169D01*
X89008500Y-49099329D01*
X89008500Y-48900671D01*
X88969744Y-48705831D01*
X88893721Y-48522296D01*
X88893720Y-48522295D01*
X88893717Y-48522289D01*
X88783353Y-48357119D01*
X88783350Y-48357115D01*
X88642884Y-48216649D01*
X88642880Y-48216646D01*
X88477710Y-48106282D01*
X88477701Y-48106277D01*
X88294169Y-48030256D01*
X88294161Y-48030254D01*
X88099333Y-47991500D01*
X88099329Y-47991500D01*
X87048638Y-47991500D01*
X82951362Y-47991500D01*
X82951345Y-47991500D01*
X82890797Y-47998011D01*
X82890795Y-47998011D01*
X82753795Y-48049111D01*
X82636739Y-48136739D01*
X82549111Y-48253795D01*
X82498011Y-48390795D01*
X82498011Y-48390797D01*
X82491500Y-48451345D01*
X82491500Y-49842500D01*
X82471815Y-49909539D01*
X82419011Y-49955294D01*
X82367500Y-49966500D01*
X81468702Y-49966500D01*
X81430313Y-49957983D01*
X81429593Y-49960157D01*
X81422739Y-49957886D01*
X81422738Y-49957885D01*
X81276837Y-49909539D01*
X81254427Y-49902113D01*
X81150545Y-49891500D01*
X78849462Y-49891500D01*
X78849446Y-49891501D01*
X78745572Y-49902113D01*
X78577264Y-49957884D01*
X78577259Y-49957886D01*
X78426346Y-50050971D01*
X78300971Y-50176346D01*
X78207884Y-50327264D01*
X78197988Y-50357126D01*
X78167964Y-50405800D01*
X77474437Y-51099329D01*
X77357119Y-51216647D01*
X77286882Y-51286884D01*
X77216645Y-51357120D01*
X77106282Y-51522289D01*
X77106277Y-51522298D01*
X77030256Y-51705831D01*
X77030254Y-51705839D01*
X76991500Y-51900666D01*
X76991500Y-51900670D01*
X76991500Y-51900671D01*
X76991500Y-52099329D01*
X76991500Y-52099331D01*
X76991499Y-52099331D01*
X77014117Y-52213031D01*
X77016500Y-52237223D01*
X77016500Y-52531296D01*
X77008040Y-52569705D01*
X77010156Y-52570407D01*
X76952113Y-52745571D01*
X76941500Y-52849447D01*
X76941500Y-55150537D01*
X76941501Y-55150553D01*
X76952113Y-55254426D01*
X77002709Y-55407119D01*
X77010157Y-55429593D01*
X77007983Y-55430313D01*
X77016500Y-55468702D01*
X77016500Y-56262775D01*
X77014117Y-56286966D01*
X76991500Y-56400667D01*
X76991500Y-56599333D01*
X77030254Y-56794160D01*
X77030256Y-56794168D01*
X77106277Y-56977701D01*
X77106282Y-56977710D01*
X77216645Y-57142879D01*
X77216646Y-57142880D01*
X77216647Y-57142881D01*
X77330182Y-57256416D01*
X77363666Y-57317737D01*
X77366500Y-57344096D01*
X77366500Y-58025537D01*
X77366501Y-58025553D01*
X77377113Y-58129427D01*
X77403223Y-58208222D01*
X77432885Y-58297738D01*
X77508649Y-58420571D01*
X77525971Y-58448653D01*
X77567681Y-58490363D01*
X77601166Y-58551686D01*
X77604000Y-58578044D01*
X77604000Y-59122500D01*
X77584315Y-59189539D01*
X77531511Y-59235294D01*
X77480000Y-59246500D01*
X77208492Y-59246500D01*
X77171170Y-59249437D01*
X77171164Y-59249438D01*
X77011403Y-59295853D01*
X77011398Y-59295855D01*
X76868196Y-59380544D01*
X76868187Y-59380551D01*
X76750551Y-59498187D01*
X76750544Y-59498196D01*
X76730732Y-59531698D01*
X76679663Y-59579382D01*
X76610921Y-59591885D01*
X76546332Y-59565240D01*
X76506402Y-59507904D01*
X76500000Y-59468577D01*
X76500000Y-54500000D01*
X66624000Y-54500000D01*
X66556961Y-54480315D01*
X66511206Y-54427511D01*
X66500000Y-54376000D01*
X66500000Y-45407497D01*
X71699193Y-45407497D01*
X71699193Y-45407500D01*
X71718385Y-45626871D01*
X71775380Y-45839576D01*
X71868444Y-46039154D01*
X71994751Y-46219538D01*
X72150462Y-46375249D01*
X72330846Y-46501556D01*
X72530424Y-46594620D01*
X72743129Y-46651615D01*
X72899822Y-46665323D01*
X72962498Y-46670807D01*
X72962500Y-46670807D01*
X72962502Y-46670807D01*
X73017342Y-46666009D01*
X73181871Y-46651615D01*
X73394576Y-46594620D01*
X73594154Y-46501556D01*
X73774538Y-46375249D01*
X73930249Y-46219538D01*
X74056556Y-46039154D01*
X74149620Y-45839576D01*
X74206615Y-45626871D01*
X74225807Y-45407500D01*
X74206615Y-45188129D01*
X74149620Y-44975424D01*
X74056556Y-44775847D01*
X74056554Y-44775844D01*
X74056553Y-44775842D01*
X73993402Y-44685654D01*
X73930249Y-44595462D01*
X73774538Y-44439751D01*
X73594154Y-44313444D01*
X73594150Y-44313442D01*
X73394581Y-44220382D01*
X73394579Y-44220381D01*
X73394576Y-44220380D01*
X73243277Y-44179839D01*
X73181872Y-44163385D01*
X73181865Y-44163384D01*
X72962502Y-44144193D01*
X72962498Y-44144193D01*
X72743134Y-44163384D01*
X72743127Y-44163385D01*
X72530420Y-44220381D01*
X72330846Y-44313444D01*
X72330842Y-44313446D01*
X72150467Y-44439747D01*
X72150460Y-44439752D01*
X71994752Y-44595460D01*
X71994747Y-44595467D01*
X71868446Y-44775842D01*
X71868444Y-44775846D01*
X71775381Y-44975420D01*
X71718385Y-45188127D01*
X71718384Y-45188134D01*
X71699193Y-45407497D01*
X66500000Y-45407497D01*
X66500000Y-41124000D01*
X66519685Y-41056961D01*
X66572489Y-41011206D01*
X66624000Y-41000000D01*
X94876000Y-41000000D01*
X94943039Y-41019685D01*
G37*
G04 #@! TD.AperFunction*
M02*
