G04 #@! TF.GenerationSoftware,KiCad,Pcbnew,8.0.9-8.0.9-0~ubuntu22.04.1*
G04 #@! TF.CreationDate,2025-04-03T00:10:20-07:00*
G04 #@! TF.ProjectId,HBD1E,48424431-452e-46b6-9963-61645f706362,rev?*
G04 #@! TF.SameCoordinates,Original*
G04 #@! TF.FileFunction,Paste,Bot*
G04 #@! TF.FilePolarity,Positive*
%FSLAX46Y46*%
G04 Gerber Fmt 4.6, Leading zero omitted, Abs format (unit mm)*
G04 Created by KiCad (PCBNEW 8.0.9-8.0.9-0~ubuntu22.04.1) date 2025-04-03 00:10:20*
%MOMM*%
%LPD*%
G01*
G04 APERTURE LIST*
G04 Aperture macros list*
%AMRoundRect*
0 Rectangle with rounded corners*
0 $1 Rounding radius*
0 $2 $3 $4 $5 $6 $7 $8 $9 X,Y pos of 4 corners*
0 Add a 4 corners polygon primitive as box body*
4,1,4,$2,$3,$4,$5,$6,$7,$8,$9,$2,$3,0*
0 Add four circle primitives for the rounded corners*
1,1,$1+$1,$2,$3*
1,1,$1+$1,$4,$5*
1,1,$1+$1,$6,$7*
1,1,$1+$1,$8,$9*
0 Add four rect primitives between the rounded corners*
20,1,$1+$1,$2,$3,$4,$5,0*
20,1,$1+$1,$4,$5,$6,$7,0*
20,1,$1+$1,$6,$7,$8,$9,0*
20,1,$1+$1,$8,$9,$2,$3,0*%
G04 Aperture macros list end*
%ADD10RoundRect,0.250000X0.450000X-0.350000X0.450000X0.350000X-0.450000X0.350000X-0.450000X-0.350000X0*%
%ADD11RoundRect,0.250000X-0.450000X0.350000X-0.450000X-0.350000X0.450000X-0.350000X0.450000X0.350000X0*%
%ADD12RoundRect,0.250000X0.475000X-0.337500X0.475000X0.337500X-0.475000X0.337500X-0.475000X-0.337500X0*%
%ADD13RoundRect,0.250000X0.337500X0.475000X-0.337500X0.475000X-0.337500X-0.475000X0.337500X-0.475000X0*%
%ADD14RoundRect,0.250000X-0.350000X-0.450000X0.350000X-0.450000X0.350000X0.450000X-0.350000X0.450000X0*%
%ADD15RoundRect,0.250000X-0.475000X0.337500X-0.475000X-0.337500X0.475000X-0.337500X0.475000X0.337500X0*%
%ADD16RoundRect,0.375000X-0.625000X-0.375000X0.625000X-0.375000X0.625000X0.375000X-0.625000X0.375000X0*%
%ADD17RoundRect,0.500000X-0.500000X-1.400000X0.500000X-1.400000X0.500000X1.400000X-0.500000X1.400000X0*%
%ADD18RoundRect,0.250000X-0.325000X-1.100000X0.325000X-1.100000X0.325000X1.100000X-0.325000X1.100000X0*%
%ADD19RoundRect,0.250000X-0.450000X0.325000X-0.450000X-0.325000X0.450000X-0.325000X0.450000X0.325000X0*%
%ADD20RoundRect,0.250000X-0.325000X-0.450000X0.325000X-0.450000X0.325000X0.450000X-0.325000X0.450000X0*%
G04 APERTURE END LIST*
D10*
X76500000Y-86000000D03*
X76500000Y-84000000D03*
D11*
X71000000Y-51000000D03*
X71000000Y-53000000D03*
D12*
X69000000Y-86037500D03*
X69000000Y-83962500D03*
D11*
X95000000Y-59500000D03*
X95000000Y-61500000D03*
D13*
X75537500Y-48500000D03*
X73462500Y-48500000D03*
D14*
X69000000Y-81500000D03*
X71000000Y-81500000D03*
D13*
X76537500Y-81500000D03*
X74462500Y-81500000D03*
D15*
X78500000Y-66462500D03*
X78500000Y-68537500D03*
D14*
X95500000Y-82500000D03*
X97500000Y-82500000D03*
D16*
X79350000Y-85800000D03*
X79350000Y-83500000D03*
D17*
X85650000Y-83500000D03*
D16*
X79350000Y-81200000D03*
D18*
X84525000Y-71000000D03*
X87475000Y-71000000D03*
D19*
X73500000Y-50975000D03*
X73500000Y-53025000D03*
D14*
X68500000Y-48500000D03*
X70500000Y-48500000D03*
D10*
X76000000Y-53000000D03*
X76000000Y-51000000D03*
D20*
X83975000Y-78500000D03*
X86025000Y-78500000D03*
D16*
X78850000Y-53300000D03*
X78850000Y-51000000D03*
D17*
X85150000Y-51000000D03*
D16*
X78850000Y-48700000D03*
D18*
X84525000Y-67500000D03*
X87475000Y-67500000D03*
D20*
X80975000Y-46000000D03*
X83025000Y-46000000D03*
D11*
X71500000Y-84000000D03*
X71500000Y-86000000D03*
D19*
X74000000Y-83975000D03*
X74000000Y-86025000D03*
D12*
X68500000Y-53037500D03*
X68500000Y-50962500D03*
M02*
