%TF.GenerationSoftware,KiCad,Pcbnew,8.0.9-8.0.9-0~ubuntu22.04.1*%
%TF.CreationDate,2025-04-03T00:10:30-07:00*%
%TF.ProjectId,HBD1E,48424431-452e-46b6-9963-61645f706362,rev?*%
%TF.SameCoordinates,Original*%
%TF.FileFunction,Drillmap*%
%TF.FilePolarity,Positive*%
%FSLAX45Y45*%
G04 Gerber Fmt 4.5, Leading zero omitted, Abs format (unit mm)*
G04 Created by KiCad (PCBNEW 8.0.9-8.0.9-0~ubuntu22.04.1) date 2025-04-03 00:10:30*
%MOMM*%
%LPD*%
G01*
G04 APERTURE LIST*
%ADD10C,0.100000*%
%ADD11C,0.200000*%
%ADD12C,0.150000*%
%ADD13C,0.270000*%
G04 APERTURE END LIST*
D10*
X6450000Y-7650000D02*
X6450000Y-8650000D01*
X7450000Y-7100000D02*
G75*
G02*
X7250000Y-7100000I-100000J0D01*
G01*
X6450000Y-4300000D02*
X6450000Y-5300000D01*
X7450000Y-7100000D02*
X7450000Y-5800000D01*
X7250000Y-5800000D02*
G75*
G02*
X7450000Y-5800000I100000J0D01*
G01*
X6650000Y-8650000D02*
G75*
G02*
X6450000Y-8650000I-100000J0D01*
G01*
X6650000Y-5300000D02*
X6650000Y-4300000D01*
X7250000Y-5800000D02*
X7250000Y-7100000D01*
X3850000Y-4050000D02*
X11160000Y-4050000D01*
X11160000Y-9050000D01*
X3850000Y-9050000D01*
X3850000Y-4050000D01*
X6650000Y-5300000D02*
G75*
G02*
X6450000Y-5300000I-100000J0D01*
G01*
X6450000Y-4300000D02*
G75*
G02*
X6650000Y-4300000I100000J0D01*
G01*
X6450000Y-7650000D02*
G75*
G02*
X6650000Y-7650000I100000J0D01*
G01*
X6650000Y-8650000D02*
X6650000Y-7650000D01*
D11*
D10*
X4630000Y-6580000D02*
X4670000Y-6620000D01*
X4670000Y-6580000D02*
X4630000Y-6620000D01*
X4630000Y-6730000D02*
X4670000Y-6770000D01*
X4670000Y-6730000D02*
X4630000Y-6770000D01*
X4630000Y-6880000D02*
X4670000Y-6920000D01*
X4670000Y-6880000D02*
X4630000Y-6920000D01*
X4630000Y-7030000D02*
X4670000Y-7070000D01*
X4670000Y-7030000D02*
X4630000Y-7070000D01*
X5080000Y-5730000D02*
X5120000Y-5770000D01*
X5120000Y-5730000D02*
X5080000Y-5770000D01*
X5280000Y-6530000D02*
X5320000Y-6570000D01*
X5320000Y-6530000D02*
X5280000Y-6570000D01*
X5280000Y-7030000D02*
X5320000Y-7070000D01*
X5320000Y-7030000D02*
X5280000Y-7070000D01*
X5480000Y-7330000D02*
X5520000Y-7370000D01*
X5520000Y-7330000D02*
X5480000Y-7370000D01*
X5960000Y-6530000D02*
X6000000Y-6570000D01*
X6000000Y-6530000D02*
X5960000Y-6570000D01*
X6330000Y-6980000D02*
X6370000Y-7020000D01*
X6370000Y-6980000D02*
X6330000Y-7020000D01*
X6430000Y-6236250D02*
X6470000Y-6276250D01*
X6470000Y-6236250D02*
X6430000Y-6276250D01*
X6430000Y-6430000D02*
X6470000Y-6470000D01*
X6470000Y-6430000D02*
X6430000Y-6470000D01*
X6680000Y-6480000D02*
X6720000Y-6520000D01*
X6720000Y-6480000D02*
X6680000Y-6520000D01*
X7979823Y-6231191D02*
X8019823Y-6271191D01*
X8019823Y-6231191D02*
X7979823Y-6271191D01*
X7980000Y-6630000D02*
X8020000Y-6670000D01*
X8020000Y-6630000D02*
X7980000Y-6670000D01*
X8080000Y-6230000D02*
X8120000Y-6270000D01*
X8120000Y-6230000D02*
X8080000Y-6270000D01*
X8080000Y-6630000D02*
X8120000Y-6670000D01*
X8120000Y-6630000D02*
X8080000Y-6670000D01*
X8180000Y-5580000D02*
X8220000Y-5620000D01*
X8220000Y-5580000D02*
X8180000Y-5620000D01*
X8180000Y-5730000D02*
X8220000Y-5770000D01*
X8220000Y-5730000D02*
X8180000Y-5770000D01*
X8180000Y-6230000D02*
X8220000Y-6270000D01*
X8220000Y-6230000D02*
X8180000Y-6270000D01*
X8180000Y-6630000D02*
X8220000Y-6670000D01*
X8220000Y-6630000D02*
X8180000Y-6670000D01*
X8280000Y-6230000D02*
X8320000Y-6270000D01*
X8320000Y-6230000D02*
X8280000Y-6270000D01*
X8280000Y-6630000D02*
X8320000Y-6670000D01*
X8320000Y-6630000D02*
X8280000Y-6670000D01*
X8780000Y-4880000D02*
X8820000Y-4920000D01*
X8820000Y-4880000D02*
X8780000Y-4920000D01*
X8780000Y-4980000D02*
X8820000Y-5020000D01*
X8820000Y-4980000D02*
X8780000Y-5020000D01*
X8780000Y-5080000D02*
X8820000Y-5120000D01*
X8820000Y-5080000D02*
X8780000Y-5120000D01*
X8780000Y-5180000D02*
X8820000Y-5220000D01*
X8820000Y-5180000D02*
X8780000Y-5220000D01*
X8780000Y-8280000D02*
X8820000Y-8320000D01*
X8820000Y-8280000D02*
X8780000Y-8320000D01*
X8880000Y-8280000D02*
X8920000Y-8320000D01*
X8920000Y-8280000D02*
X8880000Y-8320000D01*
X8980000Y-8280000D02*
X9020000Y-8320000D01*
X9020000Y-8280000D02*
X8980000Y-8320000D01*
X9080000Y-8280000D02*
X9120000Y-8320000D01*
X9120000Y-8280000D02*
X9080000Y-8320000D01*
X9530000Y-5380000D02*
X9570000Y-5420000D01*
X9570000Y-5380000D02*
X9530000Y-5420000D01*
X9530000Y-5480000D02*
X9570000Y-5520000D01*
X9570000Y-5480000D02*
X9530000Y-5520000D01*
X9530000Y-5580000D02*
X9570000Y-5620000D01*
X9570000Y-5580000D02*
X9530000Y-5620000D01*
X9530000Y-5680000D02*
X9570000Y-5720000D01*
X9570000Y-5680000D02*
X9530000Y-5720000D01*
X9580000Y-7580000D02*
X9620000Y-7620000D01*
X9620000Y-7580000D02*
X9580000Y-7620000D01*
X9580000Y-7680000D02*
X9620000Y-7720000D01*
X9620000Y-7680000D02*
X9580000Y-7720000D01*
X9580000Y-7780000D02*
X9620000Y-7820000D01*
X9620000Y-7780000D02*
X9580000Y-7820000D01*
X4250000Y-5942000D02*
G75*
G02*
X4150000Y-5942000I-50000J0D01*
G01*
X4150000Y-5942000D02*
G75*
G02*
X4250000Y-5942000I50000J0D01*
G01*
X4250000Y-6196000D02*
G75*
G02*
X4150000Y-6196000I-50000J0D01*
G01*
X4150000Y-6196000D02*
G75*
G02*
X4250000Y-6196000I50000J0D01*
G01*
X4250000Y-6450000D02*
G75*
G02*
X4150000Y-6450000I-50000J0D01*
G01*
X4150000Y-6450000D02*
G75*
G02*
X4250000Y-6450000I50000J0D01*
G01*
X4250000Y-6704000D02*
G75*
G02*
X4150000Y-6704000I-50000J0D01*
G01*
X4150000Y-6704000D02*
G75*
G02*
X4250000Y-6704000I50000J0D01*
G01*
X4250000Y-6958000D02*
G75*
G02*
X4150000Y-6958000I-50000J0D01*
G01*
X4150000Y-6958000D02*
G75*
G02*
X4250000Y-6958000I50000J0D01*
G01*
X4250000Y-7212000D02*
G75*
G02*
X4150000Y-7212000I-50000J0D01*
G01*
X4150000Y-7212000D02*
G75*
G02*
X4250000Y-7212000I50000J0D01*
G01*
X4250000Y-7466000D02*
G75*
G02*
X4150000Y-7466000I-50000J0D01*
G01*
X4150000Y-7466000D02*
G75*
G02*
X4250000Y-7466000I50000J0D01*
G01*
X4250000Y-7720000D02*
G75*
G02*
X4150000Y-7720000I-50000J0D01*
G01*
X4150000Y-7720000D02*
G75*
G02*
X4250000Y-7720000I50000J0D01*
G01*
X6076250Y-4540750D02*
G75*
G02*
X5976250Y-4540750I-50000J0D01*
G01*
X5976250Y-4540750D02*
G75*
G02*
X6076250Y-4540750I50000J0D01*
G01*
X6076250Y-7900000D02*
G75*
G02*
X5976250Y-7900000I-50000J0D01*
G01*
X5976250Y-7900000D02*
G75*
G02*
X6076250Y-7900000I50000J0D01*
G01*
X6330250Y-4540750D02*
G75*
G02*
X6230250Y-4540750I-50000J0D01*
G01*
X6230250Y-4540750D02*
G75*
G02*
X6330250Y-4540750I50000J0D01*
G01*
X6330250Y-7900000D02*
G75*
G02*
X6230250Y-7900000I-50000J0D01*
G01*
X6230250Y-7900000D02*
G75*
G02*
X6330250Y-7900000I50000J0D01*
G01*
X6838250Y-4540750D02*
G75*
G02*
X6738250Y-4540750I-50000J0D01*
G01*
X6738250Y-4540750D02*
G75*
G02*
X6838250Y-4540750I50000J0D01*
G01*
X6838250Y-7900000D02*
G75*
G02*
X6738250Y-7900000I-50000J0D01*
G01*
X6738250Y-7900000D02*
G75*
G02*
X6838250Y-7900000I50000J0D01*
G01*
X7346250Y-4540750D02*
G75*
G02*
X7246250Y-4540750I-50000J0D01*
G01*
X7246250Y-4540750D02*
G75*
G02*
X7346250Y-4540750I50000J0D01*
G01*
X7346250Y-7900000D02*
G75*
G02*
X7246250Y-7900000I-50000J0D01*
G01*
X7246250Y-7900000D02*
G75*
G02*
X7346250Y-7900000I50000J0D01*
G01*
D12*
X10004000Y-4825000D02*
X10004000Y-4975000D01*
X9929000Y-4900000D02*
X10079000Y-4900000D01*
X10004000Y-5333000D02*
X10004000Y-5483000D01*
X9929000Y-5408000D02*
X10079000Y-5408000D01*
X10004000Y-5587000D02*
X10004000Y-5737000D01*
X9929000Y-5662000D02*
X10079000Y-5662000D01*
X10004000Y-5841000D02*
X10004000Y-5991000D01*
X9929000Y-5916000D02*
X10079000Y-5916000D01*
X10004000Y-6856000D02*
X10004000Y-7006000D01*
X9929000Y-6931000D02*
X10079000Y-6931000D01*
X10004000Y-7364000D02*
X10004000Y-7514000D01*
X9929000Y-7439000D02*
X10079000Y-7439000D01*
X10004000Y-7618000D02*
X10004000Y-7768000D01*
X9929000Y-7693000D02*
X10079000Y-7693000D01*
X10004000Y-7872000D02*
X10004000Y-8022000D01*
X9929000Y-7947000D02*
X10079000Y-7947000D01*
D13*
X4495460Y-4740460D02*
X4495460Y-4549540D01*
X4304540Y-4549540D01*
X4304540Y-4740460D01*
X4495460Y-4740460D01*
X4495460Y-8550460D02*
X4495460Y-8359540D01*
X4304540Y-8359540D01*
X4304540Y-8550460D01*
X4495460Y-8550460D01*
D11*
X4105777Y-9366484D02*
X4105777Y-9166484D01*
X4105777Y-9166484D02*
X4153396Y-9166484D01*
X4153396Y-9166484D02*
X4181967Y-9176008D01*
X4181967Y-9176008D02*
X4201015Y-9195055D01*
X4201015Y-9195055D02*
X4210539Y-9214103D01*
X4210539Y-9214103D02*
X4220063Y-9252198D01*
X4220063Y-9252198D02*
X4220063Y-9280770D01*
X4220063Y-9280770D02*
X4210539Y-9318865D01*
X4210539Y-9318865D02*
X4201015Y-9337912D01*
X4201015Y-9337912D02*
X4181967Y-9356960D01*
X4181967Y-9356960D02*
X4153396Y-9366484D01*
X4153396Y-9366484D02*
X4105777Y-9366484D01*
X4305777Y-9366484D02*
X4305777Y-9233150D01*
X4305777Y-9271246D02*
X4315301Y-9252198D01*
X4315301Y-9252198D02*
X4324824Y-9242674D01*
X4324824Y-9242674D02*
X4343872Y-9233150D01*
X4343872Y-9233150D02*
X4362920Y-9233150D01*
X4429586Y-9366484D02*
X4429586Y-9233150D01*
X4429586Y-9166484D02*
X4420063Y-9176008D01*
X4420063Y-9176008D02*
X4429586Y-9185531D01*
X4429586Y-9185531D02*
X4439110Y-9176008D01*
X4439110Y-9176008D02*
X4429586Y-9166484D01*
X4429586Y-9166484D02*
X4429586Y-9185531D01*
X4553396Y-9366484D02*
X4534348Y-9356960D01*
X4534348Y-9356960D02*
X4524824Y-9337912D01*
X4524824Y-9337912D02*
X4524824Y-9166484D01*
X4658158Y-9366484D02*
X4639110Y-9356960D01*
X4639110Y-9356960D02*
X4629586Y-9337912D01*
X4629586Y-9337912D02*
X4629586Y-9166484D01*
X4886729Y-9366484D02*
X4886729Y-9166484D01*
X4886729Y-9166484D02*
X4953396Y-9309341D01*
X4953396Y-9309341D02*
X5020063Y-9166484D01*
X5020063Y-9166484D02*
X5020063Y-9366484D01*
X5201015Y-9366484D02*
X5201015Y-9261722D01*
X5201015Y-9261722D02*
X5191491Y-9242674D01*
X5191491Y-9242674D02*
X5172444Y-9233150D01*
X5172444Y-9233150D02*
X5134348Y-9233150D01*
X5134348Y-9233150D02*
X5115301Y-9242674D01*
X5201015Y-9356960D02*
X5181967Y-9366484D01*
X5181967Y-9366484D02*
X5134348Y-9366484D01*
X5134348Y-9366484D02*
X5115301Y-9356960D01*
X5115301Y-9356960D02*
X5105777Y-9337912D01*
X5105777Y-9337912D02*
X5105777Y-9318865D01*
X5105777Y-9318865D02*
X5115301Y-9299817D01*
X5115301Y-9299817D02*
X5134348Y-9290293D01*
X5134348Y-9290293D02*
X5181967Y-9290293D01*
X5181967Y-9290293D02*
X5201015Y-9280770D01*
X5296253Y-9233150D02*
X5296253Y-9433150D01*
X5296253Y-9242674D02*
X5315301Y-9233150D01*
X5315301Y-9233150D02*
X5353396Y-9233150D01*
X5353396Y-9233150D02*
X5372444Y-9242674D01*
X5372444Y-9242674D02*
X5381967Y-9252198D01*
X5381967Y-9252198D02*
X5391491Y-9271246D01*
X5391491Y-9271246D02*
X5391491Y-9328389D01*
X5391491Y-9328389D02*
X5381967Y-9347436D01*
X5381967Y-9347436D02*
X5372444Y-9356960D01*
X5372444Y-9356960D02*
X5353396Y-9366484D01*
X5353396Y-9366484D02*
X5315301Y-9366484D01*
X5315301Y-9366484D02*
X5296253Y-9356960D01*
X5477205Y-9347436D02*
X5486729Y-9356960D01*
X5486729Y-9356960D02*
X5477205Y-9366484D01*
X5477205Y-9366484D02*
X5467682Y-9356960D01*
X5467682Y-9356960D02*
X5477205Y-9347436D01*
X5477205Y-9347436D02*
X5477205Y-9366484D01*
X5477205Y-9242674D02*
X5486729Y-9252198D01*
X5486729Y-9252198D02*
X5477205Y-9261722D01*
X5477205Y-9261722D02*
X5467682Y-9252198D01*
X5467682Y-9252198D02*
X5477205Y-9242674D01*
X5477205Y-9242674D02*
X5477205Y-9261722D01*
D10*
X3805000Y-9675000D02*
X3845000Y-9715000D01*
X3845000Y-9675000D02*
X3805000Y-9715000D01*
D11*
X4143872Y-9586484D02*
X4162920Y-9586484D01*
X4162920Y-9586484D02*
X4181967Y-9596008D01*
X4181967Y-9596008D02*
X4191491Y-9605531D01*
X4191491Y-9605531D02*
X4201015Y-9624579D01*
X4201015Y-9624579D02*
X4210539Y-9662674D01*
X4210539Y-9662674D02*
X4210539Y-9710293D01*
X4210539Y-9710293D02*
X4201015Y-9748389D01*
X4201015Y-9748389D02*
X4191491Y-9767436D01*
X4191491Y-9767436D02*
X4181967Y-9776960D01*
X4181967Y-9776960D02*
X4162920Y-9786484D01*
X4162920Y-9786484D02*
X4143872Y-9786484D01*
X4143872Y-9786484D02*
X4124824Y-9776960D01*
X4124824Y-9776960D02*
X4115301Y-9767436D01*
X4115301Y-9767436D02*
X4105777Y-9748389D01*
X4105777Y-9748389D02*
X4096253Y-9710293D01*
X4096253Y-9710293D02*
X4096253Y-9662674D01*
X4096253Y-9662674D02*
X4105777Y-9624579D01*
X4105777Y-9624579D02*
X4115301Y-9605531D01*
X4115301Y-9605531D02*
X4124824Y-9596008D01*
X4124824Y-9596008D02*
X4143872Y-9586484D01*
X4296253Y-9767436D02*
X4305777Y-9776960D01*
X4305777Y-9776960D02*
X4296253Y-9786484D01*
X4296253Y-9786484D02*
X4286729Y-9776960D01*
X4286729Y-9776960D02*
X4296253Y-9767436D01*
X4296253Y-9767436D02*
X4296253Y-9786484D01*
X4477205Y-9653150D02*
X4477205Y-9786484D01*
X4429586Y-9576960D02*
X4381967Y-9719817D01*
X4381967Y-9719817D02*
X4505777Y-9719817D01*
X4620063Y-9586484D02*
X4639110Y-9586484D01*
X4639110Y-9586484D02*
X4658158Y-9596008D01*
X4658158Y-9596008D02*
X4667682Y-9605531D01*
X4667682Y-9605531D02*
X4677205Y-9624579D01*
X4677205Y-9624579D02*
X4686729Y-9662674D01*
X4686729Y-9662674D02*
X4686729Y-9710293D01*
X4686729Y-9710293D02*
X4677205Y-9748389D01*
X4677205Y-9748389D02*
X4667682Y-9767436D01*
X4667682Y-9767436D02*
X4658158Y-9776960D01*
X4658158Y-9776960D02*
X4639110Y-9786484D01*
X4639110Y-9786484D02*
X4620063Y-9786484D01*
X4620063Y-9786484D02*
X4601015Y-9776960D01*
X4601015Y-9776960D02*
X4591491Y-9767436D01*
X4591491Y-9767436D02*
X4581967Y-9748389D01*
X4581967Y-9748389D02*
X4572444Y-9710293D01*
X4572444Y-9710293D02*
X4572444Y-9662674D01*
X4572444Y-9662674D02*
X4581967Y-9624579D01*
X4581967Y-9624579D02*
X4591491Y-9605531D01*
X4591491Y-9605531D02*
X4601015Y-9596008D01*
X4601015Y-9596008D02*
X4620063Y-9586484D01*
X4810539Y-9586484D02*
X4829586Y-9586484D01*
X4829586Y-9586484D02*
X4848634Y-9596008D01*
X4848634Y-9596008D02*
X4858158Y-9605531D01*
X4858158Y-9605531D02*
X4867682Y-9624579D01*
X4867682Y-9624579D02*
X4877205Y-9662674D01*
X4877205Y-9662674D02*
X4877205Y-9710293D01*
X4877205Y-9710293D02*
X4867682Y-9748389D01*
X4867682Y-9748389D02*
X4858158Y-9767436D01*
X4858158Y-9767436D02*
X4848634Y-9776960D01*
X4848634Y-9776960D02*
X4829586Y-9786484D01*
X4829586Y-9786484D02*
X4810539Y-9786484D01*
X4810539Y-9786484D02*
X4791491Y-9776960D01*
X4791491Y-9776960D02*
X4781967Y-9767436D01*
X4781967Y-9767436D02*
X4772444Y-9748389D01*
X4772444Y-9748389D02*
X4762920Y-9710293D01*
X4762920Y-9710293D02*
X4762920Y-9662674D01*
X4762920Y-9662674D02*
X4772444Y-9624579D01*
X4772444Y-9624579D02*
X4781967Y-9605531D01*
X4781967Y-9605531D02*
X4791491Y-9596008D01*
X4791491Y-9596008D02*
X4810539Y-9586484D01*
X4962920Y-9786484D02*
X4962920Y-9653150D01*
X4962920Y-9672198D02*
X4972444Y-9662674D01*
X4972444Y-9662674D02*
X4991491Y-9653150D01*
X4991491Y-9653150D02*
X5020063Y-9653150D01*
X5020063Y-9653150D02*
X5039110Y-9662674D01*
X5039110Y-9662674D02*
X5048634Y-9681722D01*
X5048634Y-9681722D02*
X5048634Y-9786484D01*
X5048634Y-9681722D02*
X5058158Y-9662674D01*
X5058158Y-9662674D02*
X5077205Y-9653150D01*
X5077205Y-9653150D02*
X5105777Y-9653150D01*
X5105777Y-9653150D02*
X5124825Y-9662674D01*
X5124825Y-9662674D02*
X5134348Y-9681722D01*
X5134348Y-9681722D02*
X5134348Y-9786484D01*
X5229586Y-9786484D02*
X5229586Y-9653150D01*
X5229586Y-9672198D02*
X5239110Y-9662674D01*
X5239110Y-9662674D02*
X5258158Y-9653150D01*
X5258158Y-9653150D02*
X5286729Y-9653150D01*
X5286729Y-9653150D02*
X5305777Y-9662674D01*
X5305777Y-9662674D02*
X5315301Y-9681722D01*
X5315301Y-9681722D02*
X5315301Y-9786484D01*
X5315301Y-9681722D02*
X5324825Y-9662674D01*
X5324825Y-9662674D02*
X5343872Y-9653150D01*
X5343872Y-9653150D02*
X5372444Y-9653150D01*
X5372444Y-9653150D02*
X5391491Y-9662674D01*
X5391491Y-9662674D02*
X5401015Y-9681722D01*
X5401015Y-9681722D02*
X5401015Y-9786484D01*
X5791491Y-9576960D02*
X5620063Y-9834103D01*
X6048634Y-9586484D02*
X6067682Y-9586484D01*
X6067682Y-9586484D02*
X6086729Y-9596008D01*
X6086729Y-9596008D02*
X6096253Y-9605531D01*
X6096253Y-9605531D02*
X6105777Y-9624579D01*
X6105777Y-9624579D02*
X6115301Y-9662674D01*
X6115301Y-9662674D02*
X6115301Y-9710293D01*
X6115301Y-9710293D02*
X6105777Y-9748389D01*
X6105777Y-9748389D02*
X6096253Y-9767436D01*
X6096253Y-9767436D02*
X6086729Y-9776960D01*
X6086729Y-9776960D02*
X6067682Y-9786484D01*
X6067682Y-9786484D02*
X6048634Y-9786484D01*
X6048634Y-9786484D02*
X6029586Y-9776960D01*
X6029586Y-9776960D02*
X6020063Y-9767436D01*
X6020063Y-9767436D02*
X6010539Y-9748389D01*
X6010539Y-9748389D02*
X6001015Y-9710293D01*
X6001015Y-9710293D02*
X6001015Y-9662674D01*
X6001015Y-9662674D02*
X6010539Y-9624579D01*
X6010539Y-9624579D02*
X6020063Y-9605531D01*
X6020063Y-9605531D02*
X6029586Y-9596008D01*
X6029586Y-9596008D02*
X6048634Y-9586484D01*
X6201015Y-9767436D02*
X6210539Y-9776960D01*
X6210539Y-9776960D02*
X6201015Y-9786484D01*
X6201015Y-9786484D02*
X6191491Y-9776960D01*
X6191491Y-9776960D02*
X6201015Y-9767436D01*
X6201015Y-9767436D02*
X6201015Y-9786484D01*
X6334348Y-9586484D02*
X6353396Y-9586484D01*
X6353396Y-9586484D02*
X6372444Y-9596008D01*
X6372444Y-9596008D02*
X6381967Y-9605531D01*
X6381967Y-9605531D02*
X6391491Y-9624579D01*
X6391491Y-9624579D02*
X6401015Y-9662674D01*
X6401015Y-9662674D02*
X6401015Y-9710293D01*
X6401015Y-9710293D02*
X6391491Y-9748389D01*
X6391491Y-9748389D02*
X6381967Y-9767436D01*
X6381967Y-9767436D02*
X6372444Y-9776960D01*
X6372444Y-9776960D02*
X6353396Y-9786484D01*
X6353396Y-9786484D02*
X6334348Y-9786484D01*
X6334348Y-9786484D02*
X6315301Y-9776960D01*
X6315301Y-9776960D02*
X6305777Y-9767436D01*
X6305777Y-9767436D02*
X6296253Y-9748389D01*
X6296253Y-9748389D02*
X6286729Y-9710293D01*
X6286729Y-9710293D02*
X6286729Y-9662674D01*
X6286729Y-9662674D02*
X6296253Y-9624579D01*
X6296253Y-9624579D02*
X6305777Y-9605531D01*
X6305777Y-9605531D02*
X6315301Y-9596008D01*
X6315301Y-9596008D02*
X6334348Y-9586484D01*
X6591491Y-9786484D02*
X6477206Y-9786484D01*
X6534348Y-9786484D02*
X6534348Y-9586484D01*
X6534348Y-9586484D02*
X6515301Y-9615055D01*
X6515301Y-9615055D02*
X6496253Y-9634103D01*
X6496253Y-9634103D02*
X6477206Y-9643627D01*
X6772444Y-9586484D02*
X6677206Y-9586484D01*
X6677206Y-9586484D02*
X6667682Y-9681722D01*
X6667682Y-9681722D02*
X6677206Y-9672198D01*
X6677206Y-9672198D02*
X6696253Y-9662674D01*
X6696253Y-9662674D02*
X6743872Y-9662674D01*
X6743872Y-9662674D02*
X6762920Y-9672198D01*
X6762920Y-9672198D02*
X6772444Y-9681722D01*
X6772444Y-9681722D02*
X6781967Y-9700770D01*
X6781967Y-9700770D02*
X6781967Y-9748389D01*
X6781967Y-9748389D02*
X6772444Y-9767436D01*
X6772444Y-9767436D02*
X6762920Y-9776960D01*
X6762920Y-9776960D02*
X6743872Y-9786484D01*
X6743872Y-9786484D02*
X6696253Y-9786484D01*
X6696253Y-9786484D02*
X6677206Y-9776960D01*
X6677206Y-9776960D02*
X6667682Y-9767436D01*
X6848634Y-9586484D02*
X6981967Y-9586484D01*
X6981967Y-9586484D02*
X6896253Y-9786484D01*
X7048634Y-9586484D02*
X7048634Y-9624579D01*
X7124825Y-9586484D02*
X7124825Y-9624579D01*
X7420063Y-9862674D02*
X7410539Y-9853150D01*
X7410539Y-9853150D02*
X7391491Y-9824579D01*
X7391491Y-9824579D02*
X7381968Y-9805531D01*
X7381968Y-9805531D02*
X7372444Y-9776960D01*
X7372444Y-9776960D02*
X7362920Y-9729341D01*
X7362920Y-9729341D02*
X7362920Y-9691246D01*
X7362920Y-9691246D02*
X7372444Y-9643627D01*
X7372444Y-9643627D02*
X7381968Y-9615055D01*
X7381968Y-9615055D02*
X7391491Y-9596008D01*
X7391491Y-9596008D02*
X7410539Y-9567436D01*
X7410539Y-9567436D02*
X7420063Y-9557912D01*
X7477206Y-9586484D02*
X7601015Y-9586484D01*
X7601015Y-9586484D02*
X7534348Y-9662674D01*
X7534348Y-9662674D02*
X7562920Y-9662674D01*
X7562920Y-9662674D02*
X7581968Y-9672198D01*
X7581968Y-9672198D02*
X7591491Y-9681722D01*
X7591491Y-9681722D02*
X7601015Y-9700770D01*
X7601015Y-9700770D02*
X7601015Y-9748389D01*
X7601015Y-9748389D02*
X7591491Y-9767436D01*
X7591491Y-9767436D02*
X7581968Y-9776960D01*
X7581968Y-9776960D02*
X7562920Y-9786484D01*
X7562920Y-9786484D02*
X7505777Y-9786484D01*
X7505777Y-9786484D02*
X7486729Y-9776960D01*
X7486729Y-9776960D02*
X7477206Y-9767436D01*
X7715301Y-9672198D02*
X7696253Y-9662674D01*
X7696253Y-9662674D02*
X7686729Y-9653150D01*
X7686729Y-9653150D02*
X7677206Y-9634103D01*
X7677206Y-9634103D02*
X7677206Y-9624579D01*
X7677206Y-9624579D02*
X7686729Y-9605531D01*
X7686729Y-9605531D02*
X7696253Y-9596008D01*
X7696253Y-9596008D02*
X7715301Y-9586484D01*
X7715301Y-9586484D02*
X7753396Y-9586484D01*
X7753396Y-9586484D02*
X7772444Y-9596008D01*
X7772444Y-9596008D02*
X7781968Y-9605531D01*
X7781968Y-9605531D02*
X7791491Y-9624579D01*
X7791491Y-9624579D02*
X7791491Y-9634103D01*
X7791491Y-9634103D02*
X7781968Y-9653150D01*
X7781968Y-9653150D02*
X7772444Y-9662674D01*
X7772444Y-9662674D02*
X7753396Y-9672198D01*
X7753396Y-9672198D02*
X7715301Y-9672198D01*
X7715301Y-9672198D02*
X7696253Y-9681722D01*
X7696253Y-9681722D02*
X7686729Y-9691246D01*
X7686729Y-9691246D02*
X7677206Y-9710293D01*
X7677206Y-9710293D02*
X7677206Y-9748389D01*
X7677206Y-9748389D02*
X7686729Y-9767436D01*
X7686729Y-9767436D02*
X7696253Y-9776960D01*
X7696253Y-9776960D02*
X7715301Y-9786484D01*
X7715301Y-9786484D02*
X7753396Y-9786484D01*
X7753396Y-9786484D02*
X7772444Y-9776960D01*
X7772444Y-9776960D02*
X7781968Y-9767436D01*
X7781968Y-9767436D02*
X7791491Y-9748389D01*
X7791491Y-9748389D02*
X7791491Y-9710293D01*
X7791491Y-9710293D02*
X7781968Y-9691246D01*
X7781968Y-9691246D02*
X7772444Y-9681722D01*
X7772444Y-9681722D02*
X7753396Y-9672198D01*
X8029587Y-9786484D02*
X8029587Y-9586484D01*
X8115301Y-9786484D02*
X8115301Y-9681722D01*
X8115301Y-9681722D02*
X8105777Y-9662674D01*
X8105777Y-9662674D02*
X8086730Y-9653150D01*
X8086730Y-9653150D02*
X8058158Y-9653150D01*
X8058158Y-9653150D02*
X8039110Y-9662674D01*
X8039110Y-9662674D02*
X8029587Y-9672198D01*
X8239110Y-9786484D02*
X8220063Y-9776960D01*
X8220063Y-9776960D02*
X8210539Y-9767436D01*
X8210539Y-9767436D02*
X8201015Y-9748389D01*
X8201015Y-9748389D02*
X8201015Y-9691246D01*
X8201015Y-9691246D02*
X8210539Y-9672198D01*
X8210539Y-9672198D02*
X8220063Y-9662674D01*
X8220063Y-9662674D02*
X8239110Y-9653150D01*
X8239110Y-9653150D02*
X8267682Y-9653150D01*
X8267682Y-9653150D02*
X8286730Y-9662674D01*
X8286730Y-9662674D02*
X8296253Y-9672198D01*
X8296253Y-9672198D02*
X8305777Y-9691246D01*
X8305777Y-9691246D02*
X8305777Y-9748389D01*
X8305777Y-9748389D02*
X8296253Y-9767436D01*
X8296253Y-9767436D02*
X8286730Y-9776960D01*
X8286730Y-9776960D02*
X8267682Y-9786484D01*
X8267682Y-9786484D02*
X8239110Y-9786484D01*
X8420063Y-9786484D02*
X8401015Y-9776960D01*
X8401015Y-9776960D02*
X8391492Y-9757912D01*
X8391492Y-9757912D02*
X8391492Y-9586484D01*
X8572444Y-9776960D02*
X8553396Y-9786484D01*
X8553396Y-9786484D02*
X8515301Y-9786484D01*
X8515301Y-9786484D02*
X8496253Y-9776960D01*
X8496253Y-9776960D02*
X8486730Y-9757912D01*
X8486730Y-9757912D02*
X8486730Y-9681722D01*
X8486730Y-9681722D02*
X8496253Y-9662674D01*
X8496253Y-9662674D02*
X8515301Y-9653150D01*
X8515301Y-9653150D02*
X8553396Y-9653150D01*
X8553396Y-9653150D02*
X8572444Y-9662674D01*
X8572444Y-9662674D02*
X8581968Y-9681722D01*
X8581968Y-9681722D02*
X8581968Y-9700770D01*
X8581968Y-9700770D02*
X8486730Y-9719817D01*
X8658158Y-9776960D02*
X8677206Y-9786484D01*
X8677206Y-9786484D02*
X8715301Y-9786484D01*
X8715301Y-9786484D02*
X8734349Y-9776960D01*
X8734349Y-9776960D02*
X8743873Y-9757912D01*
X8743873Y-9757912D02*
X8743873Y-9748389D01*
X8743873Y-9748389D02*
X8734349Y-9729341D01*
X8734349Y-9729341D02*
X8715301Y-9719817D01*
X8715301Y-9719817D02*
X8686730Y-9719817D01*
X8686730Y-9719817D02*
X8667682Y-9710293D01*
X8667682Y-9710293D02*
X8658158Y-9691246D01*
X8658158Y-9691246D02*
X8658158Y-9681722D01*
X8658158Y-9681722D02*
X8667682Y-9662674D01*
X8667682Y-9662674D02*
X8686730Y-9653150D01*
X8686730Y-9653150D02*
X8715301Y-9653150D01*
X8715301Y-9653150D02*
X8734349Y-9662674D01*
X8810539Y-9862674D02*
X8820063Y-9853150D01*
X8820063Y-9853150D02*
X8839111Y-9824579D01*
X8839111Y-9824579D02*
X8848634Y-9805531D01*
X8848634Y-9805531D02*
X8858158Y-9776960D01*
X8858158Y-9776960D02*
X8867682Y-9729341D01*
X8867682Y-9729341D02*
X8867682Y-9691246D01*
X8867682Y-9691246D02*
X8858158Y-9643627D01*
X8858158Y-9643627D02*
X8848634Y-9615055D01*
X8848634Y-9615055D02*
X8839111Y-9596008D01*
X8839111Y-9596008D02*
X8820063Y-9567436D01*
X8820063Y-9567436D02*
X8810539Y-9557912D01*
D10*
X3845000Y-9959000D02*
G75*
G02*
X3745000Y-9959000I-50000J0D01*
G01*
X3745000Y-9959000D02*
G75*
G02*
X3845000Y-9959000I50000J0D01*
G01*
D11*
X4210539Y-10050484D02*
X4096253Y-10050484D01*
X4153396Y-10050484D02*
X4153396Y-9850484D01*
X4153396Y-9850484D02*
X4134348Y-9879055D01*
X4134348Y-9879055D02*
X4115301Y-9898103D01*
X4115301Y-9898103D02*
X4096253Y-9907627D01*
X4296253Y-10031436D02*
X4305777Y-10040960D01*
X4305777Y-10040960D02*
X4296253Y-10050484D01*
X4296253Y-10050484D02*
X4286729Y-10040960D01*
X4286729Y-10040960D02*
X4296253Y-10031436D01*
X4296253Y-10031436D02*
X4296253Y-10050484D01*
X4429586Y-9850484D02*
X4448634Y-9850484D01*
X4448634Y-9850484D02*
X4467682Y-9860008D01*
X4467682Y-9860008D02*
X4477205Y-9869531D01*
X4477205Y-9869531D02*
X4486729Y-9888579D01*
X4486729Y-9888579D02*
X4496253Y-9926674D01*
X4496253Y-9926674D02*
X4496253Y-9974293D01*
X4496253Y-9974293D02*
X4486729Y-10012389D01*
X4486729Y-10012389D02*
X4477205Y-10031436D01*
X4477205Y-10031436D02*
X4467682Y-10040960D01*
X4467682Y-10040960D02*
X4448634Y-10050484D01*
X4448634Y-10050484D02*
X4429586Y-10050484D01*
X4429586Y-10050484D02*
X4410539Y-10040960D01*
X4410539Y-10040960D02*
X4401015Y-10031436D01*
X4401015Y-10031436D02*
X4391491Y-10012389D01*
X4391491Y-10012389D02*
X4381967Y-9974293D01*
X4381967Y-9974293D02*
X4381967Y-9926674D01*
X4381967Y-9926674D02*
X4391491Y-9888579D01*
X4391491Y-9888579D02*
X4401015Y-9869531D01*
X4401015Y-9869531D02*
X4410539Y-9860008D01*
X4410539Y-9860008D02*
X4429586Y-9850484D01*
X4620063Y-9850484D02*
X4639110Y-9850484D01*
X4639110Y-9850484D02*
X4658158Y-9860008D01*
X4658158Y-9860008D02*
X4667682Y-9869531D01*
X4667682Y-9869531D02*
X4677205Y-9888579D01*
X4677205Y-9888579D02*
X4686729Y-9926674D01*
X4686729Y-9926674D02*
X4686729Y-9974293D01*
X4686729Y-9974293D02*
X4677205Y-10012389D01*
X4677205Y-10012389D02*
X4667682Y-10031436D01*
X4667682Y-10031436D02*
X4658158Y-10040960D01*
X4658158Y-10040960D02*
X4639110Y-10050484D01*
X4639110Y-10050484D02*
X4620063Y-10050484D01*
X4620063Y-10050484D02*
X4601015Y-10040960D01*
X4601015Y-10040960D02*
X4591491Y-10031436D01*
X4591491Y-10031436D02*
X4581967Y-10012389D01*
X4581967Y-10012389D02*
X4572444Y-9974293D01*
X4572444Y-9974293D02*
X4572444Y-9926674D01*
X4572444Y-9926674D02*
X4581967Y-9888579D01*
X4581967Y-9888579D02*
X4591491Y-9869531D01*
X4591491Y-9869531D02*
X4601015Y-9860008D01*
X4601015Y-9860008D02*
X4620063Y-9850484D01*
X4810539Y-9850484D02*
X4829586Y-9850484D01*
X4829586Y-9850484D02*
X4848634Y-9860008D01*
X4848634Y-9860008D02*
X4858158Y-9869531D01*
X4858158Y-9869531D02*
X4867682Y-9888579D01*
X4867682Y-9888579D02*
X4877205Y-9926674D01*
X4877205Y-9926674D02*
X4877205Y-9974293D01*
X4877205Y-9974293D02*
X4867682Y-10012389D01*
X4867682Y-10012389D02*
X4858158Y-10031436D01*
X4858158Y-10031436D02*
X4848634Y-10040960D01*
X4848634Y-10040960D02*
X4829586Y-10050484D01*
X4829586Y-10050484D02*
X4810539Y-10050484D01*
X4810539Y-10050484D02*
X4791491Y-10040960D01*
X4791491Y-10040960D02*
X4781967Y-10031436D01*
X4781967Y-10031436D02*
X4772444Y-10012389D01*
X4772444Y-10012389D02*
X4762920Y-9974293D01*
X4762920Y-9974293D02*
X4762920Y-9926674D01*
X4762920Y-9926674D02*
X4772444Y-9888579D01*
X4772444Y-9888579D02*
X4781967Y-9869531D01*
X4781967Y-9869531D02*
X4791491Y-9860008D01*
X4791491Y-9860008D02*
X4810539Y-9850484D01*
X4962920Y-10050484D02*
X4962920Y-9917150D01*
X4962920Y-9936198D02*
X4972444Y-9926674D01*
X4972444Y-9926674D02*
X4991491Y-9917150D01*
X4991491Y-9917150D02*
X5020063Y-9917150D01*
X5020063Y-9917150D02*
X5039110Y-9926674D01*
X5039110Y-9926674D02*
X5048634Y-9945722D01*
X5048634Y-9945722D02*
X5048634Y-10050484D01*
X5048634Y-9945722D02*
X5058158Y-9926674D01*
X5058158Y-9926674D02*
X5077205Y-9917150D01*
X5077205Y-9917150D02*
X5105777Y-9917150D01*
X5105777Y-9917150D02*
X5124825Y-9926674D01*
X5124825Y-9926674D02*
X5134348Y-9945722D01*
X5134348Y-9945722D02*
X5134348Y-10050484D01*
X5229586Y-10050484D02*
X5229586Y-9917150D01*
X5229586Y-9936198D02*
X5239110Y-9926674D01*
X5239110Y-9926674D02*
X5258158Y-9917150D01*
X5258158Y-9917150D02*
X5286729Y-9917150D01*
X5286729Y-9917150D02*
X5305777Y-9926674D01*
X5305777Y-9926674D02*
X5315301Y-9945722D01*
X5315301Y-9945722D02*
X5315301Y-10050484D01*
X5315301Y-9945722D02*
X5324825Y-9926674D01*
X5324825Y-9926674D02*
X5343872Y-9917150D01*
X5343872Y-9917150D02*
X5372444Y-9917150D01*
X5372444Y-9917150D02*
X5391491Y-9926674D01*
X5391491Y-9926674D02*
X5401015Y-9945722D01*
X5401015Y-9945722D02*
X5401015Y-10050484D01*
X5791491Y-9840960D02*
X5620063Y-10098103D01*
X6048634Y-9850484D02*
X6067682Y-9850484D01*
X6067682Y-9850484D02*
X6086729Y-9860008D01*
X6086729Y-9860008D02*
X6096253Y-9869531D01*
X6096253Y-9869531D02*
X6105777Y-9888579D01*
X6105777Y-9888579D02*
X6115301Y-9926674D01*
X6115301Y-9926674D02*
X6115301Y-9974293D01*
X6115301Y-9974293D02*
X6105777Y-10012389D01*
X6105777Y-10012389D02*
X6096253Y-10031436D01*
X6096253Y-10031436D02*
X6086729Y-10040960D01*
X6086729Y-10040960D02*
X6067682Y-10050484D01*
X6067682Y-10050484D02*
X6048634Y-10050484D01*
X6048634Y-10050484D02*
X6029586Y-10040960D01*
X6029586Y-10040960D02*
X6020063Y-10031436D01*
X6020063Y-10031436D02*
X6010539Y-10012389D01*
X6010539Y-10012389D02*
X6001015Y-9974293D01*
X6001015Y-9974293D02*
X6001015Y-9926674D01*
X6001015Y-9926674D02*
X6010539Y-9888579D01*
X6010539Y-9888579D02*
X6020063Y-9869531D01*
X6020063Y-9869531D02*
X6029586Y-9860008D01*
X6029586Y-9860008D02*
X6048634Y-9850484D01*
X6201015Y-10031436D02*
X6210539Y-10040960D01*
X6210539Y-10040960D02*
X6201015Y-10050484D01*
X6201015Y-10050484D02*
X6191491Y-10040960D01*
X6191491Y-10040960D02*
X6201015Y-10031436D01*
X6201015Y-10031436D02*
X6201015Y-10050484D01*
X6334348Y-9850484D02*
X6353396Y-9850484D01*
X6353396Y-9850484D02*
X6372444Y-9860008D01*
X6372444Y-9860008D02*
X6381967Y-9869531D01*
X6381967Y-9869531D02*
X6391491Y-9888579D01*
X6391491Y-9888579D02*
X6401015Y-9926674D01*
X6401015Y-9926674D02*
X6401015Y-9974293D01*
X6401015Y-9974293D02*
X6391491Y-10012389D01*
X6391491Y-10012389D02*
X6381967Y-10031436D01*
X6381967Y-10031436D02*
X6372444Y-10040960D01*
X6372444Y-10040960D02*
X6353396Y-10050484D01*
X6353396Y-10050484D02*
X6334348Y-10050484D01*
X6334348Y-10050484D02*
X6315301Y-10040960D01*
X6315301Y-10040960D02*
X6305777Y-10031436D01*
X6305777Y-10031436D02*
X6296253Y-10012389D01*
X6296253Y-10012389D02*
X6286729Y-9974293D01*
X6286729Y-9974293D02*
X6286729Y-9926674D01*
X6286729Y-9926674D02*
X6296253Y-9888579D01*
X6296253Y-9888579D02*
X6305777Y-9869531D01*
X6305777Y-9869531D02*
X6315301Y-9860008D01*
X6315301Y-9860008D02*
X6334348Y-9850484D01*
X6467682Y-9850484D02*
X6591491Y-9850484D01*
X6591491Y-9850484D02*
X6524825Y-9926674D01*
X6524825Y-9926674D02*
X6553396Y-9926674D01*
X6553396Y-9926674D02*
X6572444Y-9936198D01*
X6572444Y-9936198D02*
X6581967Y-9945722D01*
X6581967Y-9945722D02*
X6591491Y-9964770D01*
X6591491Y-9964770D02*
X6591491Y-10012389D01*
X6591491Y-10012389D02*
X6581967Y-10031436D01*
X6581967Y-10031436D02*
X6572444Y-10040960D01*
X6572444Y-10040960D02*
X6553396Y-10050484D01*
X6553396Y-10050484D02*
X6496253Y-10050484D01*
X6496253Y-10050484D02*
X6477206Y-10040960D01*
X6477206Y-10040960D02*
X6467682Y-10031436D01*
X6686729Y-10050484D02*
X6724825Y-10050484D01*
X6724825Y-10050484D02*
X6743872Y-10040960D01*
X6743872Y-10040960D02*
X6753396Y-10031436D01*
X6753396Y-10031436D02*
X6772444Y-10002865D01*
X6772444Y-10002865D02*
X6781967Y-9964770D01*
X6781967Y-9964770D02*
X6781967Y-9888579D01*
X6781967Y-9888579D02*
X6772444Y-9869531D01*
X6772444Y-9869531D02*
X6762920Y-9860008D01*
X6762920Y-9860008D02*
X6743872Y-9850484D01*
X6743872Y-9850484D02*
X6705777Y-9850484D01*
X6705777Y-9850484D02*
X6686729Y-9860008D01*
X6686729Y-9860008D02*
X6677206Y-9869531D01*
X6677206Y-9869531D02*
X6667682Y-9888579D01*
X6667682Y-9888579D02*
X6667682Y-9936198D01*
X6667682Y-9936198D02*
X6677206Y-9955246D01*
X6677206Y-9955246D02*
X6686729Y-9964770D01*
X6686729Y-9964770D02*
X6705777Y-9974293D01*
X6705777Y-9974293D02*
X6743872Y-9974293D01*
X6743872Y-9974293D02*
X6762920Y-9964770D01*
X6762920Y-9964770D02*
X6772444Y-9955246D01*
X6772444Y-9955246D02*
X6781967Y-9936198D01*
X6953396Y-9917150D02*
X6953396Y-10050484D01*
X6905777Y-9840960D02*
X6858158Y-9983817D01*
X6858158Y-9983817D02*
X6981967Y-9983817D01*
X7048634Y-9850484D02*
X7048634Y-9888579D01*
X7124825Y-9850484D02*
X7124825Y-9888579D01*
X7420063Y-10126674D02*
X7410539Y-10117150D01*
X7410539Y-10117150D02*
X7391491Y-10088579D01*
X7391491Y-10088579D02*
X7381968Y-10069531D01*
X7381968Y-10069531D02*
X7372444Y-10040960D01*
X7372444Y-10040960D02*
X7362920Y-9993341D01*
X7362920Y-9993341D02*
X7362920Y-9955246D01*
X7362920Y-9955246D02*
X7372444Y-9907627D01*
X7372444Y-9907627D02*
X7381968Y-9879055D01*
X7381968Y-9879055D02*
X7391491Y-9860008D01*
X7391491Y-9860008D02*
X7410539Y-9831436D01*
X7410539Y-9831436D02*
X7420063Y-9821912D01*
X7601015Y-10050484D02*
X7486729Y-10050484D01*
X7543872Y-10050484D02*
X7543872Y-9850484D01*
X7543872Y-9850484D02*
X7524825Y-9879055D01*
X7524825Y-9879055D02*
X7505777Y-9898103D01*
X7505777Y-9898103D02*
X7486729Y-9907627D01*
X7772444Y-9850484D02*
X7734348Y-9850484D01*
X7734348Y-9850484D02*
X7715301Y-9860008D01*
X7715301Y-9860008D02*
X7705777Y-9869531D01*
X7705777Y-9869531D02*
X7686729Y-9898103D01*
X7686729Y-9898103D02*
X7677206Y-9936198D01*
X7677206Y-9936198D02*
X7677206Y-10012389D01*
X7677206Y-10012389D02*
X7686729Y-10031436D01*
X7686729Y-10031436D02*
X7696253Y-10040960D01*
X7696253Y-10040960D02*
X7715301Y-10050484D01*
X7715301Y-10050484D02*
X7753396Y-10050484D01*
X7753396Y-10050484D02*
X7772444Y-10040960D01*
X7772444Y-10040960D02*
X7781968Y-10031436D01*
X7781968Y-10031436D02*
X7791491Y-10012389D01*
X7791491Y-10012389D02*
X7791491Y-9964770D01*
X7791491Y-9964770D02*
X7781968Y-9945722D01*
X7781968Y-9945722D02*
X7772444Y-9936198D01*
X7772444Y-9936198D02*
X7753396Y-9926674D01*
X7753396Y-9926674D02*
X7715301Y-9926674D01*
X7715301Y-9926674D02*
X7696253Y-9936198D01*
X7696253Y-9936198D02*
X7686729Y-9945722D01*
X7686729Y-9945722D02*
X7677206Y-9964770D01*
X8029587Y-10050484D02*
X8029587Y-9850484D01*
X8115301Y-10050484D02*
X8115301Y-9945722D01*
X8115301Y-9945722D02*
X8105777Y-9926674D01*
X8105777Y-9926674D02*
X8086730Y-9917150D01*
X8086730Y-9917150D02*
X8058158Y-9917150D01*
X8058158Y-9917150D02*
X8039110Y-9926674D01*
X8039110Y-9926674D02*
X8029587Y-9936198D01*
X8239110Y-10050484D02*
X8220063Y-10040960D01*
X8220063Y-10040960D02*
X8210539Y-10031436D01*
X8210539Y-10031436D02*
X8201015Y-10012389D01*
X8201015Y-10012389D02*
X8201015Y-9955246D01*
X8201015Y-9955246D02*
X8210539Y-9936198D01*
X8210539Y-9936198D02*
X8220063Y-9926674D01*
X8220063Y-9926674D02*
X8239110Y-9917150D01*
X8239110Y-9917150D02*
X8267682Y-9917150D01*
X8267682Y-9917150D02*
X8286730Y-9926674D01*
X8286730Y-9926674D02*
X8296253Y-9936198D01*
X8296253Y-9936198D02*
X8305777Y-9955246D01*
X8305777Y-9955246D02*
X8305777Y-10012389D01*
X8305777Y-10012389D02*
X8296253Y-10031436D01*
X8296253Y-10031436D02*
X8286730Y-10040960D01*
X8286730Y-10040960D02*
X8267682Y-10050484D01*
X8267682Y-10050484D02*
X8239110Y-10050484D01*
X8420063Y-10050484D02*
X8401015Y-10040960D01*
X8401015Y-10040960D02*
X8391492Y-10021912D01*
X8391492Y-10021912D02*
X8391492Y-9850484D01*
X8572444Y-10040960D02*
X8553396Y-10050484D01*
X8553396Y-10050484D02*
X8515301Y-10050484D01*
X8515301Y-10050484D02*
X8496253Y-10040960D01*
X8496253Y-10040960D02*
X8486730Y-10021912D01*
X8486730Y-10021912D02*
X8486730Y-9945722D01*
X8486730Y-9945722D02*
X8496253Y-9926674D01*
X8496253Y-9926674D02*
X8515301Y-9917150D01*
X8515301Y-9917150D02*
X8553396Y-9917150D01*
X8553396Y-9917150D02*
X8572444Y-9926674D01*
X8572444Y-9926674D02*
X8581968Y-9945722D01*
X8581968Y-9945722D02*
X8581968Y-9964770D01*
X8581968Y-9964770D02*
X8486730Y-9983817D01*
X8658158Y-10040960D02*
X8677206Y-10050484D01*
X8677206Y-10050484D02*
X8715301Y-10050484D01*
X8715301Y-10050484D02*
X8734349Y-10040960D01*
X8734349Y-10040960D02*
X8743873Y-10021912D01*
X8743873Y-10021912D02*
X8743873Y-10012389D01*
X8743873Y-10012389D02*
X8734349Y-9993341D01*
X8734349Y-9993341D02*
X8715301Y-9983817D01*
X8715301Y-9983817D02*
X8686730Y-9983817D01*
X8686730Y-9983817D02*
X8667682Y-9974293D01*
X8667682Y-9974293D02*
X8658158Y-9955246D01*
X8658158Y-9955246D02*
X8658158Y-9945722D01*
X8658158Y-9945722D02*
X8667682Y-9926674D01*
X8667682Y-9926674D02*
X8686730Y-9917150D01*
X8686730Y-9917150D02*
X8715301Y-9917150D01*
X8715301Y-9917150D02*
X8734349Y-9926674D01*
X8810539Y-10126674D02*
X8820063Y-10117150D01*
X8820063Y-10117150D02*
X8839111Y-10088579D01*
X8839111Y-10088579D02*
X8848634Y-10069531D01*
X8848634Y-10069531D02*
X8858158Y-10040960D01*
X8858158Y-10040960D02*
X8867682Y-9993341D01*
X8867682Y-9993341D02*
X8867682Y-9955246D01*
X8867682Y-9955246D02*
X8858158Y-9907627D01*
X8858158Y-9907627D02*
X8848634Y-9879055D01*
X8848634Y-9879055D02*
X8839111Y-9860008D01*
X8839111Y-9860008D02*
X8820063Y-9831436D01*
X8820063Y-9831436D02*
X8810539Y-9821912D01*
D12*
X3770000Y-10148000D02*
X3770000Y-10298000D01*
X3695000Y-10223000D02*
X3845000Y-10223000D01*
D11*
X4210539Y-10314484D02*
X4096253Y-10314484D01*
X4153396Y-10314484D02*
X4153396Y-10114484D01*
X4153396Y-10114484D02*
X4134348Y-10143055D01*
X4134348Y-10143055D02*
X4115301Y-10162103D01*
X4115301Y-10162103D02*
X4096253Y-10171627D01*
X4296253Y-10295436D02*
X4305777Y-10304960D01*
X4305777Y-10304960D02*
X4296253Y-10314484D01*
X4296253Y-10314484D02*
X4286729Y-10304960D01*
X4286729Y-10304960D02*
X4296253Y-10295436D01*
X4296253Y-10295436D02*
X4296253Y-10314484D01*
X4486729Y-10114484D02*
X4391491Y-10114484D01*
X4391491Y-10114484D02*
X4381967Y-10209722D01*
X4381967Y-10209722D02*
X4391491Y-10200198D01*
X4391491Y-10200198D02*
X4410539Y-10190674D01*
X4410539Y-10190674D02*
X4458158Y-10190674D01*
X4458158Y-10190674D02*
X4477205Y-10200198D01*
X4477205Y-10200198D02*
X4486729Y-10209722D01*
X4486729Y-10209722D02*
X4496253Y-10228770D01*
X4496253Y-10228770D02*
X4496253Y-10276389D01*
X4496253Y-10276389D02*
X4486729Y-10295436D01*
X4486729Y-10295436D02*
X4477205Y-10304960D01*
X4477205Y-10304960D02*
X4458158Y-10314484D01*
X4458158Y-10314484D02*
X4410539Y-10314484D01*
X4410539Y-10314484D02*
X4391491Y-10304960D01*
X4391491Y-10304960D02*
X4381967Y-10295436D01*
X4620063Y-10114484D02*
X4639110Y-10114484D01*
X4639110Y-10114484D02*
X4658158Y-10124008D01*
X4658158Y-10124008D02*
X4667682Y-10133531D01*
X4667682Y-10133531D02*
X4677205Y-10152579D01*
X4677205Y-10152579D02*
X4686729Y-10190674D01*
X4686729Y-10190674D02*
X4686729Y-10238293D01*
X4686729Y-10238293D02*
X4677205Y-10276389D01*
X4677205Y-10276389D02*
X4667682Y-10295436D01*
X4667682Y-10295436D02*
X4658158Y-10304960D01*
X4658158Y-10304960D02*
X4639110Y-10314484D01*
X4639110Y-10314484D02*
X4620063Y-10314484D01*
X4620063Y-10314484D02*
X4601015Y-10304960D01*
X4601015Y-10304960D02*
X4591491Y-10295436D01*
X4591491Y-10295436D02*
X4581967Y-10276389D01*
X4581967Y-10276389D02*
X4572444Y-10238293D01*
X4572444Y-10238293D02*
X4572444Y-10190674D01*
X4572444Y-10190674D02*
X4581967Y-10152579D01*
X4581967Y-10152579D02*
X4591491Y-10133531D01*
X4591491Y-10133531D02*
X4601015Y-10124008D01*
X4601015Y-10124008D02*
X4620063Y-10114484D01*
X4810539Y-10114484D02*
X4829586Y-10114484D01*
X4829586Y-10114484D02*
X4848634Y-10124008D01*
X4848634Y-10124008D02*
X4858158Y-10133531D01*
X4858158Y-10133531D02*
X4867682Y-10152579D01*
X4867682Y-10152579D02*
X4877205Y-10190674D01*
X4877205Y-10190674D02*
X4877205Y-10238293D01*
X4877205Y-10238293D02*
X4867682Y-10276389D01*
X4867682Y-10276389D02*
X4858158Y-10295436D01*
X4858158Y-10295436D02*
X4848634Y-10304960D01*
X4848634Y-10304960D02*
X4829586Y-10314484D01*
X4829586Y-10314484D02*
X4810539Y-10314484D01*
X4810539Y-10314484D02*
X4791491Y-10304960D01*
X4791491Y-10304960D02*
X4781967Y-10295436D01*
X4781967Y-10295436D02*
X4772444Y-10276389D01*
X4772444Y-10276389D02*
X4762920Y-10238293D01*
X4762920Y-10238293D02*
X4762920Y-10190674D01*
X4762920Y-10190674D02*
X4772444Y-10152579D01*
X4772444Y-10152579D02*
X4781967Y-10133531D01*
X4781967Y-10133531D02*
X4791491Y-10124008D01*
X4791491Y-10124008D02*
X4810539Y-10114484D01*
X4962920Y-10314484D02*
X4962920Y-10181150D01*
X4962920Y-10200198D02*
X4972444Y-10190674D01*
X4972444Y-10190674D02*
X4991491Y-10181150D01*
X4991491Y-10181150D02*
X5020063Y-10181150D01*
X5020063Y-10181150D02*
X5039110Y-10190674D01*
X5039110Y-10190674D02*
X5048634Y-10209722D01*
X5048634Y-10209722D02*
X5048634Y-10314484D01*
X5048634Y-10209722D02*
X5058158Y-10190674D01*
X5058158Y-10190674D02*
X5077205Y-10181150D01*
X5077205Y-10181150D02*
X5105777Y-10181150D01*
X5105777Y-10181150D02*
X5124825Y-10190674D01*
X5124825Y-10190674D02*
X5134348Y-10209722D01*
X5134348Y-10209722D02*
X5134348Y-10314484D01*
X5229586Y-10314484D02*
X5229586Y-10181150D01*
X5229586Y-10200198D02*
X5239110Y-10190674D01*
X5239110Y-10190674D02*
X5258158Y-10181150D01*
X5258158Y-10181150D02*
X5286729Y-10181150D01*
X5286729Y-10181150D02*
X5305777Y-10190674D01*
X5305777Y-10190674D02*
X5315301Y-10209722D01*
X5315301Y-10209722D02*
X5315301Y-10314484D01*
X5315301Y-10209722D02*
X5324825Y-10190674D01*
X5324825Y-10190674D02*
X5343872Y-10181150D01*
X5343872Y-10181150D02*
X5372444Y-10181150D01*
X5372444Y-10181150D02*
X5391491Y-10190674D01*
X5391491Y-10190674D02*
X5401015Y-10209722D01*
X5401015Y-10209722D02*
X5401015Y-10314484D01*
X5791491Y-10104960D02*
X5620063Y-10362103D01*
X6048634Y-10114484D02*
X6067682Y-10114484D01*
X6067682Y-10114484D02*
X6086729Y-10124008D01*
X6086729Y-10124008D02*
X6096253Y-10133531D01*
X6096253Y-10133531D02*
X6105777Y-10152579D01*
X6105777Y-10152579D02*
X6115301Y-10190674D01*
X6115301Y-10190674D02*
X6115301Y-10238293D01*
X6115301Y-10238293D02*
X6105777Y-10276389D01*
X6105777Y-10276389D02*
X6096253Y-10295436D01*
X6096253Y-10295436D02*
X6086729Y-10304960D01*
X6086729Y-10304960D02*
X6067682Y-10314484D01*
X6067682Y-10314484D02*
X6048634Y-10314484D01*
X6048634Y-10314484D02*
X6029586Y-10304960D01*
X6029586Y-10304960D02*
X6020063Y-10295436D01*
X6020063Y-10295436D02*
X6010539Y-10276389D01*
X6010539Y-10276389D02*
X6001015Y-10238293D01*
X6001015Y-10238293D02*
X6001015Y-10190674D01*
X6001015Y-10190674D02*
X6010539Y-10152579D01*
X6010539Y-10152579D02*
X6020063Y-10133531D01*
X6020063Y-10133531D02*
X6029586Y-10124008D01*
X6029586Y-10124008D02*
X6048634Y-10114484D01*
X6201015Y-10295436D02*
X6210539Y-10304960D01*
X6210539Y-10304960D02*
X6201015Y-10314484D01*
X6201015Y-10314484D02*
X6191491Y-10304960D01*
X6191491Y-10304960D02*
X6201015Y-10295436D01*
X6201015Y-10295436D02*
X6201015Y-10314484D01*
X6334348Y-10114484D02*
X6353396Y-10114484D01*
X6353396Y-10114484D02*
X6372444Y-10124008D01*
X6372444Y-10124008D02*
X6381967Y-10133531D01*
X6381967Y-10133531D02*
X6391491Y-10152579D01*
X6391491Y-10152579D02*
X6401015Y-10190674D01*
X6401015Y-10190674D02*
X6401015Y-10238293D01*
X6401015Y-10238293D02*
X6391491Y-10276389D01*
X6391491Y-10276389D02*
X6381967Y-10295436D01*
X6381967Y-10295436D02*
X6372444Y-10304960D01*
X6372444Y-10304960D02*
X6353396Y-10314484D01*
X6353396Y-10314484D02*
X6334348Y-10314484D01*
X6334348Y-10314484D02*
X6315301Y-10304960D01*
X6315301Y-10304960D02*
X6305777Y-10295436D01*
X6305777Y-10295436D02*
X6296253Y-10276389D01*
X6296253Y-10276389D02*
X6286729Y-10238293D01*
X6286729Y-10238293D02*
X6286729Y-10190674D01*
X6286729Y-10190674D02*
X6296253Y-10152579D01*
X6296253Y-10152579D02*
X6305777Y-10133531D01*
X6305777Y-10133531D02*
X6315301Y-10124008D01*
X6315301Y-10124008D02*
X6334348Y-10114484D01*
X6581967Y-10114484D02*
X6486729Y-10114484D01*
X6486729Y-10114484D02*
X6477206Y-10209722D01*
X6477206Y-10209722D02*
X6486729Y-10200198D01*
X6486729Y-10200198D02*
X6505777Y-10190674D01*
X6505777Y-10190674D02*
X6553396Y-10190674D01*
X6553396Y-10190674D02*
X6572444Y-10200198D01*
X6572444Y-10200198D02*
X6581967Y-10209722D01*
X6581967Y-10209722D02*
X6591491Y-10228770D01*
X6591491Y-10228770D02*
X6591491Y-10276389D01*
X6591491Y-10276389D02*
X6581967Y-10295436D01*
X6581967Y-10295436D02*
X6572444Y-10304960D01*
X6572444Y-10304960D02*
X6553396Y-10314484D01*
X6553396Y-10314484D02*
X6505777Y-10314484D01*
X6505777Y-10314484D02*
X6486729Y-10304960D01*
X6486729Y-10304960D02*
X6477206Y-10295436D01*
X6686729Y-10314484D02*
X6724825Y-10314484D01*
X6724825Y-10314484D02*
X6743872Y-10304960D01*
X6743872Y-10304960D02*
X6753396Y-10295436D01*
X6753396Y-10295436D02*
X6772444Y-10266865D01*
X6772444Y-10266865D02*
X6781967Y-10228770D01*
X6781967Y-10228770D02*
X6781967Y-10152579D01*
X6781967Y-10152579D02*
X6772444Y-10133531D01*
X6772444Y-10133531D02*
X6762920Y-10124008D01*
X6762920Y-10124008D02*
X6743872Y-10114484D01*
X6743872Y-10114484D02*
X6705777Y-10114484D01*
X6705777Y-10114484D02*
X6686729Y-10124008D01*
X6686729Y-10124008D02*
X6677206Y-10133531D01*
X6677206Y-10133531D02*
X6667682Y-10152579D01*
X6667682Y-10152579D02*
X6667682Y-10200198D01*
X6667682Y-10200198D02*
X6677206Y-10219246D01*
X6677206Y-10219246D02*
X6686729Y-10228770D01*
X6686729Y-10228770D02*
X6705777Y-10238293D01*
X6705777Y-10238293D02*
X6743872Y-10238293D01*
X6743872Y-10238293D02*
X6762920Y-10228770D01*
X6762920Y-10228770D02*
X6772444Y-10219246D01*
X6772444Y-10219246D02*
X6781967Y-10200198D01*
X6972444Y-10314484D02*
X6858158Y-10314484D01*
X6915301Y-10314484D02*
X6915301Y-10114484D01*
X6915301Y-10114484D02*
X6896253Y-10143055D01*
X6896253Y-10143055D02*
X6877206Y-10162103D01*
X6877206Y-10162103D02*
X6858158Y-10171627D01*
X7048634Y-10114484D02*
X7048634Y-10152579D01*
X7124825Y-10114484D02*
X7124825Y-10152579D01*
X7420063Y-10390674D02*
X7410539Y-10381150D01*
X7410539Y-10381150D02*
X7391491Y-10352579D01*
X7391491Y-10352579D02*
X7381968Y-10333531D01*
X7381968Y-10333531D02*
X7372444Y-10304960D01*
X7372444Y-10304960D02*
X7362920Y-10257341D01*
X7362920Y-10257341D02*
X7362920Y-10219246D01*
X7362920Y-10219246D02*
X7372444Y-10171627D01*
X7372444Y-10171627D02*
X7381968Y-10143055D01*
X7381968Y-10143055D02*
X7391491Y-10124008D01*
X7391491Y-10124008D02*
X7410539Y-10095436D01*
X7410539Y-10095436D02*
X7420063Y-10085912D01*
X7524825Y-10200198D02*
X7505777Y-10190674D01*
X7505777Y-10190674D02*
X7496253Y-10181150D01*
X7496253Y-10181150D02*
X7486729Y-10162103D01*
X7486729Y-10162103D02*
X7486729Y-10152579D01*
X7486729Y-10152579D02*
X7496253Y-10133531D01*
X7496253Y-10133531D02*
X7505777Y-10124008D01*
X7505777Y-10124008D02*
X7524825Y-10114484D01*
X7524825Y-10114484D02*
X7562920Y-10114484D01*
X7562920Y-10114484D02*
X7581968Y-10124008D01*
X7581968Y-10124008D02*
X7591491Y-10133531D01*
X7591491Y-10133531D02*
X7601015Y-10152579D01*
X7601015Y-10152579D02*
X7601015Y-10162103D01*
X7601015Y-10162103D02*
X7591491Y-10181150D01*
X7591491Y-10181150D02*
X7581968Y-10190674D01*
X7581968Y-10190674D02*
X7562920Y-10200198D01*
X7562920Y-10200198D02*
X7524825Y-10200198D01*
X7524825Y-10200198D02*
X7505777Y-10209722D01*
X7505777Y-10209722D02*
X7496253Y-10219246D01*
X7496253Y-10219246D02*
X7486729Y-10238293D01*
X7486729Y-10238293D02*
X7486729Y-10276389D01*
X7486729Y-10276389D02*
X7496253Y-10295436D01*
X7496253Y-10295436D02*
X7505777Y-10304960D01*
X7505777Y-10304960D02*
X7524825Y-10314484D01*
X7524825Y-10314484D02*
X7562920Y-10314484D01*
X7562920Y-10314484D02*
X7581968Y-10304960D01*
X7581968Y-10304960D02*
X7591491Y-10295436D01*
X7591491Y-10295436D02*
X7601015Y-10276389D01*
X7601015Y-10276389D02*
X7601015Y-10238293D01*
X7601015Y-10238293D02*
X7591491Y-10219246D01*
X7591491Y-10219246D02*
X7581968Y-10209722D01*
X7581968Y-10209722D02*
X7562920Y-10200198D01*
X7839110Y-10314484D02*
X7839110Y-10114484D01*
X7924825Y-10314484D02*
X7924825Y-10209722D01*
X7924825Y-10209722D02*
X7915301Y-10190674D01*
X7915301Y-10190674D02*
X7896253Y-10181150D01*
X7896253Y-10181150D02*
X7867682Y-10181150D01*
X7867682Y-10181150D02*
X7848634Y-10190674D01*
X7848634Y-10190674D02*
X7839110Y-10200198D01*
X8048634Y-10314484D02*
X8029587Y-10304960D01*
X8029587Y-10304960D02*
X8020063Y-10295436D01*
X8020063Y-10295436D02*
X8010539Y-10276389D01*
X8010539Y-10276389D02*
X8010539Y-10219246D01*
X8010539Y-10219246D02*
X8020063Y-10200198D01*
X8020063Y-10200198D02*
X8029587Y-10190674D01*
X8029587Y-10190674D02*
X8048634Y-10181150D01*
X8048634Y-10181150D02*
X8077206Y-10181150D01*
X8077206Y-10181150D02*
X8096253Y-10190674D01*
X8096253Y-10190674D02*
X8105777Y-10200198D01*
X8105777Y-10200198D02*
X8115301Y-10219246D01*
X8115301Y-10219246D02*
X8115301Y-10276389D01*
X8115301Y-10276389D02*
X8105777Y-10295436D01*
X8105777Y-10295436D02*
X8096253Y-10304960D01*
X8096253Y-10304960D02*
X8077206Y-10314484D01*
X8077206Y-10314484D02*
X8048634Y-10314484D01*
X8229587Y-10314484D02*
X8210539Y-10304960D01*
X8210539Y-10304960D02*
X8201015Y-10285912D01*
X8201015Y-10285912D02*
X8201015Y-10114484D01*
X8381968Y-10304960D02*
X8362920Y-10314484D01*
X8362920Y-10314484D02*
X8324825Y-10314484D01*
X8324825Y-10314484D02*
X8305777Y-10304960D01*
X8305777Y-10304960D02*
X8296253Y-10285912D01*
X8296253Y-10285912D02*
X8296253Y-10209722D01*
X8296253Y-10209722D02*
X8305777Y-10190674D01*
X8305777Y-10190674D02*
X8324825Y-10181150D01*
X8324825Y-10181150D02*
X8362920Y-10181150D01*
X8362920Y-10181150D02*
X8381968Y-10190674D01*
X8381968Y-10190674D02*
X8391492Y-10209722D01*
X8391492Y-10209722D02*
X8391492Y-10228770D01*
X8391492Y-10228770D02*
X8296253Y-10247817D01*
X8467682Y-10304960D02*
X8486730Y-10314484D01*
X8486730Y-10314484D02*
X8524825Y-10314484D01*
X8524825Y-10314484D02*
X8543873Y-10304960D01*
X8543873Y-10304960D02*
X8553396Y-10285912D01*
X8553396Y-10285912D02*
X8553396Y-10276389D01*
X8553396Y-10276389D02*
X8543873Y-10257341D01*
X8543873Y-10257341D02*
X8524825Y-10247817D01*
X8524825Y-10247817D02*
X8496253Y-10247817D01*
X8496253Y-10247817D02*
X8477206Y-10238293D01*
X8477206Y-10238293D02*
X8467682Y-10219246D01*
X8467682Y-10219246D02*
X8467682Y-10209722D01*
X8467682Y-10209722D02*
X8477206Y-10190674D01*
X8477206Y-10190674D02*
X8496253Y-10181150D01*
X8496253Y-10181150D02*
X8524825Y-10181150D01*
X8524825Y-10181150D02*
X8543873Y-10190674D01*
X8620063Y-10390674D02*
X8629587Y-10381150D01*
X8629587Y-10381150D02*
X8648634Y-10352579D01*
X8648634Y-10352579D02*
X8658158Y-10333531D01*
X8658158Y-10333531D02*
X8667682Y-10304960D01*
X8667682Y-10304960D02*
X8677206Y-10257341D01*
X8677206Y-10257341D02*
X8677206Y-10219246D01*
X8677206Y-10219246D02*
X8667682Y-10171627D01*
X8667682Y-10171627D02*
X8658158Y-10143055D01*
X8658158Y-10143055D02*
X8648634Y-10124008D01*
X8648634Y-10124008D02*
X8629587Y-10095436D01*
X8629587Y-10095436D02*
X8620063Y-10085912D01*
X3815711Y-10563711D02*
X3815711Y-10422289D01*
X3674289Y-10422289D01*
X3674289Y-10563711D01*
X3815711Y-10563711D01*
X4096253Y-10403531D02*
X4105777Y-10394008D01*
X4105777Y-10394008D02*
X4124824Y-10384484D01*
X4124824Y-10384484D02*
X4172443Y-10384484D01*
X4172443Y-10384484D02*
X4191491Y-10394008D01*
X4191491Y-10394008D02*
X4201015Y-10403531D01*
X4201015Y-10403531D02*
X4210539Y-10422579D01*
X4210539Y-10422579D02*
X4210539Y-10441627D01*
X4210539Y-10441627D02*
X4201015Y-10470198D01*
X4201015Y-10470198D02*
X4086729Y-10584484D01*
X4086729Y-10584484D02*
X4210539Y-10584484D01*
X4296253Y-10565436D02*
X4305777Y-10574960D01*
X4305777Y-10574960D02*
X4296253Y-10584484D01*
X4296253Y-10584484D02*
X4286729Y-10574960D01*
X4286729Y-10574960D02*
X4296253Y-10565436D01*
X4296253Y-10565436D02*
X4296253Y-10584484D01*
X4372444Y-10384484D02*
X4505777Y-10384484D01*
X4505777Y-10384484D02*
X4420063Y-10584484D01*
X4620063Y-10384484D02*
X4639110Y-10384484D01*
X4639110Y-10384484D02*
X4658158Y-10394008D01*
X4658158Y-10394008D02*
X4667682Y-10403531D01*
X4667682Y-10403531D02*
X4677205Y-10422579D01*
X4677205Y-10422579D02*
X4686729Y-10460674D01*
X4686729Y-10460674D02*
X4686729Y-10508293D01*
X4686729Y-10508293D02*
X4677205Y-10546389D01*
X4677205Y-10546389D02*
X4667682Y-10565436D01*
X4667682Y-10565436D02*
X4658158Y-10574960D01*
X4658158Y-10574960D02*
X4639110Y-10584484D01*
X4639110Y-10584484D02*
X4620063Y-10584484D01*
X4620063Y-10584484D02*
X4601015Y-10574960D01*
X4601015Y-10574960D02*
X4591491Y-10565436D01*
X4591491Y-10565436D02*
X4581967Y-10546389D01*
X4581967Y-10546389D02*
X4572444Y-10508293D01*
X4572444Y-10508293D02*
X4572444Y-10460674D01*
X4572444Y-10460674D02*
X4581967Y-10422579D01*
X4581967Y-10422579D02*
X4591491Y-10403531D01*
X4591491Y-10403531D02*
X4601015Y-10394008D01*
X4601015Y-10394008D02*
X4620063Y-10384484D01*
X4810539Y-10384484D02*
X4829586Y-10384484D01*
X4829586Y-10384484D02*
X4848634Y-10394008D01*
X4848634Y-10394008D02*
X4858158Y-10403531D01*
X4858158Y-10403531D02*
X4867682Y-10422579D01*
X4867682Y-10422579D02*
X4877205Y-10460674D01*
X4877205Y-10460674D02*
X4877205Y-10508293D01*
X4877205Y-10508293D02*
X4867682Y-10546389D01*
X4867682Y-10546389D02*
X4858158Y-10565436D01*
X4858158Y-10565436D02*
X4848634Y-10574960D01*
X4848634Y-10574960D02*
X4829586Y-10584484D01*
X4829586Y-10584484D02*
X4810539Y-10584484D01*
X4810539Y-10584484D02*
X4791491Y-10574960D01*
X4791491Y-10574960D02*
X4781967Y-10565436D01*
X4781967Y-10565436D02*
X4772444Y-10546389D01*
X4772444Y-10546389D02*
X4762920Y-10508293D01*
X4762920Y-10508293D02*
X4762920Y-10460674D01*
X4762920Y-10460674D02*
X4772444Y-10422579D01*
X4772444Y-10422579D02*
X4781967Y-10403531D01*
X4781967Y-10403531D02*
X4791491Y-10394008D01*
X4791491Y-10394008D02*
X4810539Y-10384484D01*
X4962920Y-10584484D02*
X4962920Y-10451150D01*
X4962920Y-10470198D02*
X4972444Y-10460674D01*
X4972444Y-10460674D02*
X4991491Y-10451150D01*
X4991491Y-10451150D02*
X5020063Y-10451150D01*
X5020063Y-10451150D02*
X5039110Y-10460674D01*
X5039110Y-10460674D02*
X5048634Y-10479722D01*
X5048634Y-10479722D02*
X5048634Y-10584484D01*
X5048634Y-10479722D02*
X5058158Y-10460674D01*
X5058158Y-10460674D02*
X5077205Y-10451150D01*
X5077205Y-10451150D02*
X5105777Y-10451150D01*
X5105777Y-10451150D02*
X5124825Y-10460674D01*
X5124825Y-10460674D02*
X5134348Y-10479722D01*
X5134348Y-10479722D02*
X5134348Y-10584484D01*
X5229586Y-10584484D02*
X5229586Y-10451150D01*
X5229586Y-10470198D02*
X5239110Y-10460674D01*
X5239110Y-10460674D02*
X5258158Y-10451150D01*
X5258158Y-10451150D02*
X5286729Y-10451150D01*
X5286729Y-10451150D02*
X5305777Y-10460674D01*
X5305777Y-10460674D02*
X5315301Y-10479722D01*
X5315301Y-10479722D02*
X5315301Y-10584484D01*
X5315301Y-10479722D02*
X5324825Y-10460674D01*
X5324825Y-10460674D02*
X5343872Y-10451150D01*
X5343872Y-10451150D02*
X5372444Y-10451150D01*
X5372444Y-10451150D02*
X5391491Y-10460674D01*
X5391491Y-10460674D02*
X5401015Y-10479722D01*
X5401015Y-10479722D02*
X5401015Y-10584484D01*
X5791491Y-10374960D02*
X5620063Y-10632103D01*
X6048634Y-10384484D02*
X6067682Y-10384484D01*
X6067682Y-10384484D02*
X6086729Y-10394008D01*
X6086729Y-10394008D02*
X6096253Y-10403531D01*
X6096253Y-10403531D02*
X6105777Y-10422579D01*
X6105777Y-10422579D02*
X6115301Y-10460674D01*
X6115301Y-10460674D02*
X6115301Y-10508293D01*
X6115301Y-10508293D02*
X6105777Y-10546389D01*
X6105777Y-10546389D02*
X6096253Y-10565436D01*
X6096253Y-10565436D02*
X6086729Y-10574960D01*
X6086729Y-10574960D02*
X6067682Y-10584484D01*
X6067682Y-10584484D02*
X6048634Y-10584484D01*
X6048634Y-10584484D02*
X6029586Y-10574960D01*
X6029586Y-10574960D02*
X6020063Y-10565436D01*
X6020063Y-10565436D02*
X6010539Y-10546389D01*
X6010539Y-10546389D02*
X6001015Y-10508293D01*
X6001015Y-10508293D02*
X6001015Y-10460674D01*
X6001015Y-10460674D02*
X6010539Y-10422579D01*
X6010539Y-10422579D02*
X6020063Y-10403531D01*
X6020063Y-10403531D02*
X6029586Y-10394008D01*
X6029586Y-10394008D02*
X6048634Y-10384484D01*
X6201015Y-10565436D02*
X6210539Y-10574960D01*
X6210539Y-10574960D02*
X6201015Y-10584484D01*
X6201015Y-10584484D02*
X6191491Y-10574960D01*
X6191491Y-10574960D02*
X6201015Y-10565436D01*
X6201015Y-10565436D02*
X6201015Y-10584484D01*
X6401015Y-10584484D02*
X6286729Y-10584484D01*
X6343872Y-10584484D02*
X6343872Y-10384484D01*
X6343872Y-10384484D02*
X6324825Y-10413055D01*
X6324825Y-10413055D02*
X6305777Y-10432103D01*
X6305777Y-10432103D02*
X6286729Y-10441627D01*
X6524825Y-10384484D02*
X6543872Y-10384484D01*
X6543872Y-10384484D02*
X6562920Y-10394008D01*
X6562920Y-10394008D02*
X6572444Y-10403531D01*
X6572444Y-10403531D02*
X6581967Y-10422579D01*
X6581967Y-10422579D02*
X6591491Y-10460674D01*
X6591491Y-10460674D02*
X6591491Y-10508293D01*
X6591491Y-10508293D02*
X6581967Y-10546389D01*
X6581967Y-10546389D02*
X6572444Y-10565436D01*
X6572444Y-10565436D02*
X6562920Y-10574960D01*
X6562920Y-10574960D02*
X6543872Y-10584484D01*
X6543872Y-10584484D02*
X6524825Y-10584484D01*
X6524825Y-10584484D02*
X6505777Y-10574960D01*
X6505777Y-10574960D02*
X6496253Y-10565436D01*
X6496253Y-10565436D02*
X6486729Y-10546389D01*
X6486729Y-10546389D02*
X6477206Y-10508293D01*
X6477206Y-10508293D02*
X6477206Y-10460674D01*
X6477206Y-10460674D02*
X6486729Y-10422579D01*
X6486729Y-10422579D02*
X6496253Y-10403531D01*
X6496253Y-10403531D02*
X6505777Y-10394008D01*
X6505777Y-10394008D02*
X6524825Y-10384484D01*
X6762920Y-10384484D02*
X6724825Y-10384484D01*
X6724825Y-10384484D02*
X6705777Y-10394008D01*
X6705777Y-10394008D02*
X6696253Y-10403531D01*
X6696253Y-10403531D02*
X6677206Y-10432103D01*
X6677206Y-10432103D02*
X6667682Y-10470198D01*
X6667682Y-10470198D02*
X6667682Y-10546389D01*
X6667682Y-10546389D02*
X6677206Y-10565436D01*
X6677206Y-10565436D02*
X6686729Y-10574960D01*
X6686729Y-10574960D02*
X6705777Y-10584484D01*
X6705777Y-10584484D02*
X6743872Y-10584484D01*
X6743872Y-10584484D02*
X6762920Y-10574960D01*
X6762920Y-10574960D02*
X6772444Y-10565436D01*
X6772444Y-10565436D02*
X6781967Y-10546389D01*
X6781967Y-10546389D02*
X6781967Y-10498770D01*
X6781967Y-10498770D02*
X6772444Y-10479722D01*
X6772444Y-10479722D02*
X6762920Y-10470198D01*
X6762920Y-10470198D02*
X6743872Y-10460674D01*
X6743872Y-10460674D02*
X6705777Y-10460674D01*
X6705777Y-10460674D02*
X6686729Y-10470198D01*
X6686729Y-10470198D02*
X6677206Y-10479722D01*
X6677206Y-10479722D02*
X6667682Y-10498770D01*
X6848634Y-10384484D02*
X6972444Y-10384484D01*
X6972444Y-10384484D02*
X6905777Y-10460674D01*
X6905777Y-10460674D02*
X6934348Y-10460674D01*
X6934348Y-10460674D02*
X6953396Y-10470198D01*
X6953396Y-10470198D02*
X6962920Y-10479722D01*
X6962920Y-10479722D02*
X6972444Y-10498770D01*
X6972444Y-10498770D02*
X6972444Y-10546389D01*
X6972444Y-10546389D02*
X6962920Y-10565436D01*
X6962920Y-10565436D02*
X6953396Y-10574960D01*
X6953396Y-10574960D02*
X6934348Y-10584484D01*
X6934348Y-10584484D02*
X6877206Y-10584484D01*
X6877206Y-10584484D02*
X6858158Y-10574960D01*
X6858158Y-10574960D02*
X6848634Y-10565436D01*
X7048634Y-10384484D02*
X7048634Y-10422579D01*
X7124825Y-10384484D02*
X7124825Y-10422579D01*
X7420063Y-10660674D02*
X7410539Y-10651150D01*
X7410539Y-10651150D02*
X7391491Y-10622579D01*
X7391491Y-10622579D02*
X7381968Y-10603531D01*
X7381968Y-10603531D02*
X7372444Y-10574960D01*
X7372444Y-10574960D02*
X7362920Y-10527341D01*
X7362920Y-10527341D02*
X7362920Y-10489246D01*
X7362920Y-10489246D02*
X7372444Y-10441627D01*
X7372444Y-10441627D02*
X7381968Y-10413055D01*
X7381968Y-10413055D02*
X7391491Y-10394008D01*
X7391491Y-10394008D02*
X7410539Y-10365436D01*
X7410539Y-10365436D02*
X7420063Y-10355912D01*
X7486729Y-10403531D02*
X7496253Y-10394008D01*
X7496253Y-10394008D02*
X7515301Y-10384484D01*
X7515301Y-10384484D02*
X7562920Y-10384484D01*
X7562920Y-10384484D02*
X7581968Y-10394008D01*
X7581968Y-10394008D02*
X7591491Y-10403531D01*
X7591491Y-10403531D02*
X7601015Y-10422579D01*
X7601015Y-10422579D02*
X7601015Y-10441627D01*
X7601015Y-10441627D02*
X7591491Y-10470198D01*
X7591491Y-10470198D02*
X7477206Y-10584484D01*
X7477206Y-10584484D02*
X7601015Y-10584484D01*
X7839110Y-10584484D02*
X7839110Y-10384484D01*
X7924825Y-10584484D02*
X7924825Y-10479722D01*
X7924825Y-10479722D02*
X7915301Y-10460674D01*
X7915301Y-10460674D02*
X7896253Y-10451150D01*
X7896253Y-10451150D02*
X7867682Y-10451150D01*
X7867682Y-10451150D02*
X7848634Y-10460674D01*
X7848634Y-10460674D02*
X7839110Y-10470198D01*
X8048634Y-10584484D02*
X8029587Y-10574960D01*
X8029587Y-10574960D02*
X8020063Y-10565436D01*
X8020063Y-10565436D02*
X8010539Y-10546389D01*
X8010539Y-10546389D02*
X8010539Y-10489246D01*
X8010539Y-10489246D02*
X8020063Y-10470198D01*
X8020063Y-10470198D02*
X8029587Y-10460674D01*
X8029587Y-10460674D02*
X8048634Y-10451150D01*
X8048634Y-10451150D02*
X8077206Y-10451150D01*
X8077206Y-10451150D02*
X8096253Y-10460674D01*
X8096253Y-10460674D02*
X8105777Y-10470198D01*
X8105777Y-10470198D02*
X8115301Y-10489246D01*
X8115301Y-10489246D02*
X8115301Y-10546389D01*
X8115301Y-10546389D02*
X8105777Y-10565436D01*
X8105777Y-10565436D02*
X8096253Y-10574960D01*
X8096253Y-10574960D02*
X8077206Y-10584484D01*
X8077206Y-10584484D02*
X8048634Y-10584484D01*
X8229587Y-10584484D02*
X8210539Y-10574960D01*
X8210539Y-10574960D02*
X8201015Y-10555912D01*
X8201015Y-10555912D02*
X8201015Y-10384484D01*
X8381968Y-10574960D02*
X8362920Y-10584484D01*
X8362920Y-10584484D02*
X8324825Y-10584484D01*
X8324825Y-10584484D02*
X8305777Y-10574960D01*
X8305777Y-10574960D02*
X8296253Y-10555912D01*
X8296253Y-10555912D02*
X8296253Y-10479722D01*
X8296253Y-10479722D02*
X8305777Y-10460674D01*
X8305777Y-10460674D02*
X8324825Y-10451150D01*
X8324825Y-10451150D02*
X8362920Y-10451150D01*
X8362920Y-10451150D02*
X8381968Y-10460674D01*
X8381968Y-10460674D02*
X8391492Y-10479722D01*
X8391492Y-10479722D02*
X8391492Y-10498770D01*
X8391492Y-10498770D02*
X8296253Y-10517817D01*
X8467682Y-10574960D02*
X8486730Y-10584484D01*
X8486730Y-10584484D02*
X8524825Y-10584484D01*
X8524825Y-10584484D02*
X8543873Y-10574960D01*
X8543873Y-10574960D02*
X8553396Y-10555912D01*
X8553396Y-10555912D02*
X8553396Y-10546389D01*
X8553396Y-10546389D02*
X8543873Y-10527341D01*
X8543873Y-10527341D02*
X8524825Y-10517817D01*
X8524825Y-10517817D02*
X8496253Y-10517817D01*
X8496253Y-10517817D02*
X8477206Y-10508293D01*
X8477206Y-10508293D02*
X8467682Y-10489246D01*
X8467682Y-10489246D02*
X8467682Y-10479722D01*
X8467682Y-10479722D02*
X8477206Y-10460674D01*
X8477206Y-10460674D02*
X8496253Y-10451150D01*
X8496253Y-10451150D02*
X8524825Y-10451150D01*
X8524825Y-10451150D02*
X8543873Y-10460674D01*
X8620063Y-10660674D02*
X8629587Y-10651150D01*
X8629587Y-10651150D02*
X8648634Y-10622579D01*
X8648634Y-10622579D02*
X8658158Y-10603531D01*
X8658158Y-10603531D02*
X8667682Y-10574960D01*
X8667682Y-10574960D02*
X8677206Y-10527341D01*
X8677206Y-10527341D02*
X8677206Y-10489246D01*
X8677206Y-10489246D02*
X8667682Y-10441627D01*
X8667682Y-10441627D02*
X8658158Y-10413055D01*
X8658158Y-10413055D02*
X8648634Y-10394008D01*
X8648634Y-10394008D02*
X8629587Y-10365436D01*
X8629587Y-10365436D02*
X8620063Y-10355912D01*
M02*
