G04 #@! TF.GenerationSoftware,KiCad,Pcbnew,8.0.9-8.0.9-0~ubuntu22.04.1*
G04 #@! TF.CreationDate,2025-04-03T00:10:20-07:00*
G04 #@! TF.ProjectId,HBD1E,48424431-452e-46b6-9963-61645f706362,rev?*
G04 #@! TF.SameCoordinates,Original*
G04 #@! TF.FileFunction,Copper,L2,Bot*
G04 #@! TF.FilePolarity,Positive*
%FSLAX46Y46*%
G04 Gerber Fmt 4.6, Leading zero omitted, Abs format (unit mm)*
G04 Created by KiCad (PCBNEW 8.0.9-8.0.9-0~ubuntu22.04.1) date 2025-04-03 00:10:20*
%MOMM*%
%LPD*%
G01*
G04 APERTURE LIST*
G04 Aperture macros list*
%AMRoundRect*
0 Rectangle with rounded corners*
0 $1 Rounding radius*
0 $2 $3 $4 $5 $6 $7 $8 $9 X,Y pos of 4 corners*
0 Add a 4 corners polygon primitive as box body*
4,1,4,$2,$3,$4,$5,$6,$7,$8,$9,$2,$3,0*
0 Add four circle primitives for the rounded corners*
1,1,$1+$1,$2,$3*
1,1,$1+$1,$4,$5*
1,1,$1+$1,$6,$7*
1,1,$1+$1,$8,$9*
0 Add four rect primitives between the rounded corners*
20,1,$1+$1,$2,$3,$4,$5,0*
20,1,$1+$1,$4,$5,$6,$7,0*
20,1,$1+$1,$6,$7,$8,$9,0*
20,1,$1+$1,$8,$9,$2,$3,0*%
G04 Aperture macros list end*
G04 #@! TA.AperFunction,ComponentPad*
%ADD10C,3.100000*%
G04 #@! TD*
G04 #@! TA.AperFunction,ConnectorPad*
%ADD11C,5.400000*%
G04 #@! TD*
G04 #@! TA.AperFunction,ComponentPad*
%ADD12R,4.500000X1.905000*%
G04 #@! TD*
G04 #@! TA.AperFunction,ComponentPad*
%ADD13O,4.500000X1.905000*%
G04 #@! TD*
G04 #@! TA.AperFunction,ComponentPad*
%ADD14R,1.500000X1.500000*%
G04 #@! TD*
G04 #@! TA.AperFunction,ComponentPad*
%ADD15C,1.500000*%
G04 #@! TD*
G04 #@! TA.AperFunction,ComponentPad*
%ADD16R,1.700000X1.700000*%
G04 #@! TD*
G04 #@! TA.AperFunction,ComponentPad*
%ADD17O,1.700000X1.700000*%
G04 #@! TD*
G04 #@! TA.AperFunction,SMDPad,CuDef*
%ADD18R,4.000000X4.000000*%
G04 #@! TD*
G04 #@! TA.AperFunction,SMDPad,CuDef*
%ADD19RoundRect,0.250000X0.450000X-0.350000X0.450000X0.350000X-0.450000X0.350000X-0.450000X-0.350000X0*%
G04 #@! TD*
G04 #@! TA.AperFunction,SMDPad,CuDef*
%ADD20RoundRect,0.250000X-0.450000X0.350000X-0.450000X-0.350000X0.450000X-0.350000X0.450000X0.350000X0*%
G04 #@! TD*
G04 #@! TA.AperFunction,SMDPad,CuDef*
%ADD21RoundRect,0.250000X0.475000X-0.337500X0.475000X0.337500X-0.475000X0.337500X-0.475000X-0.337500X0*%
G04 #@! TD*
G04 #@! TA.AperFunction,SMDPad,CuDef*
%ADD22RoundRect,0.250000X0.337500X0.475000X-0.337500X0.475000X-0.337500X-0.475000X0.337500X-0.475000X0*%
G04 #@! TD*
G04 #@! TA.AperFunction,SMDPad,CuDef*
%ADD23RoundRect,0.250000X-0.350000X-0.450000X0.350000X-0.450000X0.350000X0.450000X-0.350000X0.450000X0*%
G04 #@! TD*
G04 #@! TA.AperFunction,SMDPad,CuDef*
%ADD24RoundRect,0.250000X-0.475000X0.337500X-0.475000X-0.337500X0.475000X-0.337500X0.475000X0.337500X0*%
G04 #@! TD*
G04 #@! TA.AperFunction,SMDPad,CuDef*
%ADD25RoundRect,0.375000X-0.625000X-0.375000X0.625000X-0.375000X0.625000X0.375000X-0.625000X0.375000X0*%
G04 #@! TD*
G04 #@! TA.AperFunction,SMDPad,CuDef*
%ADD26RoundRect,0.500000X-0.500000X-1.400000X0.500000X-1.400000X0.500000X1.400000X-0.500000X1.400000X0*%
G04 #@! TD*
G04 #@! TA.AperFunction,SMDPad,CuDef*
%ADD27RoundRect,0.250000X-0.325000X-1.100000X0.325000X-1.100000X0.325000X1.100000X-0.325000X1.100000X0*%
G04 #@! TD*
G04 #@! TA.AperFunction,SMDPad,CuDef*
%ADD28RoundRect,0.250000X-0.450000X0.325000X-0.450000X-0.325000X0.450000X-0.325000X0.450000X0.325000X0*%
G04 #@! TD*
G04 #@! TA.AperFunction,SMDPad,CuDef*
%ADD29RoundRect,0.250000X-0.325000X-0.450000X0.325000X-0.450000X0.325000X0.450000X-0.325000X0.450000X0*%
G04 #@! TD*
G04 #@! TA.AperFunction,ViaPad*
%ADD30C,0.800000*%
G04 #@! TD*
G04 #@! TA.AperFunction,Conductor*
%ADD31C,0.250000*%
G04 #@! TD*
G04 #@! TA.AperFunction,Conductor*
%ADD32C,1.000000*%
G04 #@! TD*
G04 #@! TA.AperFunction,Conductor*
%ADD33C,0.500000*%
G04 #@! TD*
G04 #@! TA.AperFunction,Conductor*
%ADD34C,0.700000*%
G04 #@! TD*
G04 APERTURE END LIST*
D10*
X44000000Y-84550000D03*
D11*
X44000000Y-84550000D03*
D12*
X100040000Y-49000000D03*
D13*
X100040000Y-54080000D03*
X100040000Y-56620000D03*
X100040000Y-59160000D03*
D12*
X100040000Y-69310000D03*
D13*
X100040000Y-74390000D03*
X100040000Y-76930000D03*
X100040000Y-79470000D03*
D10*
X44000000Y-46450000D03*
D11*
X44000000Y-46450000D03*
D14*
X60262500Y-79000000D03*
D15*
X62802500Y-79000000D03*
X67882500Y-79000000D03*
X72962500Y-79000000D03*
D16*
X42000000Y-59420000D03*
D17*
X42000000Y-61960000D03*
X42000000Y-64500000D03*
X42000000Y-67040000D03*
X42000000Y-69580000D03*
X42000000Y-72120000D03*
X42000000Y-74660000D03*
X42000000Y-77200000D03*
D14*
X60262500Y-45407500D03*
D15*
X62802500Y-45407500D03*
X67882500Y-45407500D03*
X72962500Y-45407500D03*
D18*
X96000000Y-86500000D03*
X90500000Y-60500000D03*
D19*
X76500000Y-86000000D03*
X76500000Y-84000000D03*
D20*
X71000000Y-51000000D03*
X71000000Y-53000000D03*
D21*
X69000000Y-86037500D03*
X69000000Y-83962500D03*
D20*
X95000000Y-59500000D03*
X95000000Y-61500000D03*
D22*
X75537500Y-48500000D03*
X73462500Y-48500000D03*
D23*
X69000000Y-81500000D03*
X71000000Y-81500000D03*
D22*
X76537500Y-81500000D03*
X74462500Y-81500000D03*
D24*
X78500000Y-66462500D03*
X78500000Y-68537500D03*
D23*
X95500000Y-82500000D03*
X97500000Y-82500000D03*
D25*
X79350000Y-85800000D03*
X79350000Y-83500000D03*
D26*
X85650000Y-83500000D03*
D25*
X79350000Y-81200000D03*
D27*
X84525000Y-71000000D03*
X87475000Y-71000000D03*
D28*
X73500000Y-50975000D03*
X73500000Y-53025000D03*
D18*
X50500000Y-51500000D03*
D23*
X68500000Y-48500000D03*
X70500000Y-48500000D03*
D19*
X76000000Y-53000000D03*
X76000000Y-51000000D03*
D29*
X83975000Y-78500000D03*
X86025000Y-78500000D03*
D25*
X78850000Y-53300000D03*
X78850000Y-51000000D03*
D26*
X85150000Y-51000000D03*
D25*
X78850000Y-48700000D03*
D18*
X77000000Y-44500000D03*
D27*
X84525000Y-67500000D03*
X87475000Y-67500000D03*
D29*
X80975000Y-46000000D03*
X83025000Y-46000000D03*
D20*
X71500000Y-84000000D03*
X71500000Y-86000000D03*
D28*
X74000000Y-83975000D03*
X74000000Y-86025000D03*
D18*
X89600000Y-76800000D03*
D21*
X68500000Y-53037500D03*
X68500000Y-50962500D03*
D18*
X80500000Y-77200000D03*
D30*
X64500000Y-62562500D03*
X63500000Y-70000000D03*
X55000000Y-73500000D03*
X46500000Y-66000000D03*
X51000000Y-57500000D03*
X46500000Y-69000000D03*
X46500000Y-70500000D03*
X53000000Y-65500000D03*
X46500000Y-67500000D03*
X64500000Y-64500000D03*
X53000000Y-70500000D03*
X59800000Y-65500000D03*
X67000000Y-65000000D03*
X83000000Y-66500000D03*
X80000000Y-66500000D03*
X81000000Y-66500000D03*
X82000000Y-66500000D03*
X88000000Y-50000000D03*
X88000000Y-49000000D03*
X88000000Y-52000000D03*
X88000000Y-51000000D03*
X96000000Y-76000000D03*
X90000000Y-83000000D03*
X96000000Y-78000000D03*
X88000000Y-83000000D03*
X91000000Y-83000000D03*
X96000000Y-77000000D03*
X89000000Y-83000000D03*
X95500000Y-57000000D03*
X79998226Y-62511909D03*
X82000000Y-56000000D03*
X82000000Y-57500000D03*
X83000000Y-62500000D03*
X81000000Y-62500000D03*
X95500000Y-54000000D03*
X82000000Y-62500000D03*
X95500000Y-55000000D03*
X95500000Y-56000000D03*
D31*
X66500000Y-65500000D02*
X67000000Y-65000000D01*
X59800000Y-65500000D02*
X66500000Y-65500000D01*
D32*
X54592500Y-45407500D02*
X60262500Y-45407500D01*
X50500000Y-49500000D02*
X50500000Y-51500000D01*
X43800000Y-77200000D02*
X44500000Y-76500000D01*
X44500000Y-76500000D02*
X44500000Y-55500000D01*
X54592500Y-45407500D02*
X50500000Y-49500000D01*
X44500000Y-55500000D02*
X48500000Y-51500000D01*
X48500000Y-51500000D02*
X50500000Y-51500000D01*
X42000000Y-77200000D02*
X43800000Y-77200000D01*
D33*
X76500000Y-84000000D02*
X74025000Y-84000000D01*
X85650000Y-83500000D02*
X79350000Y-83500000D01*
D32*
X86025000Y-75025000D02*
X84500000Y-73500000D01*
X84000000Y-66500000D02*
X80000000Y-66500000D01*
D34*
X89600000Y-76800000D02*
X86025000Y-76800000D01*
D32*
X84525000Y-67500000D02*
X84525000Y-67025000D01*
X86025000Y-80475000D02*
X86025000Y-78500000D01*
X78537500Y-66500000D02*
X78500000Y-66462500D01*
X84525000Y-73475000D02*
X84525000Y-71000000D01*
X84525000Y-71000000D02*
X84525000Y-67500000D01*
D33*
X78500000Y-83500000D02*
X78000000Y-84000000D01*
D32*
X86025000Y-76800000D02*
X86025000Y-75025000D01*
D33*
X74025000Y-84000000D02*
X74000000Y-83975000D01*
X79350000Y-83500000D02*
X78500000Y-83500000D01*
D32*
X80000000Y-66500000D02*
X78537500Y-66500000D01*
X84525000Y-67025000D02*
X84000000Y-66500000D01*
D33*
X78000000Y-84000000D02*
X76500000Y-84000000D01*
D32*
X85650000Y-80850000D02*
X86025000Y-80475000D01*
X86025000Y-78500000D02*
X86025000Y-76800000D01*
X84500000Y-73500000D02*
X84525000Y-73475000D01*
X85650000Y-83500000D02*
X85650000Y-80850000D01*
D33*
X74000000Y-86025000D02*
X71525000Y-86025000D01*
X69037500Y-86000000D02*
X69000000Y-86037500D01*
X71500000Y-86000000D02*
X69037500Y-86000000D01*
X79350000Y-85800000D02*
X78200000Y-85800000D01*
X74025000Y-86000000D02*
X74000000Y-86025000D01*
X78000000Y-86000000D02*
X76500000Y-86000000D01*
X78000000Y-86000000D02*
X78200000Y-85800000D01*
X71525000Y-86025000D02*
X71500000Y-86000000D01*
X76500000Y-86000000D02*
X74025000Y-86000000D01*
D32*
X78500000Y-46000000D02*
X77000000Y-44500000D01*
X78850000Y-46350000D02*
X77000000Y-44500000D01*
X78650000Y-48500000D02*
X78850000Y-48700000D01*
X76092500Y-45407500D02*
X77000000Y-44500000D01*
X72962500Y-45407500D02*
X76092500Y-45407500D01*
X75537500Y-45962500D02*
X77000000Y-44500000D01*
X78850000Y-48700000D02*
X78850000Y-46350000D01*
X80975000Y-46000000D02*
X78500000Y-46000000D01*
X75537500Y-48500000D02*
X78650000Y-48500000D01*
D33*
X71000000Y-53000000D02*
X68537500Y-53000000D01*
X73525000Y-53000000D02*
X73500000Y-53025000D01*
X73500000Y-53025000D02*
X71025000Y-53025000D01*
X77500000Y-53000000D02*
X76000000Y-53000000D01*
X78850000Y-53300000D02*
X77800000Y-53300000D01*
X77800000Y-53300000D02*
X77500000Y-53000000D01*
X76000000Y-53000000D02*
X73525000Y-53000000D01*
X71025000Y-53025000D02*
X71000000Y-53000000D01*
X68537500Y-53000000D02*
X68500000Y-53037500D01*
D32*
X85150000Y-51000000D02*
X86150000Y-52000000D01*
X88000000Y-46500000D02*
X88000000Y-49000000D01*
X86150000Y-52000000D02*
X87000000Y-52000000D01*
X87000000Y-52000000D02*
X88000000Y-52000000D01*
X87500000Y-46000000D02*
X83025000Y-46000000D01*
X85150000Y-51000000D02*
X88000000Y-51000000D01*
X85150000Y-51000000D02*
X85150000Y-50350000D01*
X88000000Y-46500000D02*
X87500000Y-46000000D01*
D33*
X73525000Y-51000000D02*
X73500000Y-50975000D01*
X78850000Y-51000000D02*
X85150000Y-51000000D01*
D32*
X87000000Y-49000000D02*
X88000000Y-49000000D01*
X85150000Y-50350000D02*
X85500000Y-50000000D01*
X85150000Y-51000000D02*
X87000000Y-49150000D01*
D33*
X78850000Y-51000000D02*
X76000000Y-51000000D01*
D32*
X85500000Y-50000000D02*
X88000000Y-50000000D01*
X87000000Y-49150000D02*
X87000000Y-49000000D01*
D33*
X76000000Y-51000000D02*
X73525000Y-51000000D01*
X71000000Y-81500000D02*
X71500000Y-82000000D01*
X71500000Y-82000000D02*
X71500000Y-84000000D01*
X71000000Y-49000000D02*
X70500000Y-48500000D01*
X71000000Y-51000000D02*
X71000000Y-49000000D01*
X79350000Y-78650000D02*
X80500000Y-77500000D01*
D32*
X83975000Y-78500000D02*
X81800000Y-78500000D01*
X79050000Y-81500000D02*
X79350000Y-81200000D01*
D33*
X81500000Y-78500000D02*
X80500000Y-77500000D01*
D32*
X76500000Y-79000000D02*
X78700000Y-79000000D01*
X72962500Y-79000000D02*
X76500000Y-79000000D01*
X76537500Y-79037500D02*
X76500000Y-79000000D01*
X81800000Y-78500000D02*
X80500000Y-77200000D01*
X76537500Y-81500000D02*
X79050000Y-81500000D01*
X76537500Y-81500000D02*
X76537500Y-79037500D01*
D31*
X68000000Y-79117500D02*
X67882500Y-79000000D01*
D33*
X91000000Y-83000000D02*
X90000000Y-83000000D01*
X90000000Y-83000000D02*
X89000000Y-83000000D01*
X89000000Y-83000000D02*
X88000000Y-83000000D01*
X96000000Y-78000000D02*
X91000000Y-83000000D01*
D34*
X99500000Y-59160000D02*
X99500000Y-59500000D01*
X99500000Y-59500000D02*
X97500000Y-61500000D01*
X97500000Y-61500000D02*
X95000000Y-61500000D01*
X91500000Y-61500000D02*
X90500000Y-60500000D01*
X95000000Y-61500000D02*
X91500000Y-61500000D01*
X97500000Y-82500000D02*
X97500000Y-85000000D01*
X99500000Y-80500000D02*
X97500000Y-82500000D01*
X99500000Y-80500000D02*
X99500000Y-80440000D01*
X99500000Y-80440000D02*
X100400000Y-79540000D01*
X97500000Y-85000000D02*
X96000000Y-86500000D01*
G04 #@! TA.AperFunction,Conductor*
G36*
X63943039Y-41119685D02*
G01*
X63988794Y-41172489D01*
X64000000Y-41224000D01*
X64000000Y-57500000D01*
X70376000Y-57500000D01*
X70443039Y-57519685D01*
X70488794Y-57572489D01*
X70500000Y-57624000D01*
X70500000Y-72876000D01*
X70480315Y-72943039D01*
X70427511Y-72988794D01*
X70376000Y-73000000D01*
X64000000Y-73000000D01*
X64000000Y-89876000D01*
X63980315Y-89943039D01*
X63927511Y-89988794D01*
X63876000Y-90000000D01*
X39124000Y-90000000D01*
X39056961Y-89980315D01*
X39011206Y-89927511D01*
X39000000Y-89876000D01*
X39000000Y-84550000D01*
X40786444Y-84550000D01*
X40806649Y-84909799D01*
X40806651Y-84909811D01*
X40867014Y-85265079D01*
X40867016Y-85265088D01*
X40966776Y-85611364D01*
X40966778Y-85611370D01*
X41008977Y-85713248D01*
X41104682Y-85944303D01*
X41104684Y-85944307D01*
X41279005Y-86259717D01*
X41470375Y-86529426D01*
X41487541Y-86553619D01*
X41727673Y-86822327D01*
X41996381Y-87062459D01*
X42290285Y-87270996D01*
X42605690Y-87445314D01*
X42605692Y-87445315D01*
X42605696Y-87445317D01*
X42713763Y-87490079D01*
X42938630Y-87583222D01*
X43284917Y-87682985D01*
X43640196Y-87743350D01*
X44000000Y-87763556D01*
X44359804Y-87743350D01*
X44715083Y-87682985D01*
X45061370Y-87583222D01*
X45394310Y-87445314D01*
X45709715Y-87270996D01*
X46003619Y-87062459D01*
X46272327Y-86822327D01*
X46512459Y-86553619D01*
X46720996Y-86259715D01*
X46895314Y-85944310D01*
X47033222Y-85611370D01*
X47132985Y-85265083D01*
X47193350Y-84909804D01*
X47213556Y-84550000D01*
X47193350Y-84190196D01*
X47132985Y-83834917D01*
X47033222Y-83488630D01*
X46903871Y-83176348D01*
X46895317Y-83155696D01*
X46895315Y-83155692D01*
X46749302Y-82891501D01*
X46720996Y-82840285D01*
X46512459Y-82546381D01*
X46272327Y-82277673D01*
X46003619Y-82037541D01*
X45845424Y-81925295D01*
X45709717Y-81829005D01*
X45394307Y-81654684D01*
X45394303Y-81654682D01*
X45163248Y-81558977D01*
X45061370Y-81516778D01*
X45061366Y-81516776D01*
X45061364Y-81516776D01*
X44715088Y-81417016D01*
X44715079Y-81417014D01*
X44359811Y-81356651D01*
X44359799Y-81356649D01*
X44000000Y-81336444D01*
X43640200Y-81356649D01*
X43640188Y-81356651D01*
X43284920Y-81417014D01*
X43284911Y-81417016D01*
X42938635Y-81516776D01*
X42605696Y-81654682D01*
X42605692Y-81654684D01*
X42290282Y-81829005D01*
X41996381Y-82037540D01*
X41727673Y-82277673D01*
X41487540Y-82546381D01*
X41279005Y-82840282D01*
X41104684Y-83155692D01*
X41104682Y-83155696D01*
X40966776Y-83488635D01*
X40867016Y-83834911D01*
X40867014Y-83834920D01*
X40806651Y-84190188D01*
X40806649Y-84190200D01*
X40786444Y-84550000D01*
X39000000Y-84550000D01*
X39000000Y-61959994D01*
X40636844Y-61959994D01*
X40636844Y-61960005D01*
X40655434Y-62184359D01*
X40655436Y-62184371D01*
X40710703Y-62402614D01*
X40801140Y-62608792D01*
X40924276Y-62797265D01*
X40924284Y-62797276D01*
X41076756Y-62962902D01*
X41076760Y-62962906D01*
X41254424Y-63101189D01*
X41254429Y-63101191D01*
X41254431Y-63101193D01*
X41290930Y-63120946D01*
X41340520Y-63170165D01*
X41355628Y-63238382D01*
X41331457Y-63303937D01*
X41290930Y-63339054D01*
X41254431Y-63358806D01*
X41254422Y-63358812D01*
X41076761Y-63497092D01*
X41076756Y-63497097D01*
X40924284Y-63662723D01*
X40924276Y-63662734D01*
X40801140Y-63851207D01*
X40710703Y-64057385D01*
X40655436Y-64275628D01*
X40655434Y-64275640D01*
X40636844Y-64499994D01*
X40636844Y-64500005D01*
X40655434Y-64724359D01*
X40655436Y-64724371D01*
X40710703Y-64942614D01*
X40801140Y-65148792D01*
X40924276Y-65337265D01*
X40924284Y-65337276D01*
X41076756Y-65502902D01*
X41076761Y-65502907D01*
X41135981Y-65549000D01*
X41254424Y-65641189D01*
X41254429Y-65641191D01*
X41254431Y-65641193D01*
X41290930Y-65660946D01*
X41340520Y-65710165D01*
X41355628Y-65778382D01*
X41331457Y-65843937D01*
X41290930Y-65879054D01*
X41254431Y-65898806D01*
X41254422Y-65898812D01*
X41076761Y-66037092D01*
X41076756Y-66037097D01*
X40924284Y-66202723D01*
X40924276Y-66202734D01*
X40801140Y-66391207D01*
X40710703Y-66597385D01*
X40655436Y-66815628D01*
X40655434Y-66815640D01*
X40636844Y-67039994D01*
X40636844Y-67040005D01*
X40655434Y-67264359D01*
X40655436Y-67264371D01*
X40710703Y-67482614D01*
X40801140Y-67688792D01*
X40924276Y-67877265D01*
X40924284Y-67877276D01*
X41076756Y-68042902D01*
X41076760Y-68042906D01*
X41254424Y-68181189D01*
X41254429Y-68181191D01*
X41254431Y-68181193D01*
X41290930Y-68200946D01*
X41340520Y-68250165D01*
X41355628Y-68318382D01*
X41331457Y-68383937D01*
X41290930Y-68419054D01*
X41254431Y-68438806D01*
X41254422Y-68438812D01*
X41076761Y-68577092D01*
X41076756Y-68577097D01*
X40924284Y-68742723D01*
X40924276Y-68742734D01*
X40801140Y-68931207D01*
X40710703Y-69137385D01*
X40655436Y-69355628D01*
X40655434Y-69355640D01*
X40636844Y-69579994D01*
X40636844Y-69580005D01*
X40655434Y-69804359D01*
X40655436Y-69804371D01*
X40710703Y-70022614D01*
X40801140Y-70228792D01*
X40924276Y-70417265D01*
X40924284Y-70417276D01*
X41076756Y-70582902D01*
X41076760Y-70582906D01*
X41254424Y-70721189D01*
X41254425Y-70721189D01*
X41254427Y-70721191D01*
X41381135Y-70789761D01*
X41452426Y-70828342D01*
X41665365Y-70901444D01*
X41887431Y-70938500D01*
X42112569Y-70938500D01*
X42334635Y-70901444D01*
X42547574Y-70828342D01*
X42745576Y-70721189D01*
X42923240Y-70582906D01*
X43075722Y-70417268D01*
X43198860Y-70228791D01*
X43253944Y-70103210D01*
X43298899Y-70049725D01*
X43365635Y-70029034D01*
X43432963Y-70047708D01*
X43479507Y-70099818D01*
X43491500Y-70153020D01*
X43491500Y-74086979D01*
X43471815Y-74154018D01*
X43419011Y-74199773D01*
X43349853Y-74209717D01*
X43286297Y-74180692D01*
X43253944Y-74136789D01*
X43198860Y-74011209D01*
X43075722Y-73822732D01*
X43075719Y-73822729D01*
X43075715Y-73822723D01*
X42923243Y-73657097D01*
X42923238Y-73657092D01*
X42745577Y-73518812D01*
X42745572Y-73518808D01*
X42547580Y-73411661D01*
X42547577Y-73411659D01*
X42547574Y-73411658D01*
X42547571Y-73411657D01*
X42547569Y-73411656D01*
X42334637Y-73338556D01*
X42112569Y-73301500D01*
X41887431Y-73301500D01*
X41665362Y-73338556D01*
X41452430Y-73411656D01*
X41452419Y-73411661D01*
X41254427Y-73518808D01*
X41254422Y-73518812D01*
X41076761Y-73657092D01*
X41076756Y-73657097D01*
X40924284Y-73822723D01*
X40924276Y-73822734D01*
X40801140Y-74011207D01*
X40710703Y-74217385D01*
X40655436Y-74435628D01*
X40655434Y-74435640D01*
X40636844Y-74659994D01*
X40636844Y-74660005D01*
X40655434Y-74884359D01*
X40655436Y-74884371D01*
X40710703Y-75102614D01*
X40801140Y-75308792D01*
X40924276Y-75497265D01*
X40924284Y-75497276D01*
X41076756Y-75662902D01*
X41076760Y-75662906D01*
X41254424Y-75801189D01*
X41254429Y-75801191D01*
X41254431Y-75801193D01*
X41290930Y-75820946D01*
X41340520Y-75870165D01*
X41355628Y-75938382D01*
X41331457Y-76003937D01*
X41290930Y-76039054D01*
X41254431Y-76058806D01*
X41254422Y-76058812D01*
X41076761Y-76197092D01*
X41076756Y-76197097D01*
X40924284Y-76362723D01*
X40924276Y-76362734D01*
X40801140Y-76551207D01*
X40710703Y-76757385D01*
X40655436Y-76975628D01*
X40655434Y-76975640D01*
X40636844Y-77199994D01*
X40636844Y-77200005D01*
X40655434Y-77424359D01*
X40655436Y-77424371D01*
X40710703Y-77642614D01*
X40801140Y-77848792D01*
X40924276Y-78037265D01*
X40924284Y-78037276D01*
X41076756Y-78202902D01*
X41076761Y-78202907D01*
X41117540Y-78234647D01*
X41254424Y-78341189D01*
X41254425Y-78341189D01*
X41254427Y-78341191D01*
X41381135Y-78409761D01*
X41452426Y-78448342D01*
X41665365Y-78521444D01*
X41887431Y-78558500D01*
X42112569Y-78558500D01*
X42334635Y-78521444D01*
X42547574Y-78448342D01*
X42745576Y-78341189D01*
X42799723Y-78299043D01*
X42882461Y-78234647D01*
X42947455Y-78209004D01*
X42958623Y-78208500D01*
X43899330Y-78208500D01*
X43899331Y-78208499D01*
X43935297Y-78201345D01*
X59004000Y-78201345D01*
X59004000Y-79798654D01*
X59010511Y-79859202D01*
X59010511Y-79859204D01*
X59061611Y-79996204D01*
X59149239Y-80113261D01*
X59266296Y-80200889D01*
X59403299Y-80251989D01*
X59430550Y-80254918D01*
X59463845Y-80258499D01*
X59463862Y-80258500D01*
X61061138Y-80258500D01*
X61061154Y-80258499D01*
X61088192Y-80255591D01*
X61121701Y-80251989D01*
X61258704Y-80200889D01*
X61375761Y-80113261D01*
X61463389Y-79996204D01*
X61514489Y-79859201D01*
X61518091Y-79825692D01*
X61520999Y-79798654D01*
X61521000Y-79798637D01*
X61521000Y-78201362D01*
X61520999Y-78201345D01*
X61517601Y-78169743D01*
X61514489Y-78140799D01*
X61463389Y-78003796D01*
X61375761Y-77886739D01*
X61258704Y-77799111D01*
X61121703Y-77748011D01*
X61061154Y-77741500D01*
X61061138Y-77741500D01*
X59463862Y-77741500D01*
X59463845Y-77741500D01*
X59403297Y-77748011D01*
X59403295Y-77748011D01*
X59266295Y-77799111D01*
X59149239Y-77886739D01*
X59061611Y-78003795D01*
X59010511Y-78140795D01*
X59010511Y-78140797D01*
X59004000Y-78201345D01*
X43935297Y-78201345D01*
X44094169Y-78169744D01*
X44277704Y-78093721D01*
X44442881Y-77983353D01*
X44583353Y-77842881D01*
X45283353Y-77142881D01*
X45393721Y-76977704D01*
X45469744Y-76794169D01*
X45477061Y-76757384D01*
X45484040Y-76722299D01*
X45484040Y-76722294D01*
X45508500Y-76599331D01*
X45508500Y-65500000D01*
X58886496Y-65500000D01*
X58906458Y-65689928D01*
X58906459Y-65689931D01*
X58965470Y-65871549D01*
X58965473Y-65871556D01*
X59060960Y-66036944D01*
X59188747Y-66178866D01*
X59343248Y-66291118D01*
X59517712Y-66368794D01*
X59704513Y-66408500D01*
X59895487Y-66408500D01*
X60082288Y-66368794D01*
X60256752Y-66291118D01*
X60411253Y-66178866D01*
X60415160Y-66174527D01*
X60474646Y-66137879D01*
X60507309Y-66133500D01*
X66562395Y-66133500D01*
X66562396Y-66133499D01*
X66684785Y-66109155D01*
X66800075Y-66061400D01*
X66903833Y-65992071D01*
X66951084Y-65944820D01*
X67012407Y-65911334D01*
X67038766Y-65908500D01*
X67095487Y-65908500D01*
X67282288Y-65868794D01*
X67456752Y-65791118D01*
X67611253Y-65678866D01*
X67739040Y-65536944D01*
X67834527Y-65371556D01*
X67893542Y-65189928D01*
X67913504Y-65000000D01*
X67893542Y-64810072D01*
X67834527Y-64628444D01*
X67739040Y-64463056D01*
X67611253Y-64321134D01*
X67456752Y-64208882D01*
X67282288Y-64131206D01*
X67282286Y-64131205D01*
X67095487Y-64091500D01*
X66904513Y-64091500D01*
X66717714Y-64131205D01*
X66543246Y-64208883D01*
X66388745Y-64321135D01*
X66260959Y-64463057D01*
X66165473Y-64628443D01*
X66165470Y-64628450D01*
X66115963Y-64780818D01*
X66076525Y-64838494D01*
X66012167Y-64865692D01*
X65998032Y-64866500D01*
X60507309Y-64866500D01*
X60440270Y-64846815D01*
X60415160Y-64825473D01*
X60411254Y-64821135D01*
X60396028Y-64810072D01*
X60256752Y-64708882D01*
X60082288Y-64631206D01*
X60082286Y-64631205D01*
X59895487Y-64591500D01*
X59704513Y-64591500D01*
X59517714Y-64631205D01*
X59343246Y-64708883D01*
X59188745Y-64821135D01*
X59060959Y-64963057D01*
X58965473Y-65128443D01*
X58965470Y-65128450D01*
X58958861Y-65148792D01*
X58906458Y-65310072D01*
X58886496Y-65500000D01*
X45508500Y-65500000D01*
X45508500Y-55969096D01*
X45528185Y-55902057D01*
X45544819Y-55881415D01*
X46569115Y-54857119D01*
X47812414Y-53613819D01*
X47873735Y-53580336D01*
X47943427Y-53585320D01*
X47999360Y-53627192D01*
X48016274Y-53658167D01*
X48031034Y-53697738D01*
X48049111Y-53746204D01*
X48136739Y-53863261D01*
X48253796Y-53950889D01*
X48390799Y-54001989D01*
X48418050Y-54004918D01*
X48451345Y-54008499D01*
X48451362Y-54008500D01*
X52548638Y-54008500D01*
X52548654Y-54008499D01*
X52575692Y-54005591D01*
X52609201Y-54001989D01*
X52746204Y-53950889D01*
X52863261Y-53863261D01*
X52950889Y-53746204D01*
X53001989Y-53609201D01*
X53005591Y-53575692D01*
X53008499Y-53548654D01*
X53008500Y-53548637D01*
X53008500Y-49451362D01*
X53008499Y-49451345D01*
X53005157Y-49420270D01*
X53001989Y-49390799D01*
X52950889Y-49253796D01*
X52863261Y-49136739D01*
X52746204Y-49049111D01*
X52658167Y-49016274D01*
X52602234Y-48974402D01*
X52577818Y-48908938D01*
X52592670Y-48840665D01*
X52613818Y-48812415D01*
X54973915Y-46452319D01*
X55035238Y-46418834D01*
X55061596Y-46416000D01*
X59008746Y-46416000D01*
X59075785Y-46435685D01*
X59108011Y-46465687D01*
X59149239Y-46520761D01*
X59266296Y-46608389D01*
X59403299Y-46659489D01*
X59430550Y-46662418D01*
X59463845Y-46665999D01*
X59463862Y-46666000D01*
X61061138Y-46666000D01*
X61061154Y-46665999D01*
X61088192Y-46663091D01*
X61121701Y-46659489D01*
X61258704Y-46608389D01*
X61375761Y-46520761D01*
X61463389Y-46403704D01*
X61514489Y-46266701D01*
X61518091Y-46233192D01*
X61520999Y-46206154D01*
X61521000Y-46206137D01*
X61521000Y-44608862D01*
X61520999Y-44608845D01*
X61517657Y-44577770D01*
X61514489Y-44548299D01*
X61498646Y-44505824D01*
X61473257Y-44437754D01*
X61463389Y-44411296D01*
X61375761Y-44294239D01*
X61258704Y-44206611D01*
X61121703Y-44155511D01*
X61061154Y-44149000D01*
X61061138Y-44149000D01*
X59463862Y-44149000D01*
X59463845Y-44149000D01*
X59403297Y-44155511D01*
X59403295Y-44155511D01*
X59266295Y-44206611D01*
X59149239Y-44294239D01*
X59108013Y-44349311D01*
X59052079Y-44391182D01*
X59008746Y-44399000D01*
X54493166Y-44399000D01*
X54298338Y-44437754D01*
X54298330Y-44437756D01*
X54134001Y-44505824D01*
X54134000Y-44505824D01*
X54114802Y-44513775D01*
X54114789Y-44513782D01*
X53949619Y-44624146D01*
X53949615Y-44624149D01*
X50846504Y-47727262D01*
X49857119Y-48716647D01*
X49795012Y-48778754D01*
X49716645Y-48857120D01*
X49663679Y-48936391D01*
X49610067Y-48981196D01*
X49560577Y-48991500D01*
X48451345Y-48991500D01*
X48390797Y-48998011D01*
X48390795Y-48998011D01*
X48253795Y-49049111D01*
X48136739Y-49136739D01*
X48049111Y-49253795D01*
X47998011Y-49390795D01*
X47998011Y-49390797D01*
X47991500Y-49451345D01*
X47991500Y-50560576D01*
X47971815Y-50627615D01*
X47936391Y-50663678D01*
X47857119Y-50716646D01*
X47857115Y-50716649D01*
X44827562Y-53746204D01*
X43857119Y-54716647D01*
X43786882Y-54786884D01*
X43716645Y-54857120D01*
X43606282Y-55022289D01*
X43606277Y-55022298D01*
X43530256Y-55205830D01*
X43530254Y-55205838D01*
X43491500Y-55400666D01*
X43491500Y-58205862D01*
X43471815Y-58272901D01*
X43419011Y-58318656D01*
X43349853Y-58328600D01*
X43286297Y-58299575D01*
X43268233Y-58280173D01*
X43262789Y-58272901D01*
X43213261Y-58206739D01*
X43096204Y-58119111D01*
X42959203Y-58068011D01*
X42898654Y-58061500D01*
X42898638Y-58061500D01*
X41101362Y-58061500D01*
X41101345Y-58061500D01*
X41040797Y-58068011D01*
X41040795Y-58068011D01*
X40903795Y-58119111D01*
X40786739Y-58206739D01*
X40699111Y-58323795D01*
X40648011Y-58460795D01*
X40648011Y-58460797D01*
X40641500Y-58521345D01*
X40641500Y-60318654D01*
X40648011Y-60379202D01*
X40648011Y-60379204D01*
X40697905Y-60512971D01*
X40699111Y-60516204D01*
X40786739Y-60633261D01*
X40903796Y-60720889D01*
X40955737Y-60740262D01*
X41021595Y-60764827D01*
X41077528Y-60806699D01*
X41101944Y-60872163D01*
X41087092Y-60940436D01*
X41069490Y-60964991D01*
X40924279Y-61122730D01*
X40924276Y-61122734D01*
X40801140Y-61311207D01*
X40710703Y-61517385D01*
X40655436Y-61735628D01*
X40655434Y-61735640D01*
X40636844Y-61959994D01*
X39000000Y-61959994D01*
X39000000Y-46450000D01*
X40786444Y-46450000D01*
X40806649Y-46809799D01*
X40806651Y-46809811D01*
X40867014Y-47165079D01*
X40867016Y-47165088D01*
X40966776Y-47511364D01*
X41104682Y-47844303D01*
X41104684Y-47844307D01*
X41190432Y-47999456D01*
X41279004Y-48159715D01*
X41487541Y-48453619D01*
X41727673Y-48722327D01*
X41878507Y-48857120D01*
X41996381Y-48962459D01*
X42242004Y-49136739D01*
X42290285Y-49170996D01*
X42605690Y-49345314D01*
X42605692Y-49345315D01*
X42605696Y-49345317D01*
X42713763Y-49390079D01*
X42938630Y-49483222D01*
X43284917Y-49582985D01*
X43640196Y-49643350D01*
X44000000Y-49663556D01*
X44359804Y-49643350D01*
X44715083Y-49582985D01*
X45061370Y-49483222D01*
X45394310Y-49345314D01*
X45709715Y-49170996D01*
X46003619Y-48962459D01*
X46272327Y-48722327D01*
X46512459Y-48453619D01*
X46720996Y-48159715D01*
X46895314Y-47844310D01*
X47033222Y-47511370D01*
X47132985Y-47165083D01*
X47193350Y-46809804D01*
X47213556Y-46450000D01*
X47193350Y-46090196D01*
X47132985Y-45734917D01*
X47033222Y-45388630D01*
X46940079Y-45163763D01*
X46895317Y-45055696D01*
X46895315Y-45055692D01*
X46895314Y-45055690D01*
X46720996Y-44740285D01*
X46512459Y-44446381D01*
X46272327Y-44177673D01*
X46003619Y-43937541D01*
X46003618Y-43937540D01*
X45709717Y-43729005D01*
X45394307Y-43554684D01*
X45394303Y-43554682D01*
X45163248Y-43458977D01*
X45061370Y-43416778D01*
X45061366Y-43416776D01*
X45061364Y-43416776D01*
X44715088Y-43317016D01*
X44715079Y-43317014D01*
X44359811Y-43256651D01*
X44359799Y-43256649D01*
X44000000Y-43236444D01*
X43640200Y-43256649D01*
X43640188Y-43256651D01*
X43284920Y-43317014D01*
X43284911Y-43317016D01*
X42938635Y-43416776D01*
X42605696Y-43554682D01*
X42605692Y-43554684D01*
X42290282Y-43729005D01*
X41996381Y-43937540D01*
X41727673Y-44177673D01*
X41487540Y-44446381D01*
X41279005Y-44740282D01*
X41104684Y-45055692D01*
X41104682Y-45055696D01*
X40966776Y-45388635D01*
X40867016Y-45734911D01*
X40867014Y-45734920D01*
X40806651Y-46090188D01*
X40806649Y-46090200D01*
X40786444Y-46450000D01*
X39000000Y-46450000D01*
X39000000Y-41224000D01*
X39019685Y-41156961D01*
X39072489Y-41111206D01*
X39124000Y-41100000D01*
X63876000Y-41100000D01*
X63943039Y-41119685D01*
G37*
G04 #@! TD.AperFunction*
G04 #@! TA.AperFunction,Conductor*
G36*
X77364187Y-65519685D02*
G01*
X77409942Y-65572489D01*
X77419886Y-65641647D01*
X77402686Y-65689097D01*
X77332889Y-65802253D01*
X77332884Y-65802264D01*
X77277113Y-65970572D01*
X77266500Y-66074447D01*
X77266500Y-66850537D01*
X77266501Y-66850553D01*
X77277113Y-66954426D01*
X77332885Y-67122738D01*
X77425970Y-67273652D01*
X77551348Y-67399030D01*
X77702262Y-67492115D01*
X77870574Y-67547887D01*
X77974455Y-67558500D01*
X79025544Y-67558499D01*
X79129426Y-67547887D01*
X79229296Y-67514793D01*
X79268299Y-67508500D01*
X79900671Y-67508500D01*
X83317501Y-67508500D01*
X83384540Y-67528185D01*
X83430295Y-67580989D01*
X83441501Y-67632500D01*
X83441501Y-68650553D01*
X83452113Y-68754427D01*
X83510157Y-68929593D01*
X83507983Y-68930313D01*
X83516500Y-68968702D01*
X83516500Y-69531296D01*
X83508040Y-69569705D01*
X83510156Y-69570407D01*
X83452113Y-69745571D01*
X83441500Y-69849447D01*
X83441500Y-72150537D01*
X83441501Y-72150553D01*
X83452113Y-72254427D01*
X83510157Y-72429593D01*
X83507983Y-72430313D01*
X83516500Y-72468702D01*
X83516500Y-73262775D01*
X83514117Y-73286966D01*
X83491500Y-73400667D01*
X83491500Y-73599333D01*
X83530254Y-73794160D01*
X83530256Y-73794168D01*
X83606277Y-73977701D01*
X83606282Y-73977710D01*
X83716646Y-74142880D01*
X83716649Y-74142884D01*
X84980181Y-75406415D01*
X85013666Y-75467738D01*
X85016500Y-75494096D01*
X85016500Y-77394456D01*
X84996815Y-77461495D01*
X84944011Y-77507250D01*
X84874853Y-77517194D01*
X84811297Y-77488169D01*
X84804819Y-77482137D01*
X84773653Y-77450971D01*
X84773652Y-77450970D01*
X84622738Y-77357885D01*
X84545599Y-77332324D01*
X84454427Y-77302113D01*
X84350546Y-77291500D01*
X83599462Y-77291500D01*
X83599446Y-77291501D01*
X83495572Y-77302113D01*
X83327264Y-77357884D01*
X83327255Y-77357888D01*
X83197596Y-77437863D01*
X83130204Y-77456303D01*
X83063541Y-77435380D01*
X83018771Y-77381738D01*
X83008500Y-77332324D01*
X83008500Y-75151362D01*
X83008499Y-75151345D01*
X83005157Y-75120270D01*
X83001989Y-75090799D01*
X82950889Y-74953796D01*
X82863261Y-74836739D01*
X82746204Y-74749111D01*
X82609203Y-74698011D01*
X82548654Y-74691500D01*
X82548638Y-74691500D01*
X78451362Y-74691500D01*
X78451345Y-74691500D01*
X78390797Y-74698011D01*
X78390795Y-74698011D01*
X78253795Y-74749111D01*
X78136739Y-74836739D01*
X78049111Y-74953795D01*
X77998011Y-75090795D01*
X77998011Y-75090797D01*
X77991500Y-75151345D01*
X77991500Y-77867500D01*
X77971815Y-77934539D01*
X77919011Y-77980294D01*
X77867500Y-77991500D01*
X73755438Y-77991500D01*
X73688399Y-77971815D01*
X73684315Y-77969075D01*
X73594158Y-77905946D01*
X73594150Y-77905942D01*
X73394581Y-77812882D01*
X73394579Y-77812881D01*
X73394576Y-77812880D01*
X73243277Y-77772339D01*
X73181872Y-77755885D01*
X73181865Y-77755884D01*
X72962502Y-77736693D01*
X72962498Y-77736693D01*
X72743134Y-77755884D01*
X72743127Y-77755885D01*
X72530420Y-77812881D01*
X72330846Y-77905944D01*
X72330842Y-77905946D01*
X72150467Y-78032247D01*
X72150460Y-78032252D01*
X71994752Y-78187960D01*
X71994747Y-78187967D01*
X71868446Y-78368342D01*
X71868444Y-78368346D01*
X71775381Y-78567920D01*
X71718385Y-78780627D01*
X71718384Y-78780634D01*
X71699193Y-78999997D01*
X71699193Y-79000002D01*
X71714441Y-79174297D01*
X71718385Y-79219371D01*
X71775380Y-79432076D01*
X71775381Y-79432079D01*
X71775382Y-79432081D01*
X71829915Y-79549028D01*
X71868444Y-79631654D01*
X71994751Y-79812038D01*
X72150462Y-79967749D01*
X72330846Y-80094056D01*
X72530424Y-80187120D01*
X72743129Y-80244115D01*
X72899822Y-80257823D01*
X72962498Y-80263307D01*
X72962500Y-80263307D01*
X72962502Y-80263307D01*
X73017342Y-80258509D01*
X73181871Y-80244115D01*
X73394576Y-80187120D01*
X73594154Y-80094056D01*
X73614295Y-80079953D01*
X73684315Y-80030925D01*
X73750521Y-80008598D01*
X73755438Y-80008500D01*
X75405000Y-80008500D01*
X75472039Y-80028185D01*
X75517794Y-80080989D01*
X75529000Y-80132500D01*
X75529000Y-80632862D01*
X75510541Y-80697954D01*
X75507886Y-80702258D01*
X75507883Y-80702264D01*
X75452113Y-80870570D01*
X75452113Y-80870571D01*
X75441500Y-80974447D01*
X75441500Y-82025537D01*
X75441501Y-82025553D01*
X75449559Y-82104426D01*
X75452113Y-82129426D01*
X75507885Y-82297738D01*
X75600970Y-82448652D01*
X75726348Y-82574030D01*
X75877262Y-82667115D01*
X75885792Y-82669941D01*
X75943236Y-82709711D01*
X75970061Y-82774226D01*
X75957747Y-82843002D01*
X75910206Y-82894204D01*
X75885793Y-82905353D01*
X75727264Y-82957884D01*
X75727259Y-82957886D01*
X75576346Y-83050971D01*
X75450970Y-83176347D01*
X75450967Y-83176351D01*
X75447115Y-83182597D01*
X75395167Y-83229322D01*
X75341577Y-83241500D01*
X75158423Y-83241500D01*
X75091384Y-83221815D01*
X75052885Y-83182597D01*
X75049032Y-83176351D01*
X75049029Y-83176347D01*
X74923653Y-83050971D01*
X74923652Y-83050970D01*
X74818368Y-82986030D01*
X74772740Y-82957886D01*
X74772735Y-82957884D01*
X74604427Y-82902113D01*
X74500546Y-82891500D01*
X73499462Y-82891500D01*
X73499446Y-82891501D01*
X73395572Y-82902113D01*
X73227264Y-82957884D01*
X73227259Y-82957886D01*
X73076346Y-83050971D01*
X72950970Y-83176347D01*
X72950967Y-83176351D01*
X72855538Y-83331066D01*
X72803590Y-83377791D01*
X72734628Y-83389012D01*
X72670546Y-83361169D01*
X72644462Y-83331066D01*
X72549032Y-83176351D01*
X72549029Y-83176347D01*
X72423652Y-83050970D01*
X72423648Y-83050967D01*
X72317403Y-82985434D01*
X72270678Y-82933486D01*
X72258500Y-82879896D01*
X72258500Y-81925291D01*
X72229352Y-81778759D01*
X72229351Y-81778758D01*
X72229351Y-81778754D01*
X72208023Y-81727264D01*
X72172177Y-81640722D01*
X72172170Y-81640709D01*
X72129397Y-81576695D01*
X72108519Y-81510018D01*
X72108499Y-81507804D01*
X72108499Y-80999462D01*
X72108498Y-80999446D01*
X72105944Y-80974447D01*
X72097887Y-80895574D01*
X72042115Y-80727262D01*
X71949030Y-80576348D01*
X71823652Y-80450970D01*
X71696102Y-80372296D01*
X71672740Y-80357886D01*
X71672735Y-80357884D01*
X71504427Y-80302113D01*
X71400546Y-80291500D01*
X70599462Y-80291500D01*
X70599446Y-80291501D01*
X70495572Y-80302113D01*
X70327264Y-80357884D01*
X70327259Y-80357886D01*
X70176346Y-80450971D01*
X70050971Y-80576346D01*
X69957886Y-80727259D01*
X69957884Y-80727264D01*
X69902113Y-80895572D01*
X69891500Y-80999447D01*
X69891500Y-82000537D01*
X69891501Y-82000553D01*
X69902113Y-82104426D01*
X69957885Y-82272738D01*
X70050970Y-82423652D01*
X70176348Y-82549030D01*
X70327262Y-82642115D01*
X70495574Y-82697887D01*
X70599455Y-82708500D01*
X70617496Y-82708499D01*
X70684535Y-82728180D01*
X70730292Y-82780982D01*
X70741500Y-82832499D01*
X70741500Y-82879896D01*
X70721815Y-82946935D01*
X70682597Y-82985434D01*
X70576351Y-83050967D01*
X70576347Y-83050970D01*
X70450971Y-83176346D01*
X70357886Y-83327259D01*
X70357884Y-83327264D01*
X70302113Y-83495572D01*
X70291500Y-83599447D01*
X70291500Y-84400537D01*
X70291501Y-84400553D01*
X70302113Y-84504427D01*
X70357884Y-84672735D01*
X70357886Y-84672740D01*
X70450971Y-84823653D01*
X70539637Y-84912319D01*
X70573122Y-84973642D01*
X70568138Y-85043334D01*
X70539637Y-85087681D01*
X70450970Y-85176347D01*
X70450967Y-85176351D01*
X70447115Y-85182597D01*
X70395167Y-85229322D01*
X70341577Y-85241500D01*
X70140545Y-85241500D01*
X70073506Y-85221815D01*
X70052864Y-85205182D01*
X70024028Y-85176346D01*
X69948652Y-85100970D01*
X69832874Y-85029557D01*
X69797740Y-85007886D01*
X69797735Y-85007884D01*
X69629427Y-84952113D01*
X69525546Y-84941500D01*
X68474462Y-84941500D01*
X68474446Y-84941501D01*
X68370572Y-84952113D01*
X68202264Y-85007884D01*
X68202259Y-85007886D01*
X68051346Y-85100971D01*
X67925971Y-85226346D01*
X67832886Y-85377259D01*
X67832884Y-85377264D01*
X67777113Y-85545572D01*
X67766500Y-85649447D01*
X67766500Y-86425537D01*
X67766501Y-86425553D01*
X67773429Y-86493362D01*
X67777113Y-86529426D01*
X67832885Y-86697738D01*
X67925970Y-86848652D01*
X68051348Y-86974030D01*
X68202262Y-87067115D01*
X68370574Y-87122887D01*
X68474455Y-87133500D01*
X69525544Y-87133499D01*
X69629426Y-87122887D01*
X69797738Y-87067115D01*
X69948652Y-86974030D01*
X70074030Y-86848652D01*
X70093305Y-86817402D01*
X70145252Y-86770679D01*
X70198843Y-86758500D01*
X70341577Y-86758500D01*
X70408616Y-86778185D01*
X70447115Y-86817403D01*
X70450967Y-86823648D01*
X70450970Y-86823652D01*
X70576348Y-86949030D01*
X70727262Y-87042115D01*
X70895574Y-87097887D01*
X70999455Y-87108500D01*
X72000544Y-87108499D01*
X72104426Y-87097887D01*
X72272738Y-87042115D01*
X72423652Y-86949030D01*
X72549030Y-86823652D01*
X72549030Y-86823651D01*
X72552863Y-86819819D01*
X72614186Y-86786334D01*
X72640544Y-86783500D01*
X72859456Y-86783500D01*
X72926495Y-86803185D01*
X72947137Y-86819819D01*
X72950970Y-86823652D01*
X73076348Y-86949030D01*
X73227262Y-87042115D01*
X73395574Y-87097887D01*
X73499455Y-87108500D01*
X74500544Y-87108499D01*
X74604426Y-87097887D01*
X74772738Y-87042115D01*
X74923652Y-86949030D01*
X75049030Y-86823652D01*
X75051394Y-86819819D01*
X75052885Y-86817403D01*
X75104833Y-86770678D01*
X75158423Y-86758500D01*
X75341577Y-86758500D01*
X75408616Y-86778185D01*
X75447115Y-86817403D01*
X75450967Y-86823648D01*
X75450970Y-86823652D01*
X75576348Y-86949030D01*
X75727262Y-87042115D01*
X75895574Y-87097887D01*
X75999455Y-87108500D01*
X77000544Y-87108499D01*
X77104426Y-87097887D01*
X77272738Y-87042115D01*
X77423652Y-86949030D01*
X77549030Y-86823652D01*
X77551394Y-86819819D01*
X77552885Y-86817403D01*
X77604833Y-86770678D01*
X77658423Y-86758500D01*
X77925295Y-86758500D01*
X78001512Y-86758500D01*
X78068551Y-86778185D01*
X78091796Y-86799013D01*
X78092235Y-86798575D01*
X78096826Y-86803166D01*
X78096828Y-86803167D01*
X78096830Y-86803170D01*
X78241161Y-86920047D01*
X78406638Y-87004362D01*
X78586029Y-87052430D01*
X78663157Y-87058500D01*
X80036842Y-87058499D01*
X80113971Y-87052430D01*
X80293362Y-87004362D01*
X80458839Y-86920047D01*
X80603170Y-86803170D01*
X80720047Y-86658839D01*
X80804362Y-86493362D01*
X80852430Y-86313971D01*
X80858500Y-86236843D01*
X80858499Y-85363158D01*
X80852430Y-85286029D01*
X80804362Y-85106638D01*
X80720047Y-84941161D01*
X80603170Y-84796830D01*
X80540851Y-84746365D01*
X80501140Y-84688879D01*
X80498812Y-84619048D01*
X80534607Y-84559044D01*
X80540852Y-84553634D01*
X80603170Y-84503170D01*
X80720047Y-84358839D01*
X80736675Y-84326205D01*
X80784650Y-84275409D01*
X80847160Y-84258500D01*
X84017501Y-84258500D01*
X84084540Y-84278185D01*
X84130295Y-84330989D01*
X84141501Y-84382500D01*
X84141501Y-84949546D01*
X84142507Y-84959758D01*
X84156091Y-85097699D01*
X84213760Y-85287808D01*
X84307401Y-85462998D01*
X84307405Y-85463005D01*
X84433431Y-85616568D01*
X84586994Y-85742594D01*
X84587001Y-85742598D01*
X84762191Y-85836239D01*
X84762193Y-85836239D01*
X84762196Y-85836241D01*
X84952299Y-85893908D01*
X84952298Y-85893908D01*
X84962766Y-85894938D01*
X85100453Y-85908500D01*
X86199546Y-85908499D01*
X86347701Y-85893908D01*
X86537804Y-85836241D01*
X86713004Y-85742595D01*
X86866568Y-85616568D01*
X86992595Y-85463004D01*
X87086241Y-85287804D01*
X87143908Y-85097701D01*
X87158500Y-84949547D01*
X87158499Y-82050454D01*
X87143908Y-81902299D01*
X87086241Y-81712196D01*
X87086239Y-81712193D01*
X87086239Y-81712191D01*
X86992598Y-81537001D01*
X86992594Y-81536994D01*
X86866568Y-81383431D01*
X86794498Y-81324285D01*
X86755164Y-81266539D01*
X86753293Y-81196695D01*
X86785480Y-81140753D01*
X86808353Y-81117881D01*
X86918721Y-80952704D01*
X86994744Y-80769169D01*
X87033500Y-80574329D01*
X87033500Y-80375671D01*
X87033500Y-79318702D01*
X87042016Y-79280314D01*
X87039843Y-79279594D01*
X87055699Y-79231742D01*
X87095470Y-79174297D01*
X87159986Y-79147473D01*
X87228762Y-79159787D01*
X87247713Y-79171476D01*
X87353796Y-79250889D01*
X87490799Y-79301989D01*
X87518050Y-79304918D01*
X87551345Y-79308499D01*
X87551362Y-79308500D01*
X91648638Y-79308500D01*
X91648654Y-79308499D01*
X91675692Y-79305591D01*
X91709201Y-79301989D01*
X91846204Y-79250889D01*
X91963261Y-79163261D01*
X92050889Y-79046204D01*
X92101989Y-78909201D01*
X92105591Y-78875692D01*
X92108499Y-78848654D01*
X92108500Y-78848637D01*
X92108500Y-74751362D01*
X92108499Y-74751345D01*
X92102064Y-74691500D01*
X92101989Y-74690799D01*
X92050889Y-74553796D01*
X91963261Y-74436739D01*
X91846204Y-74349111D01*
X91709203Y-74298011D01*
X91648654Y-74291500D01*
X91648638Y-74291500D01*
X87551362Y-74291500D01*
X87551345Y-74291500D01*
X87490797Y-74298011D01*
X87490795Y-74298011D01*
X87353795Y-74349111D01*
X87236739Y-74436739D01*
X87149110Y-74553797D01*
X87144863Y-74561576D01*
X87142142Y-74560090D01*
X87109444Y-74603728D01*
X87043968Y-74628114D01*
X86975702Y-74613230D01*
X86926320Y-74563802D01*
X86920623Y-74551887D01*
X86918722Y-74547297D01*
X86808354Y-74382119D01*
X86808351Y-74382115D01*
X85569819Y-73143583D01*
X85536334Y-73082260D01*
X85533500Y-73055902D01*
X85533500Y-72468702D01*
X85542016Y-72430313D01*
X85539843Y-72429593D01*
X85542113Y-72422739D01*
X85542115Y-72422738D01*
X85597887Y-72254426D01*
X85608500Y-72150545D01*
X85608499Y-69849456D01*
X85597887Y-69745574D01*
X85542115Y-69577262D01*
X85539844Y-69570407D01*
X85541959Y-69569705D01*
X85533500Y-69531296D01*
X85533500Y-68968702D01*
X85542016Y-68930313D01*
X85539843Y-68929593D01*
X85542113Y-68922739D01*
X85542115Y-68922738D01*
X85597887Y-68754426D01*
X85608500Y-68650545D01*
X85608499Y-66349456D01*
X85597887Y-66245574D01*
X85542115Y-66077262D01*
X85449030Y-65926348D01*
X85323652Y-65800970D01*
X85323648Y-65800967D01*
X85207844Y-65729538D01*
X85161119Y-65677590D01*
X85149898Y-65608628D01*
X85177741Y-65544546D01*
X85235810Y-65505690D01*
X85272941Y-65500000D01*
X94876000Y-65500000D01*
X94943039Y-65519685D01*
X94988794Y-65572489D01*
X95000000Y-65624000D01*
X95000000Y-72500000D01*
X96376000Y-72500000D01*
X96443039Y-72519685D01*
X96488794Y-72572489D01*
X96500000Y-72624000D01*
X96500000Y-76000000D01*
X98876000Y-76000000D01*
X98943039Y-76019685D01*
X98988794Y-76072489D01*
X99000000Y-76124000D01*
X99000000Y-77885000D01*
X98980315Y-77952039D01*
X98927511Y-77997794D01*
X98876000Y-78009000D01*
X98627512Y-78009000D01*
X98400381Y-78044973D01*
X98181666Y-78116039D01*
X97976768Y-78220440D01*
X97790719Y-78355613D01*
X97628113Y-78518219D01*
X97492940Y-78704268D01*
X97388539Y-78909166D01*
X97317473Y-79127881D01*
X97281500Y-79355011D01*
X97281500Y-79584988D01*
X97317473Y-79812118D01*
X97388539Y-80030833D01*
X97492940Y-80235731D01*
X97628111Y-80421778D01*
X97790722Y-80584389D01*
X97874080Y-80644952D01*
X97911188Y-80671913D01*
X97953853Y-80727243D01*
X97959832Y-80796857D01*
X97927226Y-80858652D01*
X97925983Y-80859912D01*
X97530714Y-81255181D01*
X97469391Y-81288666D01*
X97443033Y-81291500D01*
X97099462Y-81291500D01*
X97099446Y-81291501D01*
X96995572Y-81302113D01*
X96827264Y-81357884D01*
X96827259Y-81357886D01*
X96676346Y-81450971D01*
X96550971Y-81576346D01*
X96457886Y-81727259D01*
X96457884Y-81727264D01*
X96402113Y-81895572D01*
X96391500Y-81999447D01*
X96391500Y-83000537D01*
X96391501Y-83000553D01*
X96402113Y-83104427D01*
X96457884Y-83272735D01*
X96457886Y-83272740D01*
X96550971Y-83423653D01*
X96605181Y-83477863D01*
X96638666Y-83539186D01*
X96641500Y-83565544D01*
X96641500Y-83867500D01*
X96621815Y-83934539D01*
X96569011Y-83980294D01*
X96517500Y-83991500D01*
X93951345Y-83991500D01*
X93890797Y-83998011D01*
X93890795Y-83998011D01*
X93753795Y-84049111D01*
X93636739Y-84136739D01*
X93549111Y-84253795D01*
X93498011Y-84390795D01*
X93498011Y-84390797D01*
X93491500Y-84451345D01*
X93491500Y-88548654D01*
X93498011Y-88609202D01*
X93498011Y-88609204D01*
X93549111Y-88746204D01*
X93636739Y-88863261D01*
X93753796Y-88950889D01*
X93890799Y-89001989D01*
X93918050Y-89004918D01*
X93951345Y-89008499D01*
X93951362Y-89008500D01*
X98048638Y-89008500D01*
X98048654Y-89008499D01*
X98075692Y-89005591D01*
X98109201Y-89001989D01*
X98246204Y-88950889D01*
X98363261Y-88863261D01*
X98450889Y-88746204D01*
X98501989Y-88609201D01*
X98505591Y-88575692D01*
X98508499Y-88548654D01*
X98508500Y-88548637D01*
X98508500Y-84451362D01*
X98508499Y-84451345D01*
X98505157Y-84420270D01*
X98501989Y-84390799D01*
X98490068Y-84358839D01*
X98477896Y-84326205D01*
X98450889Y-84253796D01*
X98450887Y-84253793D01*
X98383233Y-84163417D01*
X98358816Y-84097953D01*
X98358500Y-84089107D01*
X98358500Y-83565544D01*
X98378185Y-83498505D01*
X98394819Y-83477863D01*
X98449030Y-83423652D01*
X98542115Y-83272738D01*
X98597887Y-83104426D01*
X98608500Y-83000545D01*
X98608499Y-82656963D01*
X98628183Y-82589925D01*
X98644813Y-82569288D01*
X98788320Y-82425780D01*
X98849642Y-82392297D01*
X98919334Y-82397281D01*
X98975267Y-82439153D01*
X98999684Y-82504617D01*
X99000000Y-82513463D01*
X99000000Y-89875618D01*
X98980315Y-89942657D01*
X98927511Y-89988412D01*
X98875618Y-89999617D01*
X66623618Y-89900380D01*
X66556640Y-89880490D01*
X66511048Y-89827545D01*
X66500000Y-89776381D01*
X66500000Y-75624000D01*
X66519685Y-75556961D01*
X66572489Y-75511206D01*
X66624000Y-75500000D01*
X75000000Y-75500000D01*
X75000000Y-73124000D01*
X75019685Y-73056961D01*
X75072489Y-73011206D01*
X75124000Y-73000000D01*
X76500000Y-73000000D01*
X76500000Y-65624000D01*
X76519685Y-65556961D01*
X76572489Y-65511206D01*
X76624000Y-65500000D01*
X77297148Y-65500000D01*
X77364187Y-65519685D01*
G37*
G04 #@! TD.AperFunction*
G04 #@! TA.AperFunction,Conductor*
G36*
X94943039Y-41019685D02*
G01*
X94988794Y-41072489D01*
X95000000Y-41124000D01*
X95000000Y-52500000D01*
X96376000Y-52500000D01*
X96443039Y-52519685D01*
X96488794Y-52572489D01*
X96500000Y-52624000D01*
X96500000Y-56000000D01*
X98876000Y-56000000D01*
X98943039Y-56019685D01*
X98988794Y-56072489D01*
X99000000Y-56124000D01*
X99000000Y-57376000D01*
X98980315Y-57443039D01*
X98927511Y-57488794D01*
X98876000Y-57500000D01*
X96500000Y-57500000D01*
X96500000Y-60517500D01*
X96480315Y-60584539D01*
X96427511Y-60630294D01*
X96376000Y-60641500D01*
X96065544Y-60641500D01*
X95998505Y-60621815D01*
X95977863Y-60605181D01*
X95923653Y-60550971D01*
X95923652Y-60550970D01*
X95772738Y-60457885D01*
X95772735Y-60457884D01*
X95604427Y-60402113D01*
X95500546Y-60391500D01*
X94499462Y-60391500D01*
X94499446Y-60391501D01*
X94395572Y-60402113D01*
X94227264Y-60457884D01*
X94227259Y-60457886D01*
X94076346Y-60550971D01*
X94022137Y-60605181D01*
X93960814Y-60638666D01*
X93934456Y-60641500D01*
X93132500Y-60641500D01*
X93065461Y-60621815D01*
X93019706Y-60569011D01*
X93008500Y-60517500D01*
X93008500Y-58451362D01*
X93008499Y-58451345D01*
X93005157Y-58420270D01*
X93001989Y-58390799D01*
X92950889Y-58253796D01*
X92863261Y-58136739D01*
X92746204Y-58049111D01*
X92736820Y-58045611D01*
X92609203Y-57998011D01*
X92548654Y-57991500D01*
X92548638Y-57991500D01*
X88451362Y-57991500D01*
X88451345Y-57991500D01*
X88390797Y-57998011D01*
X88390795Y-57998011D01*
X88253795Y-58049111D01*
X88136739Y-58136739D01*
X88049111Y-58253795D01*
X87998011Y-58390795D01*
X87998011Y-58390797D01*
X87991500Y-58451345D01*
X87991500Y-62548654D01*
X87998011Y-62609202D01*
X87998011Y-62609204D01*
X88049111Y-62746204D01*
X88136739Y-62863261D01*
X88253796Y-62950889D01*
X88390799Y-63001989D01*
X88418050Y-63004918D01*
X88451345Y-63008499D01*
X88451362Y-63008500D01*
X92548638Y-63008500D01*
X92548654Y-63008499D01*
X92575692Y-63005591D01*
X92609201Y-63001989D01*
X92746204Y-62950889D01*
X92863261Y-62863261D01*
X92950889Y-62746204D01*
X93001989Y-62609201D01*
X93005591Y-62575692D01*
X93008499Y-62548654D01*
X93008500Y-62548637D01*
X93008500Y-62482500D01*
X93028185Y-62415461D01*
X93080989Y-62369706D01*
X93132500Y-62358500D01*
X93934456Y-62358500D01*
X94001495Y-62378185D01*
X94022137Y-62394819D01*
X94076348Y-62449030D01*
X94227262Y-62542115D01*
X94395574Y-62597887D01*
X94499455Y-62608500D01*
X95500544Y-62608499D01*
X95604426Y-62597887D01*
X95772738Y-62542115D01*
X95923652Y-62449030D01*
X95977863Y-62394819D01*
X96039186Y-62361334D01*
X96065544Y-62358500D01*
X96376000Y-62358500D01*
X96443039Y-62378185D01*
X96488794Y-62430989D01*
X96500000Y-62482500D01*
X96500000Y-63376000D01*
X96480315Y-63443039D01*
X96427511Y-63488794D01*
X96376000Y-63500000D01*
X76624000Y-63500000D01*
X76556961Y-63480315D01*
X76511206Y-63427511D01*
X76500000Y-63376000D01*
X76500000Y-54500000D01*
X66624000Y-54500000D01*
X66556961Y-54480315D01*
X66511206Y-54427511D01*
X66500000Y-54376000D01*
X66500000Y-52649447D01*
X67266500Y-52649447D01*
X67266500Y-53425537D01*
X67266501Y-53425553D01*
X67276065Y-53519171D01*
X67277113Y-53529426D01*
X67332885Y-53697738D01*
X67425970Y-53848652D01*
X67551348Y-53974030D01*
X67702262Y-54067115D01*
X67870574Y-54122887D01*
X67974455Y-54133500D01*
X69025544Y-54133499D01*
X69129426Y-54122887D01*
X69297738Y-54067115D01*
X69448652Y-53974030D01*
X69574030Y-53848652D01*
X69593305Y-53817402D01*
X69645252Y-53770679D01*
X69698843Y-53758500D01*
X69841577Y-53758500D01*
X69908616Y-53778185D01*
X69947115Y-53817403D01*
X69950967Y-53823648D01*
X69950970Y-53823652D01*
X70076348Y-53949030D01*
X70227262Y-54042115D01*
X70395574Y-54097887D01*
X70499455Y-54108500D01*
X71500544Y-54108499D01*
X71604426Y-54097887D01*
X71772738Y-54042115D01*
X71923652Y-53949030D01*
X72049030Y-53823652D01*
X72049030Y-53823651D01*
X72052863Y-53819819D01*
X72114186Y-53786334D01*
X72140544Y-53783500D01*
X72359456Y-53783500D01*
X72426495Y-53803185D01*
X72447137Y-53819819D01*
X72450970Y-53823652D01*
X72576348Y-53949030D01*
X72727262Y-54042115D01*
X72895574Y-54097887D01*
X72999455Y-54108500D01*
X74000544Y-54108499D01*
X74104426Y-54097887D01*
X74272738Y-54042115D01*
X74423652Y-53949030D01*
X74549030Y-53823652D01*
X74551394Y-53819819D01*
X74552885Y-53817403D01*
X74604833Y-53770678D01*
X74658423Y-53758500D01*
X74841577Y-53758500D01*
X74908616Y-53778185D01*
X74947115Y-53817403D01*
X74950967Y-53823648D01*
X74950970Y-53823652D01*
X75076348Y-53949030D01*
X75227262Y-54042115D01*
X75395574Y-54097887D01*
X75499455Y-54108500D01*
X76500544Y-54108499D01*
X76604426Y-54097887D01*
X76772738Y-54042115D01*
X76923652Y-53949030D01*
X77049030Y-53823652D01*
X77049033Y-53823646D01*
X77051776Y-53820179D01*
X77108796Y-53779801D01*
X77178595Y-53776660D01*
X77236723Y-53809404D01*
X77316485Y-53889166D01*
X77340090Y-53904938D01*
X77384892Y-53958549D01*
X77390970Y-53975941D01*
X77395638Y-53993363D01*
X77420478Y-54042113D01*
X77479953Y-54158839D01*
X77596830Y-54303170D01*
X77741161Y-54420047D01*
X77906638Y-54504362D01*
X78086029Y-54552430D01*
X78163157Y-54558500D01*
X79536842Y-54558499D01*
X79613971Y-54552430D01*
X79793362Y-54504362D01*
X79958839Y-54420047D01*
X80103170Y-54303170D01*
X80220047Y-54158839D01*
X80304362Y-53993362D01*
X80352430Y-53813971D01*
X80358500Y-53736843D01*
X80358499Y-52863158D01*
X80352430Y-52786029D01*
X80304362Y-52606638D01*
X80220047Y-52441161D01*
X80103170Y-52296830D01*
X80040851Y-52246365D01*
X80001140Y-52188879D01*
X79998812Y-52119048D01*
X80034607Y-52059044D01*
X80040852Y-52053634D01*
X80044142Y-52050970D01*
X80103170Y-52003170D01*
X80220047Y-51858839D01*
X80236675Y-51826205D01*
X80284650Y-51775409D01*
X80347160Y-51758500D01*
X83517501Y-51758500D01*
X83584540Y-51778185D01*
X83630295Y-51830989D01*
X83641501Y-51882500D01*
X83641501Y-52449542D01*
X83656091Y-52597699D01*
X83713760Y-52787808D01*
X83807401Y-52962998D01*
X83807405Y-52963005D01*
X83933431Y-53116568D01*
X84086994Y-53242594D01*
X84087001Y-53242598D01*
X84262191Y-53336239D01*
X84262193Y-53336239D01*
X84262196Y-53336241D01*
X84452299Y-53393908D01*
X84452298Y-53393908D01*
X84462766Y-53394938D01*
X84600453Y-53408500D01*
X85699546Y-53408499D01*
X85847701Y-53393908D01*
X86037804Y-53336241D01*
X86213004Y-53242595D01*
X86366568Y-53116568D01*
X86418052Y-53053835D01*
X86475797Y-53014501D01*
X86513905Y-53008500D01*
X88099330Y-53008500D01*
X88099331Y-53008499D01*
X88294169Y-52969744D01*
X88477704Y-52893721D01*
X88642881Y-52783353D01*
X88783353Y-52642881D01*
X88893721Y-52477704D01*
X88969744Y-52294169D01*
X89008500Y-52099329D01*
X89008500Y-51900671D01*
X88969744Y-51705831D01*
X88904140Y-51547451D01*
X88896672Y-51477984D01*
X88904141Y-51452547D01*
X88925681Y-51400545D01*
X88969744Y-51294169D01*
X89008500Y-51099329D01*
X89008500Y-50900671D01*
X88969744Y-50705831D01*
X88904140Y-50547451D01*
X88896672Y-50477984D01*
X88904141Y-50452547D01*
X88924503Y-50403389D01*
X88969744Y-50294169D01*
X89008500Y-50099329D01*
X89008500Y-49900671D01*
X88969744Y-49705831D01*
X88904140Y-49547451D01*
X88896672Y-49477984D01*
X88904141Y-49452547D01*
X88905754Y-49448653D01*
X88969744Y-49294169D01*
X89008500Y-49099329D01*
X89008500Y-46400671D01*
X88969744Y-46205831D01*
X88947477Y-46152075D01*
X88893722Y-46022296D01*
X88893719Y-46022291D01*
X88893718Y-46022289D01*
X88783354Y-45857119D01*
X88783351Y-45857115D01*
X88142884Y-45216649D01*
X88142880Y-45216646D01*
X87977710Y-45106282D01*
X87977697Y-45106275D01*
X87905445Y-45076348D01*
X87905444Y-45076348D01*
X87794169Y-45030256D01*
X87794161Y-45030254D01*
X87599333Y-44991500D01*
X87599329Y-44991500D01*
X83915544Y-44991500D01*
X83848505Y-44971815D01*
X83827863Y-44955181D01*
X83823653Y-44950971D01*
X83823652Y-44950970D01*
X83729898Y-44893142D01*
X83672740Y-44857886D01*
X83672735Y-44857884D01*
X83504427Y-44802113D01*
X83400546Y-44791500D01*
X82649462Y-44791500D01*
X82649446Y-44791501D01*
X82545572Y-44802113D01*
X82377264Y-44857884D01*
X82377259Y-44857886D01*
X82226346Y-44950971D01*
X82100972Y-45076345D01*
X82097265Y-45081034D01*
X82040242Y-45121410D01*
X81970443Y-45124547D01*
X81910028Y-45089450D01*
X81902735Y-45081034D01*
X81899032Y-45076351D01*
X81899030Y-45076348D01*
X81773652Y-44950970D01*
X81679898Y-44893142D01*
X81622740Y-44857886D01*
X81622735Y-44857884D01*
X81454427Y-44802113D01*
X81350546Y-44791500D01*
X80599462Y-44791500D01*
X80599446Y-44791501D01*
X80495572Y-44802113D01*
X80327264Y-44857884D01*
X80327259Y-44857886D01*
X80176346Y-44950971D01*
X80172137Y-44955181D01*
X80110814Y-44988666D01*
X80084456Y-44991500D01*
X79632500Y-44991500D01*
X79565461Y-44971815D01*
X79519706Y-44919011D01*
X79508500Y-44867500D01*
X79508500Y-42451362D01*
X79508499Y-42451345D01*
X79505157Y-42420270D01*
X79501989Y-42390799D01*
X79450889Y-42253796D01*
X79363261Y-42136739D01*
X79246204Y-42049111D01*
X79109203Y-41998011D01*
X79048654Y-41991500D01*
X79048638Y-41991500D01*
X74951362Y-41991500D01*
X74951345Y-41991500D01*
X74890797Y-41998011D01*
X74890795Y-41998011D01*
X74753795Y-42049111D01*
X74636739Y-42136739D01*
X74549111Y-42253795D01*
X74498011Y-42390795D01*
X74498011Y-42390797D01*
X74491500Y-42451345D01*
X74491500Y-44275000D01*
X74471815Y-44342039D01*
X74419011Y-44387794D01*
X74367500Y-44399000D01*
X73755438Y-44399000D01*
X73688399Y-44379315D01*
X73684315Y-44376575D01*
X73594158Y-44313446D01*
X73594150Y-44313442D01*
X73394581Y-44220382D01*
X73394579Y-44220381D01*
X73394576Y-44220380D01*
X73243277Y-44179839D01*
X73181872Y-44163385D01*
X73181865Y-44163384D01*
X72962502Y-44144193D01*
X72962498Y-44144193D01*
X72743134Y-44163384D01*
X72743127Y-44163385D01*
X72530420Y-44220381D01*
X72330846Y-44313444D01*
X72330842Y-44313446D01*
X72150467Y-44439747D01*
X72150460Y-44439752D01*
X71994752Y-44595460D01*
X71994747Y-44595467D01*
X71868446Y-44775842D01*
X71868444Y-44775846D01*
X71775381Y-44975420D01*
X71718385Y-45188127D01*
X71718384Y-45188134D01*
X71699193Y-45407497D01*
X71699193Y-45407500D01*
X71718385Y-45626871D01*
X71775380Y-45839576D01*
X71775381Y-45839579D01*
X71775382Y-45839581D01*
X71783560Y-45857119D01*
X71868444Y-46039154D01*
X71994751Y-46219538D01*
X72150462Y-46375249D01*
X72330846Y-46501556D01*
X72530424Y-46594620D01*
X72743129Y-46651615D01*
X72899822Y-46665323D01*
X72962498Y-46670807D01*
X72962500Y-46670807D01*
X72962502Y-46670807D01*
X73017342Y-46666009D01*
X73181871Y-46651615D01*
X73394576Y-46594620D01*
X73594154Y-46501556D01*
X73613321Y-46488134D01*
X73684315Y-46438425D01*
X73750521Y-46416098D01*
X73755438Y-46416000D01*
X74367500Y-46416000D01*
X74434539Y-46435685D01*
X74480294Y-46488489D01*
X74491500Y-46540000D01*
X74491500Y-46548654D01*
X74498011Y-46609202D01*
X74498011Y-46609204D01*
X74549111Y-46746204D01*
X74636739Y-46863261D01*
X74753796Y-46950889D01*
X74890799Y-47001989D01*
X74918050Y-47004918D01*
X74951345Y-47008499D01*
X74951362Y-47008500D01*
X77717500Y-47008500D01*
X77784539Y-47028185D01*
X77830294Y-47080989D01*
X77841500Y-47132500D01*
X77841500Y-47367500D01*
X77821815Y-47434539D01*
X77769011Y-47480294D01*
X77717500Y-47491500D01*
X76465544Y-47491500D01*
X76398505Y-47471815D01*
X76377863Y-47455181D01*
X76348653Y-47425971D01*
X76348652Y-47425970D01*
X76197738Y-47332885D01*
X76197735Y-47332884D01*
X76029427Y-47277113D01*
X75925546Y-47266500D01*
X75149462Y-47266500D01*
X75149446Y-47266501D01*
X75045572Y-47277113D01*
X74877264Y-47332884D01*
X74877259Y-47332886D01*
X74726346Y-47425971D01*
X74600971Y-47551346D01*
X74507886Y-47702259D01*
X74507884Y-47702264D01*
X74452113Y-47870572D01*
X74441500Y-47974447D01*
X74441500Y-49025537D01*
X74441501Y-49025553D01*
X74452113Y-49129427D01*
X74454572Y-49136848D01*
X74507885Y-49297738D01*
X74600970Y-49448652D01*
X74726348Y-49574030D01*
X74877262Y-49667115D01*
X75045574Y-49722887D01*
X75149455Y-49733500D01*
X75153795Y-49733499D01*
X75220835Y-49753175D01*
X75266597Y-49805973D01*
X75276549Y-49875130D01*
X75247533Y-49938689D01*
X75218907Y-49963037D01*
X75076348Y-50050969D01*
X74950970Y-50176347D01*
X74950967Y-50176351D01*
X74947115Y-50182597D01*
X74895167Y-50229322D01*
X74841577Y-50241500D01*
X74658423Y-50241500D01*
X74591384Y-50221815D01*
X74552885Y-50182597D01*
X74549032Y-50176351D01*
X74549029Y-50176347D01*
X74423653Y-50050971D01*
X74423652Y-50050970D01*
X74272738Y-49957885D01*
X74258500Y-49953167D01*
X74104427Y-49902113D01*
X74000546Y-49891500D01*
X72999462Y-49891500D01*
X72999446Y-49891501D01*
X72895572Y-49902113D01*
X72727264Y-49957884D01*
X72727259Y-49957886D01*
X72576346Y-50050971D01*
X72450970Y-50176347D01*
X72450967Y-50176351D01*
X72355538Y-50331066D01*
X72303590Y-50377791D01*
X72234628Y-50389012D01*
X72170546Y-50361169D01*
X72144462Y-50331066D01*
X72049032Y-50176351D01*
X72049029Y-50176347D01*
X71923652Y-50050970D01*
X71923648Y-50050967D01*
X71817403Y-49985434D01*
X71770678Y-49933486D01*
X71758500Y-49879896D01*
X71758500Y-48925291D01*
X71729352Y-48778759D01*
X71729351Y-48778758D01*
X71729351Y-48778754D01*
X71720506Y-48757401D01*
X71672177Y-48640722D01*
X71672170Y-48640709D01*
X71629397Y-48576695D01*
X71608519Y-48510018D01*
X71608499Y-48507804D01*
X71608499Y-47999462D01*
X71608498Y-47999446D01*
X71602293Y-47938707D01*
X71597887Y-47895574D01*
X71542115Y-47727262D01*
X71449030Y-47576348D01*
X71323652Y-47450970D01*
X71229898Y-47393142D01*
X71172740Y-47357886D01*
X71172735Y-47357884D01*
X71004427Y-47302113D01*
X70900546Y-47291500D01*
X70099462Y-47291500D01*
X70099446Y-47291501D01*
X69995572Y-47302113D01*
X69827264Y-47357884D01*
X69827259Y-47357886D01*
X69676346Y-47450971D01*
X69550971Y-47576346D01*
X69457886Y-47727259D01*
X69457884Y-47727264D01*
X69402113Y-47895572D01*
X69391500Y-47999447D01*
X69391500Y-49000537D01*
X69391501Y-49000553D01*
X69402113Y-49104427D01*
X69412856Y-49136848D01*
X69457885Y-49272738D01*
X69550970Y-49423652D01*
X69676348Y-49549030D01*
X69827262Y-49642115D01*
X69995574Y-49697887D01*
X70099455Y-49708500D01*
X70117496Y-49708499D01*
X70184535Y-49728180D01*
X70230292Y-49780982D01*
X70241500Y-49832499D01*
X70241500Y-49879896D01*
X70221815Y-49946935D01*
X70182597Y-49985434D01*
X70076351Y-50050967D01*
X70076347Y-50050970D01*
X69950971Y-50176346D01*
X69857886Y-50327259D01*
X69857884Y-50327264D01*
X69802113Y-50495572D01*
X69791500Y-50599447D01*
X69791500Y-51400537D01*
X69791501Y-51400553D01*
X69802113Y-51504427D01*
X69831500Y-51593111D01*
X69857885Y-51672738D01*
X69921213Y-51775409D01*
X69950971Y-51823653D01*
X70039637Y-51912319D01*
X70073122Y-51973642D01*
X70068138Y-52043334D01*
X70039637Y-52087681D01*
X69950970Y-52176347D01*
X69950967Y-52176351D01*
X69947115Y-52182597D01*
X69895167Y-52229322D01*
X69841577Y-52241500D01*
X69640545Y-52241500D01*
X69573506Y-52221815D01*
X69552864Y-52205182D01*
X69524028Y-52176346D01*
X69448652Y-52100970D01*
X69332874Y-52029557D01*
X69297740Y-52007886D01*
X69297735Y-52007884D01*
X69129427Y-51952113D01*
X69025546Y-51941500D01*
X67974462Y-51941500D01*
X67974446Y-51941501D01*
X67870572Y-51952113D01*
X67702264Y-52007884D01*
X67702259Y-52007886D01*
X67551346Y-52100971D01*
X67425971Y-52226346D01*
X67332886Y-52377259D01*
X67332884Y-52377264D01*
X67277113Y-52545572D01*
X67266500Y-52649447D01*
X66500000Y-52649447D01*
X66500000Y-41124000D01*
X66519685Y-41056961D01*
X66572489Y-41011206D01*
X66624000Y-41000000D01*
X94876000Y-41000000D01*
X94943039Y-41019685D01*
G37*
G04 #@! TD.AperFunction*
M02*
